{"glyphs":{"0":{"ha":674,"x_min":0,"x_max":0,"o":"m 124 497 b 657 554 333 740 628 739 b 688 549 667 551 676 550 b 251 -81 763 403 507 -57 b 124 497 -42 -104 -99 238 m 296 488 b 347 128 168 344 190 100 b 532 406 403 138 506 272 b 482 392 511 396 493 389 b 296 488 490 522 375 582 "},"1":{"ha":472,"x_min":0,"x_max":0,"o":"m 285 686 b 511 658 371 732 504 738 b 258 -67 390 425 264 74 b 90 -100 183 -150 43 -94 b 165 371 108 93 135 247 b 107 315 146 351 126 333 b 29 482 53 322 15 401 b 244 610 69 485 139 517 b 285 686 258 642 274 668 "},"2":{"ha":622,"x_min":0,"x_max":0,"o":"m 288 94 b 508 103 372 114 456 117 b 394 -115 529 60 471 -74 b 83 -60 267 -64 188 -46 b -132 -8 -79 -135 -199 -87 b 60 72 -78 58 3 67 b 418 479 321 235 465 426 b 149 297 385 517 286 476 b 63 475 107 303 21 363 b 625 661 282 706 539 781 b 288 94 717 533 549 279 "},"3":{"ha":642,"x_min":0,"x_max":0,"o":"m 183 715 b 531 671 263 697 406 667 b 638 713 567 692 603 708 b 551 564 788 731 700 581 b 532 561 546 563 539 563 b 436 468 500 531 468 500 b 594 333 524 464 592 425 b 114 -100 599 139 311 -126 b -37 176 -65 -74 -67 103 b 192 247 32 243 185 303 b 199 28 110 79 147 25 b 358 265 250 31 357 118 b 301 342 360 303 335 326 l 276 326 b 249 439 131 251 78 383 l 267 442 b 361 533 299 474 331 504 b 121 511 256 515 157 500 b 183 715 96 599 179 717 "},"4":{"ha":657,"x_min":0,"x_max":0,"o":"m 465 628 b 233 256 381 500 308 365 b 321 254 263 257 293 254 b 528 726 397 515 479 664 b 743 672 615 768 744 756 b 504 219 661 540 571 369 b 585 181 536 208 565 196 b 499 50 589 115 500 49 l 443 69 b 400 -72 421 14 407 -36 b 232 -94 318 -154 193 -76 b 281 108 249 -21 264 46 b 124 124 222 118 169 124 b 6 46 88 89 49 61 b 19 214 -110 4 -131 140 b 154 542 104 358 156 532 b 465 628 276 669 467 683 "},"5":{"ha":619,"x_min":0,"x_max":0,"o":"m 599 714 b 636 535 640 690 658 615 b 274 511 557 490 393 493 b 265 446 272 490 269 468 b 321 457 282 450 300 453 b 221 -101 828 542 519 -54 b -18 196 8 -133 -64 19 b 190 263 39 250 126 299 b 228 31 193 256 57 11 b 218 322 388 47 488 335 b 78 349 167 253 69 286 b 147 415 79 376 106 397 b 136 547 144 456 140 504 l 129 551 b 217 654 24 624 124 726 b 232 639 222 649 228 642 b 599 714 324 649 461 672 "},"6":{"ha":597,"x_min":0,"x_max":0,"o":"m 556 508 b 561 514 571 507 571 511 b 283 451 531 525 397 542 l 278 446 b 396 17 671 592 650 239 b -39 157 186 -165 -97 -68 b 583 753 19 368 192 636 b 561 514 611 688 624 585 l 556 508 m 163 249 b 251 54 117 100 182 31 b 283 329 338 82 394 344 b 163 249 228 321 190 289 "},"7":{"ha":543,"x_min":0,"x_max":0,"o":"m 540 675 b 583 547 753 788 818 588 b 153 -82 436 406 221 97 b -46 21 79 -110 -25 -64 b 414 528 -18 88 201 339 b 42 568 247 519 81 533 b 208 754 63 626 158 735 b 540 675 338 688 461 671 "},"8":{"ha":639,"x_min":0,"x_max":0,"o":"m 433 713 b 656 646 554 718 613 685 b 615 564 653 646 642 601 b 624 554 615 561 621 557 b 542 451 603 506 574 474 b 418 -11 685 388 694 218 b -28 131 158 -229 -142 -156 b 157 354 13 231 82 301 b 433 713 69 469 228 703 m 265 299 b 272 36 96 186 124 -6 b 275 299 433 78 536 268 l 265 299 m 389 485 b 500 557 431 507 469 531 b 447 594 496 574 479 588 b 389 485 346 617 278 518 "},"9":{"ha":583,"x_min":0,"x_max":0,"o":"m 103 26 b 292 179 156 49 222 103 b 318 197 313 194 315 196 b 201 626 -74 51 -53 404 b 614 481 413 807 639 699 b 243 -106 585 239 400 15 b 103 26 176 -104 96 -71 m 314 315 b 410 365 353 321 383 339 b 346 592 469 515 414 614 b 314 315 260 561 203 299 "}," ":{"ha":414,"x_min":0,"x_max":0,"o":""},"A":{"ha":1376,"x_min":0,"x_max":0,"o":"m 85 -306 b -189 -162 -32 -336 -174 -256 b 276 354 -104 -32 69 160 b 10 313 186 347 94 335 b 83 513 -7 346 1 425 b 442 503 161 535 293 526 b 1122 986 674 706 924 890 b 1183 907 1158 968 1176 935 l 1196 904 b 1186 888 1193 899 1189 893 l 1186 881 b 1179 876 1183 879 1182 878 b 1014 151 993 557 928 208 b 1368 418 1106 96 1282 224 l 1464 356 b 829 -12 1313 -3 967 -107 b 793 303 760 35 753 149 b 535 353 725 326 635 344 b 85 -306 313 118 135 -132 m 647 465 b 831 422 708 451 771 438 b 969 739 864 518 911 626 b 647 465 860 658 750 565 "},"Á":{"ha":1376,"x_min":0,"x_max":0,"o":"m 85 -306 b -189 -162 -32 -336 -174 -256 b 276 354 -104 -32 69 160 b 10 313 186 347 94 335 b 83 513 -7 346 1 425 b 442 503 161 535 293 526 b 1122 986 674 706 924 890 b 1183 907 1158 968 1176 935 l 1196 904 b 1186 888 1193 899 1189 893 l 1186 881 b 1179 876 1183 879 1182 878 b 1014 151 993 557 928 208 b 1368 418 1106 96 1282 224 l 1464 356 b 829 -12 1313 -3 967 -107 b 793 303 760 35 753 149 b 535 353 725 326 635 344 b 85 -306 313 118 135 -132 m 647 465 b 831 422 708 451 771 438 b 969 739 864 518 911 626 b 647 465 860 658 750 565 m 1035 1093 b 1301 1332 1126 1149 1238 1233 b 1401 1158 1389 1353 1431 1253 b 1049 989 1317 1069 1161 1013 b 1035 1093 1013 996 1015 1058 "},"Ă":{"ha":1376,"x_min":0,"x_max":0,"o":"m 85 -306 b -189 -162 -32 -336 -174 -256 b 276 354 -104 -32 69 160 b 10 313 186 347 94 335 b 83 513 -7 346 1 425 b 442 503 161 535 293 526 b 1122 986 674 706 924 890 b 1183 907 1158 968 1176 935 l 1196 904 b 1186 888 1193 899 1189 893 l 1186 881 b 1179 876 1183 879 1182 878 b 1014 151 993 557 928 208 b 1368 418 1106 96 1282 224 l 1464 356 b 829 -12 1313 -3 967 -107 b 793 303 760 35 753 149 b 535 353 725 326 635 344 b 85 -306 313 118 135 -132 m 647 465 b 831 422 708 451 771 438 b 969 739 864 518 911 626 b 647 465 860 658 750 565 m 939 1181 b 1167 1203 1028 1275 1163 1261 b 1314 1215 1158 1079 1238 1065 b 1451 1172 1388 1258 1469 1226 b 939 1181 1332 946 981 917 "},"Ắ":{"ha":1376,"x_min":0,"x_max":0,"o":"m 85 -306 b -189 -162 -32 -336 -174 -256 b 276 354 -104 -32 69 160 b 10 313 186 347 94 335 b 83 513 -7 346 1 425 b 442 503 161 535 293 526 b 1122 986 674 706 924 890 b 1183 907 1158 968 1176 935 l 1196 904 b 1186 888 1193 899 1189 893 l 1186 881 b 1179 876 1183 879 1182 878 b 1014 151 993 557 928 208 b 1368 418 1106 96 1282 224 l 1464 356 b 829 -12 1313 -3 967 -107 b 793 303 760 35 753 149 b 535 353 725 326 635 344 b 85 -306 313 118 135 -132 m 647 465 b 831 422 708 451 771 438 b 969 739 864 518 911 626 b 647 465 860 658 750 565 m 942 1179 b 1104 1247 992 1232 1056 1251 b 1111 1335 1092 1269 1097 1310 b 1378 1574 1203 1390 1314 1475 b 1478 1400 1465 1594 1507 1494 b 1146 1235 1399 1317 1256 1261 b 1169 1201 1160 1228 1168 1215 b 1317 1214 1161 1078 1240 1064 b 1454 1171 1390 1257 1472 1225 b 942 1179 1335 944 983 915 "},"Ặ":{"ha":1376,"x_min":0,"x_max":0,"o":"m 85 -306 b -189 -162 -32 -336 -174 -256 b 276 354 -104 -32 69 160 b 10 313 186 347 94 335 b 83 513 -7 346 1 425 b 442 503 161 535 293 526 b 1122 986 674 706 924 890 b 1183 907 1158 968 1176 935 l 1196 904 b 1186 888 1193 899 1189 893 l 1186 881 b 1179 876 1183 879 1182 878 b 1014 151 993 557 928 208 b 1368 418 1106 96 1282 224 l 1464 356 b 829 -12 1313 -3 967 -107 b 793 303 760 35 753 149 b 535 353 725 326 635 344 b 85 -306 313 118 135 -132 m 317 -199 b 497 -50 331 -179 411 -142 b 661 -161 500 -57 557 -139 b 447 -356 617 -222 531 -312 b 317 -199 403 -319 342 -256 m 647 465 b 831 422 708 451 771 438 b 969 739 864 518 911 626 b 647 465 860 658 750 565 m 939 1181 b 1167 1203 1028 1275 1163 1261 b 1314 1215 1158 1079 1238 1065 b 1451 1172 1388 1258 1469 1226 b 939 1181 1332 946 981 917 "},"Ằ":{"ha":1376,"x_min":0,"x_max":0,"o":"m 85 -306 b -189 -162 -32 -336 -174 -256 b 276 354 -104 -32 69 160 b 10 313 186 347 94 335 b 83 513 -7 346 1 425 b 442 503 161 535 293 526 b 1122 986 674 706 924 890 b 1183 907 1158 968 1176 935 l 1196 904 b 1186 888 1193 899 1189 893 l 1186 881 b 1179 876 1183 879 1182 878 b 1014 151 993 557 928 208 b 1368 418 1106 96 1282 224 l 1464 356 b 829 -12 1313 -3 967 -107 b 793 303 760 35 753 149 b 535 353 725 326 635 344 b 85 -306 313 118 135 -132 m 647 465 b 831 422 708 451 771 438 b 969 739 864 518 911 626 b 647 465 860 658 750 565 m 946 1179 b 1174 1201 1035 1274 1169 1260 b 1321 1214 1165 1078 1244 1064 b 1458 1171 1394 1257 1476 1225 b 946 1179 1339 944 988 915 m 1110 1357 b 1281 1507 1119 1433 1203 1521 b 1450 1332 1303 1432 1382 1371 b 1407 1243 1460 1306 1439 1250 b 1110 1357 1299 1251 1163 1288 "},"Ẳ":{"ha":1376,"x_min":0,"x_max":0,"o":"m 85 -306 b -189 -162 -32 -336 -174 -256 b 276 354 -104 -32 69 160 b 10 313 186 347 94 335 b 83 513 -7 346 1 425 b 442 503 161 535 293 526 b 1122 986 674 706 924 890 b 1183 907 1158 968 1176 935 l 1196 904 b 1186 888 1193 899 1189 893 l 1186 881 b 1179 876 1183 879 1182 878 b 1014 151 993 557 928 208 b 1368 418 1106 96 1282 224 l 1464 356 b 829 -12 1313 -3 967 -107 b 793 303 760 35 753 149 b 535 353 725 326 635 344 b 85 -306 313 118 135 -132 m 647 465 b 831 422 708 451 771 438 b 969 739 864 518 911 626 b 647 465 860 658 750 565 m 961 1178 b 1163 1235 1026 1247 1118 1258 l 1157 1246 b 1403 1472 1376 1318 1431 1438 b 1304 1475 1375 1506 1332 1489 b 1274 1544 1278 1482 1261 1510 b 1597 1597 1390 1647 1528 1675 b 1193 1176 1678 1499 1574 1288 l 1189 1186 b 1336 1213 1188 1075 1263 1068 b 1474 1169 1410 1256 1492 1224 b 961 1178 1354 943 1003 914 "},"Ẵ":{"ha":1376,"x_min":0,"x_max":0,"o":"m 85 -306 b -189 -162 -32 -336 -174 -256 b 276 354 -104 -32 69 160 b 10 313 186 347 94 335 b 83 513 -7 346 1 425 b 442 503 161 535 293 526 b 1122 986 674 706 924 890 b 1183 907 1158 968 1176 935 l 1196 904 b 1186 888 1193 899 1189 893 l 1186 881 b 1179 876 1183 879 1182 878 b 1014 151 993 557 928 208 b 1368 418 1106 96 1282 224 l 1464 356 b 829 -12 1313 -3 967 -107 b 793 303 760 35 753 149 b 535 353 725 326 635 344 b 85 -306 313 118 135 -132 m 647 465 b 831 422 708 451 771 438 b 969 739 864 518 911 626 b 647 465 860 658 750 565 m 942 1190 b 1169 1213 1031 1285 1165 1271 b 1317 1225 1161 1089 1240 1075 b 1454 1182 1390 1268 1472 1236 b 942 1190 1335 956 983 926 m 1033 1415 b 1321 1419 1321 1674 1293 1408 b 1382 1494 1360 1435 1376 1467 b 1549 1413 1454 1529 1572 1521 b 1267 1269 1449 1294 1310 1258 b 1213 1390 1215 1279 1218 1390 b 1161 1272 1196 1389 1161 1317 b 1033 1415 1071 1233 1017 1357 "},"Ǎ":{"ha":1376,"x_min":0,"x_max":0,"o":"m 85 -306 b -189 -162 -32 -336 -174 -256 b 276 354 -104 -32 69 160 b 10 313 186 347 94 335 b 83 513 -7 346 1 425 b 442 503 161 535 293 526 b 1122 986 674 706 924 890 b 1183 907 1158 968 1176 935 l 1196 904 b 1186 888 1193 899 1189 893 l 1186 881 b 1179 876 1183 879 1182 878 b 1014 151 993 557 928 208 b 1368 418 1106 96 1282 224 l 1464 356 b 829 -12 1313 -3 967 -107 b 793 303 760 35 753 149 b 535 353 725 326 635 344 b 85 -306 313 118 135 -132 m 647 465 b 831 422 708 451 771 438 b 969 739 864 518 911 626 b 647 465 860 658 750 565 m 963 1190 b 1083 1300 979 1232 1024 1290 b 1161 1140 1097 1267 1126 1207 b 1336 1301 1200 1179 1261 1236 b 1408 1169 1367 1281 1410 1229 b 1204 975 1324 1113 1250 1042 b 1086 1025 1160 982 1100 997 b 963 1190 1083 1069 1067 1093 "},"Â":{"ha":1376,"x_min":0,"x_max":0,"o":"m 85 -306 b -189 -162 -32 -336 -174 -256 b 276 354 -104 -32 69 160 b 10 313 186 347 94 335 b 83 513 -7 346 1 425 b 442 503 161 535 293 526 b 1122 986 674 706 924 890 b 1183 907 1158 968 1176 935 l 1196 904 b 1186 888 1193 899 1189 893 l 1186 881 b 1179 876 1183 879 1182 878 b 1014 151 993 557 928 208 b 1368 418 1106 96 1282 224 l 1464 356 b 829 -12 1313 -3 967 -107 b 793 303 760 35 753 149 b 535 353 725 326 635 344 b 85 -306 313 118 135 -132 m 647 465 b 831 422 708 451 771 438 b 969 739 864 518 911 626 b 647 465 860 658 750 565 m 965 1081 b 1168 1275 1049 1138 1122 1208 b 1288 1225 1213 1268 1274 1253 b 1410 1061 1288 1181 1304 1157 b 1289 950 1392 1018 1346 960 b 1214 1110 1275 983 1246 1044 b 1036 949 1174 1071 1111 1014 b 965 1081 1004 971 961 1021 "},"Ấ":{"ha":1376,"x_min":0,"x_max":0,"o":"m 85 -306 b -189 -162 -32 -336 -174 -256 b 276 354 -104 -32 69 160 b 10 313 186 347 94 335 b 83 513 -7 346 1 425 b 442 503 161 535 293 526 b 1122 986 674 706 924 890 b 1183 907 1158 968 1176 935 l 1196 904 b 1186 888 1193 899 1189 893 l 1186 881 b 1179 876 1183 879 1182 878 b 1014 151 993 557 928 208 b 1368 418 1106 96 1282 224 l 1464 356 b 829 -12 1313 -3 967 -107 b 793 303 760 35 753 149 b 535 353 725 326 635 344 b 85 -306 313 118 135 -132 m 647 465 b 831 422 708 451 771 438 b 969 739 864 518 911 626 b 647 465 860 658 750 565 m 938 1067 b 1128 1243 1014 1118 1082 1182 b 1119 1346 1097 1256 1101 1313 b 1386 1585 1211 1401 1322 1486 b 1486 1411 1474 1606 1515 1506 b 1181 1253 1413 1335 1286 1281 b 1260 1211 1215 1244 1250 1231 b 1382 1047 1260 1167 1276 1143 b 1261 936 1364 1004 1318 946 b 1186 1096 1247 969 1218 1031 b 1008 935 1146 1057 1083 1000 b 938 1067 976 957 933 1007 "},"Ậ":{"ha":1376,"x_min":0,"x_max":0,"o":"m 85 -306 b -189 -162 -32 -336 -174 -256 b 276 354 -104 -32 69 160 b 10 313 186 347 94 335 b 83 513 -7 346 1 425 b 442 503 161 535 293 526 b 1122 986 674 706 924 890 b 1183 907 1158 968 1176 935 l 1196 904 b 1186 888 1193 899 1189 893 l 1186 881 b 1179 876 1183 879 1182 878 b 1014 151 993 557 928 208 b 1368 418 1106 96 1282 224 l 1464 356 b 829 -12 1313 -3 967 -107 b 793 303 760 35 753 149 b 535 353 725 326 635 344 b 85 -306 313 118 135 -132 m 317 -199 b 497 -50 331 -179 411 -142 b 661 -161 500 -57 557 -139 b 447 -356 617 -222 531 -312 b 317 -199 403 -319 342 -256 m 647 465 b 831 422 708 451 771 438 b 969 739 864 518 911 626 b 647 465 860 658 750 565 m 965 1081 b 1168 1275 1049 1138 1122 1208 b 1288 1225 1213 1268 1274 1253 b 1410 1061 1288 1181 1304 1157 b 1289 950 1392 1018 1346 960 b 1214 1110 1275 983 1246 1044 b 1036 949 1174 1071 1111 1014 b 965 1081 1004 971 961 1021 "},"Ầ":{"ha":1376,"x_min":0,"x_max":0,"o":"m 85 -306 b -189 -162 -32 -336 -174 -256 b 276 354 -104 -32 69 160 b 10 313 186 347 94 335 b 83 513 -7 346 1 425 b 442 503 161 535 293 526 b 1122 986 674 706 924 890 b 1183 907 1158 968 1176 935 l 1196 904 b 1186 888 1193 899 1189 893 l 1186 881 b 1179 876 1183 879 1182 878 b 1014 151 993 557 928 208 b 1368 418 1106 96 1282 224 l 1464 356 b 829 -12 1313 -3 967 -107 b 793 303 760 35 753 149 b 535 353 725 326 635 344 b 85 -306 313 118 135 -132 m 647 465 b 831 422 708 451 771 438 b 969 739 864 518 911 626 b 647 465 860 658 750 565 m 947 1086 b 1150 1281 1031 1143 1104 1214 b 1269 1231 1194 1274 1256 1258 b 1392 1067 1269 1186 1286 1163 b 1271 956 1374 1024 1328 965 b 1196 1115 1257 989 1228 1050 b 1018 954 1156 1076 1093 1019 b 947 1086 986 976 943 1026 m 1124 1388 b 1294 1538 1133 1464 1217 1551 b 1464 1363 1317 1463 1396 1401 b 1421 1274 1474 1336 1453 1281 b 1124 1388 1313 1282 1176 1318 "},"Ẩ":{"ha":1376,"x_min":0,"x_max":0,"o":"m 85 -306 b -189 -162 -32 -336 -174 -256 b 276 354 -104 -32 69 160 b 10 313 186 347 94 335 b 83 513 -7 346 1 425 b 442 503 161 535 293 526 b 1122 986 674 706 924 890 b 1183 907 1158 968 1176 935 l 1196 904 b 1186 888 1193 899 1189 893 l 1186 881 b 1179 876 1183 879 1182 878 b 1014 151 993 557 928 208 b 1368 418 1106 96 1282 224 l 1464 356 b 829 -12 1313 -3 967 -107 b 793 303 760 35 753 149 b 535 353 725 326 635 344 b 85 -306 313 118 135 -132 m 647 465 b 831 422 708 451 771 438 b 969 739 864 518 911 626 b 647 465 860 658 750 565 m 971 1100 b 1156 1269 1044 1150 1110 1210 l 1146 1267 l 1110 1336 b 1356 1563 1329 1408 1383 1528 b 1257 1565 1328 1596 1285 1579 b 1226 1635 1231 1572 1214 1600 b 1550 1688 1343 1738 1481 1765 b 1210 1288 1626 1594 1538 1403 b 1293 1244 1246 1279 1283 1265 b 1415 1081 1293 1200 1310 1176 b 1294 969 1397 1038 1351 979 b 1219 1129 1281 1003 1251 1064 b 1042 968 1179 1090 1117 1033 b 971 1100 1010 990 967 1040 "},"Ẫ":{"ha":1376,"x_min":0,"x_max":0,"o":"m 85 -306 b -189 -162 -32 -336 -174 -256 b 276 354 -104 -32 69 160 b 10 313 186 347 94 335 b 83 513 -7 346 1 425 b 442 503 161 535 293 526 b 1122 986 674 706 924 890 b 1183 907 1158 968 1176 935 l 1196 904 b 1186 888 1193 899 1189 893 l 1186 881 b 1179 876 1183 879 1182 878 b 1014 151 993 557 928 208 b 1368 418 1106 96 1282 224 l 1464 356 b 829 -12 1313 -3 967 -107 b 793 303 760 35 753 149 b 535 353 725 326 635 344 b 85 -306 313 118 135 -132 m 647 465 b 831 422 708 451 771 438 b 969 739 864 518 911 626 b 647 465 860 658 750 565 m 965 1111 b 1168 1306 1049 1168 1122 1239 b 1288 1256 1213 1299 1274 1283 b 1410 1092 1288 1211 1304 1188 b 1289 981 1392 1049 1346 990 b 1214 1140 1275 1014 1246 1075 b 1036 979 1174 1101 1111 1044 b 965 1111 1004 1001 961 1051 m 1069 1460 b 1357 1464 1357 1718 1329 1453 b 1418 1539 1396 1479 1413 1511 b 1585 1457 1490 1574 1608 1565 b 1303 1314 1485 1339 1346 1303 b 1249 1435 1251 1324 1254 1435 b 1197 1317 1232 1433 1197 1361 b 1069 1460 1107 1278 1053 1401 "},"Ä":{"ha":1376,"x_min":0,"x_max":0,"o":"m 85 -306 b -189 -162 -32 -336 -174 -256 b 276 354 -104 -32 69 160 b 10 313 186 347 94 335 b 83 513 -7 346 1 425 b 442 503 161 535 293 526 b 1122 986 674 706 924 890 b 1183 907 1158 968 1176 935 l 1196 904 b 1186 888 1193 899 1189 893 l 1186 881 b 1179 876 1183 879 1182 878 b 1014 151 993 557 928 208 b 1368 418 1106 96 1282 224 l 1464 356 b 829 -12 1313 -3 967 -107 b 793 303 760 35 753 149 b 535 353 725 326 635 344 b 85 -306 313 118 135 -132 m 647 465 b 831 422 708 451 771 438 b 969 739 864 518 911 626 b 647 465 860 658 750 565 m 925 1129 b 1106 1278 939 1149 1021 1189 b 1200 1193 1107 1271 1140 1226 b 1322 1297 1233 1217 1276 1250 b 1486 1186 1325 1290 1382 1208 b 1272 992 1440 1125 1354 1035 b 1189 1074 1250 1007 1217 1039 b 1056 972 1153 1039 1107 999 b 925 1129 1011 1010 949 1072 "},"Ǟ":{"ha":1376,"x_min":0,"x_max":0,"o":"m 85 -306 b -189 -162 -32 -336 -174 -256 b 276 354 -104 -32 69 160 b 10 313 186 347 94 335 b 83 513 -7 346 1 425 b 442 503 161 535 293 526 b 1122 986 674 706 924 890 b 1183 907 1158 968 1176 935 l 1196 904 b 1186 888 1193 899 1189 893 l 1186 881 b 1179 876 1183 879 1182 878 b 1014 151 993 557 928 208 b 1368 418 1106 96 1282 224 l 1464 356 b 829 -12 1313 -3 967 -107 b 793 303 760 35 753 149 b 535 353 725 326 635 344 b 85 -306 313 118 135 -132 m 647 465 b 831 422 708 451 771 438 b 969 739 864 518 911 626 b 647 465 860 658 750 565 m 925 1129 b 1106 1278 939 1149 1021 1189 b 1200 1193 1107 1271 1140 1226 b 1306 1281 1229 1214 1265 1242 b 1039 1342 1160 1288 1035 1339 b 1089 1458 1031 1372 1063 1426 b 1460 1460 1225 1446 1371 1440 b 1450 1290 1514 1425 1474 1322 b 1335 1279 1413 1282 1374 1279 b 1486 1186 1357 1251 1408 1203 b 1272 992 1440 1125 1354 1035 b 1189 1074 1250 1007 1217 1039 b 1056 972 1153 1039 1107 999 b 925 1129 1011 1010 949 1072 "},"Ạ":{"ha":1376,"x_min":0,"x_max":0,"o":"m 85 -306 b -189 -162 -32 -336 -174 -256 b 276 354 -104 -32 69 160 b 10 313 186 347 94 335 b 83 513 -7 346 1 425 b 442 503 161 535 293 526 b 1122 986 674 706 924 890 b 1183 907 1158 968 1176 935 l 1196 904 b 1186 888 1193 899 1189 893 l 1186 881 b 1179 876 1183 879 1182 878 b 1014 151 993 557 928 208 b 1368 418 1106 96 1282 224 l 1464 356 b 829 -12 1313 -3 967 -107 b 793 303 760 35 753 149 b 535 353 725 326 635 344 b 85 -306 313 118 135 -132 m 317 -199 b 497 -50 331 -179 411 -142 b 661 -161 500 -57 557 -139 b 447 -356 617 -222 531 -312 b 317 -199 403 -319 342 -256 m 647 465 b 831 422 708 451 771 438 b 969 739 864 518 911 626 b 647 465 860 658 750 565 "},"À":{"ha":1376,"x_min":0,"x_max":0,"o":"m 85 -306 b -189 -162 -32 -336 -174 -256 b 276 354 -104 -32 69 160 b 10 313 186 347 94 335 b 83 513 -7 346 1 425 b 442 503 161 535 293 526 b 1122 986 674 706 924 890 b 1183 907 1158 968 1176 935 l 1196 904 b 1186 888 1193 899 1189 893 l 1186 881 b 1179 876 1183 879 1182 878 b 1014 151 993 557 928 208 b 1368 418 1106 96 1282 224 l 1464 356 b 829 -12 1313 -3 967 -107 b 793 303 760 35 753 149 b 535 353 725 326 635 344 b 85 -306 313 118 135 -132 m 647 465 b 831 422 708 451 771 438 b 969 739 864 518 911 626 b 647 465 860 658 750 565 m 1029 1115 b 1200 1265 1039 1192 1122 1279 b 1369 1090 1222 1190 1301 1129 b 1326 1001 1379 1064 1358 1008 b 1029 1115 1218 1010 1082 1046 "},"Ả":{"ha":1376,"x_min":0,"x_max":0,"o":"m 85 -306 b -189 -162 -32 -336 -174 -256 b 276 354 -104 -32 69 160 b 10 313 186 347 94 335 b 83 513 -7 346 1 425 b 442 503 161 535 293 526 b 1122 986 674 706 924 890 b 1183 907 1158 968 1176 935 l 1196 904 b 1186 888 1193 899 1189 893 l 1186 881 b 1179 876 1183 879 1182 878 b 1014 151 993 557 928 208 b 1368 418 1106 96 1282 224 l 1464 356 b 829 -12 1313 -3 967 -107 b 793 303 760 35 753 149 b 535 353 725 326 635 344 b 85 -306 313 118 135 -132 m 647 465 b 831 422 708 451 771 438 b 969 739 864 518 911 626 b 647 465 860 658 750 565 m 992 1050 b 1238 1276 1211 1122 1265 1242 b 1139 1279 1210 1310 1167 1293 b 1108 1349 1113 1286 1096 1314 b 1432 1401 1225 1451 1363 1479 b 1028 981 1513 1303 1408 1092 l 992 1050 "},"Ā":{"ha":1376,"x_min":0,"x_max":0,"o":"m 85 -306 b -189 -162 -32 -336 -174 -256 b 276 354 -104 -32 69 160 b 10 313 186 347 94 335 b 83 513 -7 346 1 425 b 442 503 161 535 293 526 b 1122 986 674 706 924 890 b 1183 907 1158 968 1176 935 l 1196 904 b 1186 888 1193 899 1189 893 l 1186 881 b 1179 876 1183 879 1182 878 b 1014 151 993 557 928 208 b 1368 418 1106 96 1282 224 l 1464 356 b 829 -12 1313 -3 967 -107 b 793 303 760 35 753 149 b 535 353 725 326 635 344 b 85 -306 313 118 135 -132 m 647 465 b 831 422 708 451 771 438 b 969 739 864 518 911 626 b 647 465 860 658 750 565 m 938 1060 b 988 1176 929 1090 961 1144 b 1358 1178 1124 1164 1269 1158 b 1349 1008 1413 1143 1372 1040 b 938 1060 1154 967 932 1056 "},"Ą":{"ha":1376,"x_min":0,"x_max":0,"o":"m 85 -306 b -189 -162 -32 -336 -174 -256 b 276 354 -104 -32 69 160 b 10 313 186 347 94 335 b 83 513 -7 346 1 425 b 442 503 161 535 293 526 b 1122 986 674 706 924 890 b 1183 907 1158 968 1176 935 l 1196 904 b 1186 888 1193 899 1189 893 l 1186 881 b 1179 876 1183 879 1182 878 b 1014 151 993 557 928 208 b 1368 418 1106 96 1282 224 l 1464 356 b 1018 -39 1363 115 1172 -11 b 838 -240 853 -111 813 -210 b 936 -243 865 -274 908 -257 b 967 -312 963 -250 979 -278 b 643 -365 851 -415 713 -443 b 847 -24 579 -287 632 -137 b 829 -12 842 -19 835 -17 b 793 303 760 35 753 149 b 535 353 725 326 635 344 b 85 -306 313 118 135 -132 m 647 465 b 831 422 708 451 771 438 b 969 739 864 518 911 626 b 647 465 860 658 750 565 "},"Å":{"ha":1376,"x_min":0,"x_max":0,"o":"m 85 -306 b -189 -162 -32 -336 -174 -256 b 276 354 -104 -32 69 160 b 10 313 186 347 94 335 b 83 513 -7 346 1 425 b 442 503 161 535 293 526 b 1122 986 674 706 924 890 b 1183 907 1158 968 1176 935 l 1196 904 b 1186 888 1193 899 1189 893 l 1186 881 b 1179 876 1183 879 1182 878 b 1014 151 993 557 928 208 b 1368 418 1106 96 1282 224 l 1464 356 b 829 -12 1313 -3 967 -107 b 793 303 760 35 753 149 b 535 353 725 326 635 344 b 85 -306 313 118 135 -132 m 647 465 b 831 422 708 451 771 438 b 969 739 864 518 911 626 b 647 465 860 658 750 565 m 1194 1008 b 1297 1318 851 940 989 1247 b 1194 1008 1628 1390 1517 1072 m 1197 1107 b 1264 1210 1257 1114 1357 1218 b 1197 1107 1163 1200 1133 1100 "},"Ã":{"ha":1376,"x_min":0,"x_max":0,"o":"m 85 -306 b -189 -162 -32 -336 -174 -256 b 276 354 -104 -32 69 160 b 10 313 186 347 94 335 b 83 513 -7 346 1 425 b 442 503 161 535 293 526 b 1122 986 674 706 924 890 b 1183 907 1158 968 1176 935 l 1196 904 b 1186 888 1193 899 1189 893 l 1186 881 b 1179 876 1183 879 1182 878 b 1014 151 993 557 928 208 b 1368 418 1106 96 1282 224 l 1464 356 b 829 -12 1313 -3 967 -107 b 793 303 760 35 753 149 b 535 353 725 326 635 344 b 85 -306 313 118 135 -132 m 647 465 b 831 422 708 451 771 438 b 969 739 864 518 911 626 b 647 465 860 658 750 565 m 957 1163 b 1244 1167 1244 1421 1217 1156 b 1306 1242 1283 1182 1300 1214 b 1472 1160 1378 1276 1496 1268 b 1190 1017 1372 1042 1233 1006 b 1136 1138 1139 1026 1142 1138 b 1085 1019 1119 1136 1085 1064 b 957 1163 994 981 940 1104 "},"Æ":{"ha":1872,"x_min":0,"x_max":0,"o":"m 85 -306 b -189 -162 -32 -336 -174 -256 b 276 354 -104 -32 69 160 b 10 313 186 347 94 335 b 83 513 -7 346 1 425 b 442 503 161 535 293 526 b 1122 986 674 706 924 890 b 1167 946 1142 976 1157 961 b 1689 950 1335 1026 1558 1036 b 1703 539 1886 819 1681 633 b 1414 603 1649 513 1449 519 b 1579 851 1457 743 1626 785 b 1153 554 1503 953 1178 831 b 1425 436 1346 574 1451 531 b 1061 407 1399 347 1189 308 b 1075 36 919 325 907 122 b 1868 418 1294 -72 1751 104 l 1965 357 b 886 -103 1793 -67 1213 -265 b 729 322 668 4 654 185 b 535 353 672 336 607 346 b 85 -306 313 118 135 -132 m 647 465 b 813 426 703 453 758 439 b 974 507 860 467 915 497 b 951 726 935 588 932 663 b 647 465 849 649 746 560 "},"Ǣ":{"ha":1872,"x_min":0,"x_max":0,"o":"m 85 -306 b -189 -162 -32 -336 -174 -256 b 276 354 -104 -32 69 160 b 10 313 186 347 94 335 b 83 513 -7 346 1 425 b 442 503 161 535 293 526 b 1122 986 674 706 924 890 b 1167 946 1142 976 1157 961 b 1689 950 1335 1026 1558 1036 b 1703 539 1886 819 1681 633 b 1414 603 1649 513 1449 519 b 1579 851 1457 743 1626 785 b 1153 554 1503 953 1178 831 b 1425 436 1346 574 1451 531 b 1061 407 1399 347 1189 308 b 1075 36 919 325 907 122 b 1868 418 1294 -72 1751 104 l 1965 357 b 886 -103 1793 -67 1213 -265 b 729 322 668 4 654 185 b 535 353 672 336 607 346 b 85 -306 313 118 135 -132 m 647 465 b 813 426 703 453 758 439 b 974 507 860 467 915 497 b 951 726 935 588 932 663 b 647 465 849 649 746 560 m 938 1060 b 988 1176 929 1090 961 1144 b 1358 1178 1124 1164 1269 1158 b 1349 1008 1413 1143 1372 1040 b 938 1060 1154 967 932 1056 "},"B":{"ha":1394,"x_min":0,"x_max":0,"o":"m 636 -200 b 51 210 383 -224 32 -110 b 281 239 90 244 213 276 b 726 -68 213 36 385 -143 b 896 333 1071 7 1038 236 b 661 336 824 324 746 324 b 538 -37 604 229 557 107 b 336 65 469 -68 344 -4 b 767 911 375 268 636 528 b 963 867 811 932 993 893 b 719 436 932 735 821 603 b 1042 875 1093 378 1254 708 b 283 667 819 1049 443 783 b 171 843 224 685 165 744 b 1200 976 440 968 851 1151 b 1151 424 1438 858 1389 574 b 636 -200 1353 229 1126 -157 "},"Ḅ":{"ha":1394,"x_min":0,"x_max":0,"o":"m 636 -200 b 507 -200 594 -204 551 -204 b 669 -308 518 -217 574 -287 b 456 -503 625 -369 539 -460 b 325 -346 411 -467 350 -403 b 503 -200 339 -326 418 -290 b 51 210 276 -179 35 -56 b 281 239 90 244 213 276 b 726 -68 213 36 385 -143 b 896 333 1071 7 1038 236 b 661 336 824 324 746 324 b 538 -37 604 229 557 107 b 336 65 469 -68 344 -4 b 767 911 375 268 636 528 b 963 867 811 932 993 893 b 719 436 932 735 821 603 b 1042 875 1093 378 1254 708 b 283 667 819 1049 443 783 b 171 843 224 685 165 744 b 1200 976 440 968 851 1151 b 1151 424 1438 858 1389 574 b 636 -200 1353 229 1126 -157 "},"Ƀ":{"ha":1394,"x_min":0,"x_max":0,"o":"m 636 -200 b 51 210 383 -224 32 -110 b 281 239 90 244 213 276 b 265 149 269 208 265 178 b 369 308 283 214 329 274 b 457 324 399 315 428 319 b 767 911 554 482 686 672 b 963 867 811 932 993 893 b 719 436 932 735 821 603 b 1042 875 1093 378 1254 708 b 283 667 819 1049 443 783 b 171 843 224 685 165 744 b 1200 976 440 968 851 1151 b 1151 424 1438 858 1389 574 b 636 -200 1353 229 1126 -157 m 283 65 b 726 -68 335 -50 490 -119 b 896 333 1071 7 1038 236 b 661 336 824 324 746 324 l 658 331 b 846 286 738 325 804 310 b 793 100 847 199 831 160 b 575 131 746 118 665 132 b 538 -37 558 78 546 22 b 336 65 469 -68 344 -4 l 342 90 b 283 65 322 83 303 75 "},"C":{"ha":1156,"x_min":0,"x_max":0,"o":"m 211 -87 b 967 950 -406 269 458 1283 b 932 485 1167 821 907 576 b 643 550 881 460 678 464 b 858 851 686 683 906 785 b 388 665 774 964 531 868 b 388 58 250 468 206 169 b 1147 418 593 -68 1031 104 l 1246 357 b 211 -87 1072 -67 525 -272 "},"Ć":{"ha":1156,"x_min":0,"x_max":0,"o":"m 211 -87 b 689 1014 -301 210 210 961 b 697 1099 678 1036 683 1074 b 964 1338 789 1154 900 1239 b 1064 1164 1051 1358 1093 1258 b 788 1014 997 1094 886 1043 b 967 950 850 1007 910 988 b 932 485 1167 821 907 576 b 643 550 881 460 678 464 b 858 851 686 683 906 785 b 388 665 774 964 531 868 b 388 58 250 468 206 169 b 1147 418 593 -68 1031 104 l 1246 357 b 211 -87 1072 -67 525 -272 "},"Č":{"ha":1156,"x_min":0,"x_max":0,"o":"m 211 -87 b 761 1015 -328 225 264 1039 b 749 1031 756 1021 751 1025 b 625 1196 746 1075 729 1099 b 746 1306 642 1238 686 1296 b 824 1146 760 1272 789 1213 b 999 1307 863 1185 924 1242 b 1071 1175 1029 1286 1072 1235 b 876 994 992 1122 922 1057 b 967 950 907 983 938 969 b 932 485 1167 821 907 576 b 643 550 881 460 678 464 b 858 851 686 683 906 785 b 388 665 774 964 531 868 b 388 58 250 468 206 169 b 1147 418 593 -68 1031 104 l 1246 357 b 211 -87 1072 -67 525 -272 "},"Ç":{"ha":1156,"x_min":0,"x_max":0,"o":"m 211 -87 b 967 950 -406 269 458 1283 b 932 485 1167 821 907 576 b 643 550 881 460 678 464 b 858 851 686 683 906 785 b 388 665 774 964 531 868 b 388 58 250 468 206 169 b 1147 418 593 -68 1031 104 l 1246 357 b 374 -146 1100 0 688 -203 l 360 -158 b 475 -424 508 -189 561 -319 b 40 -454 382 -535 151 -554 b 85 -376 36 -431 51 -392 b 281 -342 160 -411 236 -397 b 138 -253 324 -285 286 -231 l 186 -167 l 267 -115 b 211 -87 247 -107 229 -97 "},"Ĉ":{"ha":1156,"x_min":0,"x_max":0,"o":"m 211 -87 b 649 1007 -287 201 182 919 b 628 1086 635 1031 626 1057 b 831 1281 711 1143 785 1214 b 950 1231 875 1274 936 1258 b 1072 1067 950 1186 967 1163 b 957 957 1054 1025 1011 968 l 967 950 b 932 485 1167 821 907 576 b 643 550 881 460 678 464 b 858 851 686 683 906 785 b 388 665 774 964 531 868 b 388 58 250 468 206 169 b 1147 418 593 -68 1031 104 l 1246 357 b 211 -87 1072 -67 525 -272 m 768 1015 b 949 961 831 1011 892 994 b 876 1115 935 996 907 1053 b 768 1015 850 1089 813 1056 "},"Ċ":{"ha":1156,"x_min":0,"x_max":0,"o":"m 211 -87 b 967 950 -406 269 458 1283 b 932 485 1167 821 907 576 b 643 550 881 460 678 464 b 858 851 686 683 906 785 b 388 665 774 964 531 868 b 388 58 250 468 206 169 b 1147 418 593 -68 1031 104 l 1246 357 b 211 -87 1072 -67 525 -272 m 707 1163 b 888 1311 721 1182 801 1219 b 1051 1200 890 1304 947 1222 b 838 1006 1007 1139 921 1049 b 707 1163 793 1043 732 1106 "},"D":{"ha":1529,"x_min":0,"x_max":0,"o":"m 551 -37 b 350 65 483 -68 358 -4 b 779 911 389 268 650 528 b 975 865 826 932 1013 892 b 551 -37 921 629 610 397 m 51 210 b 282 239 90 244 213 276 b 726 -68 211 36 385 -142 b 1031 906 1176 26 1354 743 b 286 667 776 1032 444 785 b 171 843 222 685 167 744 b 1200 976 440 968 851 1151 b 754 -183 1711 721 1339 -72 b 51 210 344 -260 33 -107 "},"Ɖ":{"ha":1529,"x_min":0,"x_max":0,"o":"m 551 -37 b 350 65 483 -68 358 -4 b 472 326 365 143 413 229 b 338 274 426 314 381 297 b 444 528 315 374 386 478 b 610 550 500 540 556 547 b 779 911 672 657 733 776 b 975 865 826 932 1013 892 b 800 543 951 763 879 661 b 921 506 850 535 892 522 b 868 319 922 418 906 379 b 682 350 826 336 760 349 b 551 -37 622 239 572 113 m 51 210 b 282 239 90 244 213 276 b 726 -68 211 36 385 -142 b 1031 906 1176 26 1354 743 b 286 667 776 1032 444 785 b 171 843 222 685 167 744 b 1200 976 440 968 851 1151 b 754 -183 1711 721 1339 -72 b 51 210 344 -260 33 -107 "},"Ð":{"ha":1529,"x_min":0,"x_max":0,"o":"m 551 -37 b 350 65 483 -68 358 -4 b 472 326 365 143 413 229 b 338 274 426 314 381 297 b 444 528 315 374 386 478 b 610 550 500 540 556 547 b 779 911 672 657 733 776 b 975 865 826 932 1013 892 b 800 543 951 763 879 661 b 921 506 850 535 892 522 b 868 319 922 418 906 379 b 682 350 826 336 760 349 b 551 -37 622 239 572 113 m 51 210 b 282 239 90 244 213 276 b 726 -68 211 36 385 -142 b 1031 906 1176 26 1354 743 b 286 667 776 1032 444 785 b 171 843 222 685 167 744 b 1200 976 440 968 851 1151 b 754 -183 1711 721 1339 -72 b 51 210 344 -260 33 -107 "},"Ď":{"ha":1529,"x_min":0,"x_max":0,"o":"m 551 -37 b 350 65 483 -68 358 -4 b 779 911 389 268 650 528 b 975 865 826 932 1013 892 b 551 -37 921 629 610 397 m 51 210 b 282 239 90 244 213 276 b 726 -68 211 36 385 -142 b 1031 906 1176 26 1354 743 b 286 667 776 1032 444 785 b 171 843 222 685 167 744 b 1014 1038 393 946 713 1089 b 890 1199 1010 1079 992 1104 b 1011 1308 907 1240 951 1299 b 1089 1149 1025 1275 1054 1215 b 1264 1310 1128 1188 1189 1244 b 1336 1178 1294 1289 1338 1238 b 1144 1001 1258 1126 1190 1063 b 1200 976 1164 994 1182 986 b 754 -183 1711 721 1339 -72 b 51 210 344 -260 33 -107 "},"Đ":{"ha":1529,"x_min":0,"x_max":0,"o":"m 551 -37 b 350 65 483 -68 358 -4 b 472 326 365 143 413 229 b 338 274 426 314 381 297 b 444 528 315 374 386 478 b 610 550 500 540 556 547 b 779 911 672 657 733 776 b 975 865 826 932 1013 892 b 800 543 951 763 879 661 b 921 506 850 535 892 522 b 868 319 922 418 906 379 b 682 350 826 336 760 349 b 551 -37 622 239 572 113 m 51 210 b 282 239 90 244 213 276 b 726 -68 211 36 385 -142 b 1031 906 1176 26 1354 743 b 286 667 776 1032 444 785 b 171 843 222 685 167 744 b 1200 976 440 968 851 1151 b 754 -183 1711 721 1339 -72 b 51 210 344 -260 33 -107 "},"Ḍ":{"ha":1529,"x_min":0,"x_max":0,"o":"m 551 -37 b 350 65 483 -68 358 -4 b 779 911 389 268 650 528 b 975 865 826 932 1013 892 b 551 -37 921 629 610 397 m 51 210 b 282 239 90 244 213 276 b 726 -68 211 36 385 -142 b 1031 906 1176 26 1354 743 b 286 667 776 1032 444 785 b 171 843 222 685 167 744 b 1200 976 440 968 851 1151 b 754 -183 1711 721 1339 -72 b 51 210 344 -260 33 -107 m 231 -365 b 411 -217 244 -346 325 -308 b 575 -328 414 -224 471 -306 b 361 -522 531 -389 444 -479 b 231 -365 317 -486 256 -422 "},"Ḏ":{"ha":1529,"x_min":0,"x_max":0,"o":"m 551 -37 b 350 65 483 -68 358 -4 b 779 911 389 268 650 528 b 975 865 826 932 1013 892 b 551 -37 921 629 610 397 m 51 210 b 282 239 90 244 213 276 b 726 -68 211 36 385 -142 b 1031 906 1176 26 1354 743 b 286 667 776 1032 444 785 b 171 843 222 685 167 744 b 1200 976 440 968 851 1151 b 754 -183 1711 721 1339 -72 b 51 210 344 -260 33 -107 m 185 -358 b 235 -242 176 -328 208 -272 b 606 -239 371 -254 517 -260 b 596 -408 660 -274 619 -376 b 185 -358 401 -450 179 -361 "},"E":{"ha":1135,"x_min":0,"x_max":0,"o":"m 144 -103 b 232 507 -222 76 -14 464 b 947 950 44 904 683 1125 b 961 539 1144 819 939 633 b 672 603 907 513 707 519 b 838 851 715 743 885 785 b 411 554 761 953 436 831 b 683 436 604 574 710 531 b 319 407 657 347 447 308 b 333 36 178 325 165 122 b 1126 418 553 -72 1010 104 l 1224 357 b 144 -103 1051 -67 471 -265 "},"É":{"ha":1135,"x_min":0,"x_max":0,"o":"m 144 -103 b 232 507 -222 76 -14 464 b 947 950 44 904 683 1125 b 961 539 1144 819 939 633 b 672 603 907 513 707 519 b 838 851 715 743 885 785 b 411 554 761 953 436 831 b 683 436 604 574 710 531 b 319 407 657 347 447 308 b 333 36 178 325 165 122 b 1126 418 553 -72 1010 104 l 1224 357 b 144 -103 1051 -67 471 -265 m 650 1118 b 917 1357 742 1174 853 1258 b 1017 1183 1004 1378 1046 1278 b 664 1014 932 1094 776 1038 b 650 1118 628 1021 631 1083 "},"Ě":{"ha":1135,"x_min":0,"x_max":0,"o":"m 144 -103 b 232 507 -222 76 -14 464 b 790 1006 75 839 494 1047 b 701 1050 753 1014 713 1028 b 578 1215 699 1094 682 1118 b 699 1325 594 1257 639 1315 b 776 1165 713 1292 742 1232 b 951 1326 815 1204 876 1261 b 1024 1194 982 1306 1025 1254 b 819 1000 939 1138 865 1067 b 947 950 867 990 911 974 b 961 539 1144 819 939 633 b 672 603 907 513 707 519 b 838 851 715 743 885 785 b 411 554 761 953 436 831 b 683 436 604 574 710 531 b 319 407 657 347 447 308 b 333 36 178 325 165 122 b 1126 418 553 -72 1010 104 l 1224 357 b 144 -103 1051 -67 471 -265 "},"Ȩ":{"ha":1135,"x_min":0,"x_max":0,"o":"m 144 -103 b 232 507 -222 76 -14 464 b 947 950 44 904 683 1125 b 961 539 1144 819 939 633 b 672 603 907 513 707 519 b 838 851 715 743 885 785 b 411 554 761 953 436 831 b 683 436 604 574 710 531 b 319 407 657 347 447 308 b 333 36 178 325 165 122 b 1126 418 553 -72 1010 104 l 1224 357 b 314 -153 1078 0 643 -197 l 310 -157 b 425 -422 458 -187 511 -318 b -11 -453 332 -533 101 -553 b 35 -375 -14 -429 1 -390 b 231 -340 110 -410 186 -396 b 88 -251 274 -283 236 -229 l 136 -165 l 197 -125 b 144 -103 179 -119 161 -111 "},"Ê":{"ha":1135,"x_min":0,"x_max":0,"o":"m 144 -103 b 232 507 -222 76 -14 464 b 618 1004 104 778 360 965 b 581 1106 596 1029 578 1065 b 783 1300 664 1163 738 1233 b 903 1250 828 1293 889 1278 b 1025 1086 903 1206 919 1182 b 904 975 1007 1043 961 985 b 829 1135 890 1008 861 1069 b 693 1010 797 1103 750 1060 b 947 950 789 1014 881 994 b 961 539 1144 819 939 633 b 672 603 907 513 707 519 b 838 851 715 743 885 785 b 411 554 761 953 436 831 b 683 436 604 574 710 531 b 319 407 657 347 447 308 b 333 36 178 325 165 122 b 1126 418 553 -72 1010 104 l 1224 357 b 144 -103 1051 -67 471 -265 "},"Ế":{"ha":1135,"x_min":0,"x_max":0,"o":"m 144 -103 b 232 507 -222 76 -14 464 b 585 997 110 765 338 949 b 553 1092 565 1022 550 1056 b 743 1268 629 1143 697 1207 b 735 1371 713 1281 717 1338 b 1001 1610 826 1426 938 1511 b 1101 1436 1089 1631 1131 1531 b 796 1278 1028 1360 901 1306 b 875 1236 831 1269 865 1256 b 997 1072 875 1192 892 1168 b 908 972 983 1038 950 993 b 947 950 922 965 935 958 b 961 539 1144 819 939 633 b 672 603 907 513 707 519 b 838 851 715 743 885 785 b 411 554 761 953 436 831 b 683 436 604 574 710 531 b 319 407 657 347 447 308 b 333 36 178 325 165 122 b 1126 418 553 -72 1010 104 l 1224 357 b 144 -103 1051 -67 471 -265 m 681 1010 b 864 989 746 1013 808 1007 b 801 1121 849 1024 826 1071 b 681 1010 772 1092 731 1054 "},"Ệ":{"ha":1135,"x_min":0,"x_max":0,"o":"m 144 -103 b 232 507 -222 76 -14 464 b 618 1004 104 778 360 965 b 581 1106 596 1029 578 1065 b 783 1300 664 1163 738 1233 b 903 1250 828 1293 889 1278 b 1025 1086 903 1206 919 1182 b 904 975 1007 1043 961 985 b 829 1135 890 1008 861 1069 b 693 1010 797 1103 750 1060 b 947 950 789 1014 881 994 b 961 539 1144 819 939 633 b 672 603 907 513 707 519 b 838 851 715 743 885 785 b 411 554 761 953 436 831 b 683 436 604 574 710 531 b 319 407 657 347 447 308 b 333 36 178 325 165 122 b 1126 418 553 -72 1010 104 l 1224 357 b 144 -103 1051 -67 471 -265 m 90 -314 b 271 -165 104 -294 185 -257 b 435 -276 274 -172 331 -254 b 221 -471 390 -337 304 -428 b 90 -314 176 -435 115 -371 "},"Ề":{"ha":1135,"x_min":0,"x_max":0,"o":"m 144 -103 b 232 507 -222 76 -14 464 b 607 1001 106 774 351 960 b 563 1111 582 1028 560 1067 b 765 1306 646 1168 719 1239 b 885 1256 810 1299 871 1283 b 1007 1092 885 1211 901 1188 b 888 981 989 1049 943 992 b 947 950 908 972 929 963 b 961 539 1144 819 939 633 b 672 603 907 513 707 519 b 838 851 715 743 885 785 b 411 554 761 953 436 831 b 683 436 604 574 710 531 b 319 407 657 347 447 308 b 333 36 178 325 165 122 b 1126 418 553 -72 1010 104 l 1224 357 b 144 -103 1051 -67 471 -265 m 668 1008 b 886 982 746 1015 822 1006 b 811 1140 872 1015 843 1075 b 668 1008 778 1107 728 1061 m 739 1413 b 910 1563 749 1489 832 1576 b 1079 1388 932 1488 1011 1426 b 1036 1299 1089 1361 1068 1306 b 739 1413 928 1307 792 1343 "},"Ể":{"ha":1135,"x_min":0,"x_max":0,"o":"m 144 -103 b 232 507 -222 76 -14 464 b 640 1007 101 785 374 976 b 586 1125 613 1032 583 1075 b 771 1294 660 1175 725 1235 l 761 1292 l 725 1361 b 971 1588 944 1433 999 1553 b 872 1590 943 1621 900 1604 b 842 1660 846 1597 829 1625 b 1165 1713 958 1763 1096 1790 b 825 1313 1242 1619 1153 1428 b 908 1269 861 1304 899 1290 b 1031 1106 908 1225 925 1201 b 910 994 1013 1063 967 1004 b 835 1154 896 1028 867 1089 b 676 1010 797 1118 743 1068 b 947 950 778 1015 876 997 b 961 539 1144 819 939 633 b 672 603 907 513 707 519 b 838 851 715 743 885 785 b 411 554 761 953 436 831 b 683 436 604 574 710 531 b 319 407 657 347 447 308 b 333 36 178 325 165 122 b 1126 418 553 -72 1010 104 l 1224 357 b 144 -103 1051 -67 471 -265 "},"Ễ":{"ha":1135,"x_min":0,"x_max":0,"o":"m 144 -103 b 232 507 -222 76 -14 464 b 647 1007 100 788 379 979 b 581 1136 615 1031 576 1079 b 783 1331 664 1193 738 1264 b 903 1281 828 1324 889 1308 b 1025 1117 903 1236 919 1213 b 904 1006 1007 1074 961 1015 b 829 1165 890 1039 861 1100 b 656 1008 790 1128 729 1072 b 947 950 765 1018 871 1000 b 961 539 1144 819 939 633 b 672 603 907 513 707 519 b 838 851 715 743 885 785 b 411 554 761 953 436 831 b 683 436 604 574 710 531 b 319 407 657 347 447 308 b 333 36 178 325 165 122 b 1126 418 553 -72 1010 104 l 1224 357 b 144 -103 1051 -67 471 -265 m 685 1485 b 972 1489 972 1743 944 1478 b 1033 1564 1011 1504 1028 1536 b 1200 1482 1106 1599 1224 1590 b 918 1339 1100 1364 961 1328 b 864 1460 867 1349 869 1460 b 813 1342 847 1458 813 1386 b 685 1485 722 1303 668 1426 "},"Ë":{"ha":1135,"x_min":0,"x_max":0,"o":"m 144 -103 b 232 507 -222 76 -14 464 b 658 1008 97 792 386 985 b 540 1154 615 1046 561 1103 b 721 1303 554 1174 636 1214 b 815 1218 722 1296 756 1251 b 938 1322 849 1242 892 1275 b 1101 1211 940 1315 997 1233 b 888 1017 1056 1150 969 1060 b 804 1099 865 1032 832 1064 b 694 1010 774 1069 736 1036 b 947 950 790 1014 881 994 b 961 539 1144 819 939 633 b 672 603 907 513 707 519 b 838 851 715 743 885 785 b 411 554 761 953 436 831 b 683 436 604 574 710 531 b 319 407 657 347 447 308 b 333 36 178 325 165 122 b 1126 418 553 -72 1010 104 l 1224 357 b 144 -103 1051 -67 471 -265 "},"Ė":{"ha":1135,"x_min":0,"x_max":0,"o":"m 144 -103 b 232 507 -222 76 -14 464 b 947 950 44 904 683 1125 b 961 539 1144 819 939 633 b 672 603 907 513 707 519 b 838 851 715 743 885 785 b 411 554 761 953 436 831 b 683 436 604 574 710 531 b 319 407 657 347 447 308 b 333 36 178 325 165 122 b 1126 418 553 -72 1010 104 l 1224 357 b 144 -103 1051 -67 471 -265 m 660 1182 b 840 1331 674 1201 754 1239 b 1004 1219 843 1324 900 1242 b 790 1025 960 1158 874 1068 b 660 1182 746 1063 685 1125 "},"Ẹ":{"ha":1135,"x_min":0,"x_max":0,"o":"m 144 -103 b 232 507 -222 76 -14 464 b 947 950 44 904 683 1125 b 961 539 1144 819 939 633 b 672 603 907 513 707 519 b 838 851 715 743 885 785 b 411 554 761 953 436 831 b 683 436 604 574 710 531 b 319 407 657 347 447 308 b 333 36 178 325 165 122 b 1126 418 553 -72 1010 104 l 1224 357 b 144 -103 1051 -67 471 -265 m 90 -314 b 271 -165 104 -294 185 -257 b 435 -276 274 -172 331 -254 b 221 -471 390 -337 304 -428 b 90 -314 176 -435 115 -371 "},"È":{"ha":1135,"x_min":0,"x_max":0,"o":"m 144 -103 b 232 507 -222 76 -14 464 b 947 950 44 904 683 1125 b 961 539 1144 819 939 633 b 672 603 907 513 707 519 b 838 851 715 743 885 785 b 411 554 761 953 436 831 b 683 436 604 574 710 531 b 319 407 657 347 447 308 b 333 36 178 325 165 122 b 1126 418 553 -72 1010 104 l 1224 357 b 144 -103 1051 -67 471 -265 m 644 1140 b 815 1290 654 1217 738 1304 b 985 1115 838 1215 917 1154 b 942 1026 994 1089 974 1033 b 644 1140 833 1035 697 1071 "},"Ẻ":{"ha":1135,"x_min":0,"x_max":0,"o":"m 144 -103 b 232 507 -222 76 -14 464 b 643 1007 100 786 375 978 l 607 1075 b 853 1301 826 1147 881 1267 b 754 1304 825 1335 782 1318 b 724 1374 728 1311 711 1339 b 1047 1426 840 1476 978 1504 b 650 1007 1128 1328 1025 1119 b 947 950 761 1018 869 1001 b 961 539 1144 819 939 633 b 672 603 907 513 707 519 b 838 851 715 743 885 785 b 411 554 761 953 436 831 b 683 436 604 574 710 531 b 319 407 657 347 447 308 b 333 36 178 325 165 122 b 1126 418 553 -72 1010 104 l 1224 357 b 144 -103 1051 -67 471 -265 "},"Ē":{"ha":1135,"x_min":0,"x_max":0,"o":"m 144 -103 b 232 507 -222 76 -14 464 b 947 950 44 904 683 1125 b 961 539 1144 819 939 633 b 672 603 907 513 707 519 b 838 851 715 743 885 785 b 411 554 761 953 436 831 b 683 436 604 574 710 531 b 319 407 657 347 447 308 b 333 36 178 325 165 122 b 1126 418 553 -72 1010 104 l 1224 357 b 144 -103 1051 -67 471 -265 m 553 1085 b 603 1201 544 1115 576 1169 b 974 1203 739 1189 885 1183 b 964 1033 1028 1168 988 1065 b 553 1085 769 992 547 1081 "},"Ę":{"ha":1135,"x_min":0,"x_max":0,"o":"m 144 -103 b 232 507 -222 76 -14 464 b 947 950 44 904 683 1125 b 961 539 1144 819 939 633 b 672 603 907 513 707 519 b 838 851 715 743 885 785 b 411 554 761 953 436 831 b 683 436 604 574 710 531 b 319 407 657 347 447 308 b 333 36 178 325 165 122 b 1126 418 553 -72 1010 104 l 1224 357 b 467 -157 1100 53 767 -135 b 286 -358 301 -229 261 -328 b 385 -361 314 -392 357 -375 b 415 -431 411 -368 428 -396 b 92 -483 300 -533 161 -561 b 283 -149 29 -407 78 -261 b 144 -103 233 -139 188 -124 "},"Ẽ":{"ha":1135,"x_min":0,"x_max":0,"o":"m 144 -103 b 232 507 -222 76 -14 464 b 947 950 44 904 683 1125 b 961 539 1144 819 939 633 b 672 603 907 513 707 519 b 838 851 715 743 885 785 b 411 554 761 953 436 831 b 683 436 604 574 710 531 b 319 407 657 347 447 308 b 333 36 178 325 165 122 b 1126 418 553 -72 1010 104 l 1224 357 b 144 -103 1051 -67 471 -265 m 572 1188 b 860 1192 860 1446 832 1181 b 921 1267 899 1207 915 1239 b 1088 1185 993 1301 1111 1293 b 806 1042 988 1067 849 1031 b 751 1163 754 1051 757 1163 b 700 1044 735 1161 700 1089 b 572 1188 610 1006 556 1129 "},"F":{"ha":1335,"x_min":0,"x_max":0,"o":"m 1171 268 b 797 349 1115 306 971 335 b 378 -260 590 132 424 -100 b 128 -129 272 -289 142 -215 b 568 358 207 -7 372 175 b 92 313 392 358 215 344 b 167 513 78 344 82 425 b 713 488 260 539 471 522 b 1160 826 861 617 1017 736 b 182 774 867 856 499 843 b 293 1032 163 825 178 922 b 1342 929 533 1088 1063 989 l 1542 964 b 1531 753 1561 907 1571 811 b 1350 800 1481 771 1419 786 b 907 457 1206 715 1050 593 b 1200 403 1006 440 1106 422 b 1171 268 1203 369 1197 306 "},"G":{"ha":1074,"x_min":0,"x_max":0,"o":"m 368 -701 b 274 -574 332 -678 276 -625 b 418 -86 315 -397 363 -232 b 88 -121 290 -147 169 -165 b 1018 950 -411 146 511 1282 b 983 485 1217 819 956 576 b 694 550 931 460 729 464 b 908 851 736 683 957 785 b 439 665 825 964 582 868 b 283 76 297 467 160 172 b 485 78 321 47 399 39 b 736 451 561 243 644 374 b 947 311 821 438 888 392 b 368 -701 768 213 436 -321 "},"Ğ":{"ha":1074,"x_min":0,"x_max":0,"o":"m 368 -701 b 274 -574 332 -678 276 -625 b 418 -86 315 -397 363 -232 b 88 -121 290 -147 169 -165 b 686 994 -314 93 204 871 b 561 1164 624 1019 575 1075 b 789 1186 650 1258 785 1244 b 936 1199 781 1063 860 1049 b 1074 1156 1010 1242 1092 1210 b 901 1000 1035 1082 971 1029 b 1018 950 942 990 981 974 b 983 485 1217 819 956 576 b 694 550 931 460 729 464 b 908 851 736 683 957 785 b 439 665 825 964 582 868 b 283 76 297 467 160 172 b 485 78 321 47 399 39 b 736 451 561 243 644 374 b 947 311 821 438 888 392 b 368 -701 768 213 436 -321 "},"Ǧ":{"ha":1074,"x_min":0,"x_max":0,"o":"m 368 -701 b 274 -574 332 -678 276 -625 b 418 -86 315 -397 363 -232 b 88 -121 290 -147 169 -165 b 714 1000 -321 97 225 900 b 708 1008 711 1003 710 1006 b 585 1174 706 1053 689 1076 b 706 1283 601 1215 646 1274 b 783 1124 719 1250 749 1190 b 958 1285 822 1163 883 1219 b 1031 1153 989 1264 1032 1213 b 864 1007 967 1110 908 1058 b 1018 950 918 1000 969 982 b 983 485 1217 819 956 576 b 694 550 931 460 729 464 b 908 851 736 683 957 785 b 439 665 825 964 582 868 b 283 76 297 467 160 172 b 485 78 321 47 399 39 b 736 451 561 243 644 374 b 947 311 821 438 888 392 b 368 -701 768 213 436 -321 "},"Ĝ":{"ha":1074,"x_min":0,"x_max":0,"o":"m 368 -701 b 274 -574 332 -678 276 -625 b 418 -86 315 -397 363 -232 b 88 -121 290 -147 169 -165 b 618 972 -294 83 157 799 b 588 1064 599 997 585 1029 b 790 1258 671 1121 744 1192 b 910 1208 835 1251 896 1236 b 1032 1044 910 1164 926 1140 b 981 971 1022 1021 1004 993 b 1018 950 993 965 1006 958 b 983 485 1217 819 956 576 b 694 550 931 460 729 464 b 908 851 736 683 957 785 b 439 665 825 964 582 868 b 283 76 297 467 160 172 b 485 78 321 47 399 39 b 736 451 561 243 644 374 b 947 311 821 438 888 392 b 368 -701 768 213 436 -321 m 740 1004 b 879 1004 788 1013 835 1013 l 836 1093 b 740 1004 811 1069 779 1039 "},"Ģ":{"ha":1074,"x_min":0,"x_max":0,"o":"m 368 -701 b 274 -574 332 -678 276 -625 b 418 -86 315 -397 363 -232 b 165 -144 325 -131 238 -151 b 253 -269 200 -175 238 -221 b -28 -532 206 -379 75 -478 b -69 -450 -49 -518 -81 -486 b 24 -368 -29 -421 1 -393 b -32 -301 3 -353 -18 -329 b 125 -136 -11 -253 43 -185 b 88 -121 113 -132 100 -128 b 1018 950 -411 146 511 1282 b 983 485 1217 819 956 576 b 694 550 931 460 729 464 b 908 851 736 683 957 785 b 439 665 825 964 582 868 b 283 76 297 467 160 172 b 485 78 321 47 399 39 b 736 451 561 243 644 374 b 947 311 821 438 888 392 b 368 -701 768 213 436 -321 "},"Ġ":{"ha":1074,"x_min":0,"x_max":0,"o":"m 368 -701 b 274 -574 332 -678 276 -625 b 418 -86 315 -397 363 -232 b 88 -121 290 -147 169 -165 b 769 1008 -336 106 268 963 b 667 1140 731 1046 686 1094 b 847 1289 681 1160 761 1197 b 1011 1178 850 1282 907 1200 b 840 1010 974 1128 908 1057 b 1018 950 903 1006 963 986 b 983 485 1217 819 956 576 b 694 550 931 460 729 464 b 908 851 736 683 957 785 b 439 665 825 964 582 868 b 283 76 297 467 160 172 b 485 78 321 47 399 39 b 736 451 561 243 644 374 b 947 311 821 438 888 392 b 368 -701 768 213 436 -321 "},"Ḡ":{"ha":1074,"x_min":0,"x_max":0,"o":"m 368 -701 b 274 -574 332 -678 276 -625 b 418 -86 315 -397 363 -232 b 88 -121 290 -147 169 -165 b 703 997 -318 96 217 888 b 560 1043 617 1015 557 1040 b 610 1160 551 1074 583 1128 b 981 1161 746 1147 892 1142 b 971 992 1035 1126 994 1024 l 944 988 b 1018 950 971 978 994 965 b 983 485 1217 819 956 576 b 694 550 931 460 729 464 b 908 851 736 683 957 785 b 439 665 825 964 582 868 b 283 76 297 467 160 172 b 485 78 321 47 399 39 b 736 451 561 243 644 374 b 947 311 821 438 888 392 b 368 -701 768 213 436 -321 "},"Ǥ":{"ha":1074,"x_min":0,"x_max":0,"o":"m 368 -701 b 274 -574 332 -678 276 -625 b 418 -86 315 -397 363 -232 b 88 -121 290 -147 169 -165 b 1018 950 -411 146 511 1282 b 983 485 1217 819 956 576 b 694 550 931 460 729 464 b 908 851 736 683 957 785 b 439 665 825 964 582 868 b 283 76 297 467 160 172 b 485 78 321 47 399 39 l 508 126 b 399 81 471 115 433 100 b 506 335 376 181 447 285 b 647 356 553 344 600 351 b 736 451 676 393 706 425 b 929 335 813 439 874 400 b 982 313 949 328 967 321 b 929 126 983 225 967 186 b 783 156 894 140 843 151 b 368 -701 613 -56 418 -421 "},"H":{"ha":1465,"x_min":0,"x_max":0,"o":"m 63 -340 b -207 -190 -56 -368 -197 -283 b 428 357 -4 -72 240 118 b 104 313 319 353 207 339 b 178 513 88 346 96 425 b 532 504 256 533 385 526 b 715 989 625 653 692 815 b 919 946 797 1015 872 976 b 711 472 888 819 814 651 b 881 432 767 460 824 446 b 1285 1003 946 611 1075 817 b 1428 869 1353 994 1404 922 b 1078 153 1032 633 965 217 b 1458 418 1171 96 1375 225 l 1554 356 b 893 -12 1403 -3 1031 -107 b 846 317 829 29 808 154 b 638 351 786 333 715 344 b 63 -340 486 110 285 -142 "},"Ħ":{"ha":1465,"x_min":0,"x_max":0,"o":"m 63 -340 b -207 -190 -56 -368 -197 -283 b 428 357 -4 -72 240 118 b 104 313 319 353 207 339 b 178 513 88 346 96 425 b 363 524 224 525 288 528 b 535 660 379 579 463 632 l 621 667 b 715 989 667 769 700 876 b 919 946 797 1015 872 976 b 818 676 900 869 865 776 b 1001 675 882 678 944 676 b 1285 1003 1072 785 1165 897 b 1428 869 1353 994 1404 922 b 1185 661 1326 808 1246 736 b 1281 643 1222 656 1254 650 b 1200 510 1283 581 1258 553 b 1096 522 1172 515 1136 519 b 1078 153 1007 350 1011 190 b 1458 418 1171 96 1375 225 l 1554 356 b 893 -12 1403 -3 1031 -107 b 846 317 829 29 808 154 b 638 351 786 333 715 344 b 63 -340 486 110 285 -142 m 532 504 b 536 510 533 506 535 508 l 514 507 m 711 472 b 881 432 767 460 824 446 b 922 532 892 465 906 499 b 743 529 865 533 804 532 l 711 472 "},"Ḫ":{"ha":1465,"x_min":0,"x_max":0,"o":"m 63 -340 b -207 -190 -56 -368 -197 -283 b 428 357 -4 -72 240 118 b 104 313 319 353 207 339 b 178 513 88 346 96 425 b 532 504 256 533 385 526 b 715 989 625 653 692 815 b 919 946 797 1015 872 976 b 711 472 888 819 814 651 b 881 432 767 460 824 446 b 1285 1003 946 611 1075 817 b 1428 869 1353 994 1404 922 b 1078 153 1032 633 965 217 b 1458 418 1171 96 1375 225 l 1554 356 b 893 -12 1403 -3 1031 -107 b 846 317 829 29 808 154 b 638 351 786 333 715 344 b 63 -340 486 110 285 -142 m 303 -121 b 531 -99 392 -26 526 -40 b 678 -86 522 -222 601 -236 b 815 -129 751 -43 833 -75 b 303 -121 696 -356 344 -385 "},"Ĥ":{"ha":1465,"x_min":0,"x_max":0,"o":"m 63 -340 b -207 -190 -56 -368 -197 -283 b 428 357 -4 -72 240 118 b 104 313 319 353 207 339 b 178 513 88 346 96 425 b 532 504 256 533 385 526 b 715 989 625 653 692 815 b 919 946 797 1015 872 976 b 711 472 888 819 814 651 b 881 432 767 460 824 446 b 1285 1003 946 611 1075 817 b 1428 869 1353 994 1404 922 b 1078 153 1032 633 965 217 b 1458 418 1171 96 1375 225 l 1554 356 b 893 -12 1403 -3 1031 -107 b 846 317 829 29 808 154 b 638 351 786 333 715 344 b 63 -340 486 110 285 -142 m 892 1106 b 1094 1300 975 1163 1049 1233 b 1214 1250 1139 1293 1200 1278 b 1336 1086 1214 1206 1231 1182 b 1215 975 1318 1043 1272 985 b 1140 1135 1201 1008 1172 1069 b 963 974 1100 1096 1038 1039 b 892 1106 931 996 888 1046 "},"Ḥ":{"ha":1465,"x_min":0,"x_max":0,"o":"m 63 -340 b -207 -190 -56 -368 -197 -283 b 428 357 -4 -72 240 118 b 104 313 319 353 207 339 b 178 513 88 346 96 425 b 532 504 256 533 385 526 b 715 989 625 653 692 815 b 919 946 797 1015 872 976 b 711 472 888 819 814 651 b 881 432 767 460 824 446 b 1285 1003 946 611 1075 817 b 1428 869 1353 994 1404 922 b 1078 153 1032 633 965 217 b 1458 418 1171 96 1375 225 l 1554 356 b 893 -12 1403 -3 1031 -107 b 846 317 829 29 808 154 b 638 351 786 333 715 344 b 63 -340 486 110 285 -142 m 361 -225 b 542 -76 375 -206 456 -168 b 706 -187 544 -83 601 -165 b 492 -382 661 -249 575 -339 b 361 -225 447 -346 386 -282 "},"I":{"ha":729,"x_min":0,"x_max":0,"o":"m -37 -176 b 258 1036 -297 43 190 497 b 497 910 311 1038 421 968 b 119 -32 447 569 24 44 b 722 418 242 -132 622 183 l 817 356 b -37 -176 707 81 182 -361 "},"Ĳ":{"ha":1842,"x_min":0,"x_max":0,"o":"m -37 -176 b 258 1036 -297 43 190 497 b 497 910 311 1038 421 968 b 119 -32 447 569 24 44 b 722 418 242 -132 622 183 l 817 356 b -37 -176 707 81 182 -361 m 557 -128 b 744 63 563 -33 657 36 b 1181 -67 844 -119 1022 -174 b 1676 801 1349 50 1539 333 b 922 708 1474 813 1240 776 b 1033 968 901 760 917 857 b 1732 928 1294 978 1525 968 b 1931 1022 1781 972 1868 1007 b 1983 742 1986 954 2017 826 b 1810 788 1926 763 1869 776 b 1246 -264 1667 276 1464 -79 b 557 -128 1014 -457 671 -385 "},"Í":{"ha":729,"x_min":0,"x_max":0,"o":"m -37 -176 b 258 1036 -297 43 190 497 l 268 1036 b 281 1106 264 1058 269 1086 b 547 1344 372 1161 483 1246 b 647 1171 635 1365 676 1265 b 338 1011 574 1093 444 1039 b 497 910 389 986 450 946 b 119 -32 447 569 24 44 b 722 418 242 -132 622 183 l 817 356 b -37 -176 707 81 182 -361 "},"Ǐ":{"ha":729,"x_min":0,"x_max":0,"o":"m -37 -176 b 258 1036 -297 43 190 497 b 497 910 311 1038 421 968 b 119 -32 447 569 24 44 b 722 418 242 -132 622 183 l 817 356 b -37 -176 707 81 182 -361 m 208 1203 b 329 1313 225 1244 269 1303 b 407 1153 343 1279 372 1219 b 582 1314 446 1192 507 1249 b 654 1182 613 1293 656 1242 b 450 988 569 1125 496 1054 b 332 1038 406 994 346 1010 b 208 1203 329 1082 313 1106 "},"Î":{"ha":729,"x_min":0,"x_max":0,"o":"m -37 -176 b 251 989 -289 36 163 471 b 211 1093 228 1015 208 1051 b 414 1288 294 1150 368 1221 b 533 1238 458 1281 519 1265 b 656 1074 533 1193 550 1169 b 535 963 638 1031 592 972 b 460 1122 521 996 492 1057 b 339 1011 431 1093 389 1056 b 497 910 390 986 450 946 b 119 -32 447 569 24 44 b 722 418 242 -132 622 183 l 817 356 b -37 -176 707 81 182 -361 "},"Ï":{"ha":729,"x_min":0,"x_max":0,"o":"m -37 -176 b 257 1025 -296 42 183 492 b 171 1142 222 1060 188 1103 b 351 1290 185 1161 267 1201 b 446 1206 353 1283 386 1239 b 568 1310 479 1229 522 1263 b 732 1199 571 1303 628 1221 b 518 1004 686 1138 600 1047 b 435 1086 496 1019 463 1051 b 343 1010 408 1061 378 1033 b 497 910 393 985 451 944 b 119 -32 447 569 24 44 b 722 418 242 -132 622 183 l 817 356 b -37 -176 707 81 182 -361 "},"Ḯ":{"ha":729,"x_min":0,"x_max":0,"o":"m -37 -176 b 257 1025 -296 42 183 492 b 171 1142 222 1060 188 1103 b 351 1290 185 1161 267 1201 b 446 1206 353 1283 386 1239 b 568 1310 479 1229 522 1263 b 732 1199 571 1303 628 1221 b 518 1004 686 1138 600 1047 b 435 1086 496 1019 463 1051 b 343 1010 408 1061 378 1033 b 497 910 393 985 451 944 b 119 -32 447 569 24 44 b 722 418 242 -132 622 183 l 817 356 b -37 -176 707 81 182 -361 m 382 1388 b 649 1626 474 1443 585 1528 b 749 1453 736 1647 778 1547 b 396 1283 664 1364 508 1307 b 382 1388 360 1290 363 1353 "},"İ":{"ha":729,"x_min":0,"x_max":0,"o":"m -37 -176 b 258 1036 -297 43 190 497 b 497 910 311 1038 421 968 b 119 -32 447 569 24 44 b 722 418 242 -132 622 183 l 817 356 b -37 -176 707 81 182 -361 m 290 1169 b 471 1318 304 1189 385 1226 b 635 1207 474 1311 531 1229 b 421 1013 590 1146 504 1056 b 290 1169 376 1050 315 1113 "},"Ị":{"ha":729,"x_min":0,"x_max":0,"o":"m -37 -176 b 258 1036 -297 43 190 497 b 497 910 311 1038 421 968 b 119 -32 447 569 24 44 b 722 418 242 -132 622 183 l 817 356 b 26 -211 717 104 271 -285 b 186 -315 42 -232 96 -296 b -28 -510 142 -376 56 -467 b -158 -353 -72 -474 -133 -410 b 18 -208 -144 -333 -67 -297 b -37 -176 -1 -201 -21 -190 "},"Ì":{"ha":729,"x_min":0,"x_max":0,"o":"m -37 -176 b 258 1036 -297 43 190 497 b 497 910 311 1038 421 968 b 119 -32 447 569 24 44 b 722 418 242 -132 622 183 l 817 356 b -37 -176 707 81 182 -361 m 275 1128 b 446 1278 285 1204 368 1292 b 615 1103 468 1203 547 1142 b 572 1014 625 1076 604 1021 b 275 1128 464 1022 328 1058 "},"Ỉ":{"ha":729,"x_min":0,"x_max":0,"o":"m -37 -176 b 257 1025 -296 42 183 492 l 238 1063 b 483 1289 457 1135 511 1254 b 385 1292 456 1322 413 1306 b 354 1361 358 1299 342 1326 b 678 1414 471 1464 608 1492 b 336 1013 754 1321 665 1128 b 497 910 388 988 449 946 b 119 -32 447 569 24 44 b 722 418 242 -132 622 183 l 817 356 b -37 -176 707 81 182 -361 "},"Ī":{"ha":729,"x_min":0,"x_max":0,"o":"m -37 -176 b 258 1036 -297 43 190 497 b 497 910 311 1038 421 968 b 119 -32 447 569 24 44 b 722 418 242 -132 622 183 l 817 356 b -37 -176 707 81 182 -361 m 183 1072 b 233 1189 175 1103 207 1157 b 604 1190 369 1176 515 1171 b 594 1021 658 1156 618 1053 b 183 1072 400 979 178 1068 "},"Į":{"ha":729,"x_min":0,"x_max":0,"o":"m -37 -176 b 258 1036 -297 43 190 497 b 497 910 311 1038 421 968 b 119 -32 447 569 24 44 b 722 418 242 -132 622 183 l 817 356 b 142 -217 731 140 390 -178 b -17 -407 -4 -287 -40 -378 b 82 -410 11 -440 54 -424 b 113 -479 108 -417 125 -444 b -211 -532 -4 -582 -142 -610 b -14 -193 -275 -454 -224 -307 b -37 -176 -22 -189 -29 -183 "},"Ĩ":{"ha":729,"x_min":0,"x_max":0,"o":"m -37 -176 b 258 1036 -297 43 190 497 b 203 1175 214 1063 192 1135 b 490 1179 490 1433 463 1168 b 551 1254 529 1194 546 1226 b 718 1172 624 1289 742 1281 b 436 1029 618 1054 479 1018 b 382 1150 385 1039 388 1150 b 331 1032 365 1149 331 1076 b 307 1025 322 1028 314 1026 b 497 910 364 1004 440 954 b 119 -32 447 569 24 44 b 722 418 242 -132 622 183 l 817 356 b -37 -176 707 81 182 -361 "},"J":{"ha":1113,"x_min":0,"x_max":0,"o":"m 517 -264 b -174 -128 285 -457 -58 -385 b 15 63 -167 -33 -72 36 b 451 -67 115 -119 293 -174 b 947 801 619 50 810 333 b 193 708 744 813 511 776 b 304 968 172 760 188 857 b 1003 928 565 978 796 968 b 1201 1022 1051 972 1139 1007 b 1254 742 1257 954 1288 826 b 1081 788 1197 763 1140 776 b 517 -264 938 276 735 -79 "},"Ĵ":{"ha":1113,"x_min":0,"x_max":0,"o":"m 517 -264 b -174 -128 285 -457 -58 -385 b 15 63 -167 -33 -72 36 b 451 -67 115 -119 293 -174 b 947 801 619 50 810 333 b 193 708 744 813 511 776 b 304 968 172 760 188 857 b 640 968 422 972 533 972 b 607 1064 619 993 604 1026 b 810 1258 690 1121 764 1192 b 929 1208 854 1251 915 1236 b 1051 1044 929 1164 946 1140 b 947 938 1035 1006 996 954 l 1003 928 b 1201 1022 1051 972 1139 1007 b 1254 742 1257 954 1288 826 b 1081 788 1197 763 1140 776 b 517 -264 938 276 735 -79 m 715 964 b 928 940 788 960 858 951 b 856 1093 913 975 885 1032 b 715 964 822 1061 774 1015 "},"K":{"ha":1049,"x_min":0,"x_max":0,"o":"m 139 -132 b -139 -6 26 -171 -122 -97 b 492 986 93 157 469 513 b 699 961 569 1015 644 988 b 574 589 688 886 642 747 b 1132 1082 749 674 985 867 b 1238 865 1157 1078 1242 985 b 613 468 1157 742 875 588 b 1290 -404 701 217 975 -167 b 1006 -532 1271 -433 1165 -542 b 475 378 840 -411 632 -3 b 139 -132 379 186 261 -6 "},"Ǩ":{"ha":1049,"x_min":0,"x_max":0,"o":"m 139 -132 b -139 -6 26 -171 -122 -97 b 492 986 93 157 469 513 b 699 961 569 1015 644 988 b 574 589 688 886 642 747 b 1132 1082 749 674 985 867 b 1238 865 1157 1078 1242 985 b 613 468 1157 742 875 588 b 1290 -404 701 217 975 -167 b 1006 -532 1271 -433 1165 -542 b 475 378 840 -411 632 -3 b 139 -132 379 186 261 -6 m 651 1174 b 772 1283 668 1215 713 1274 b 850 1124 786 1250 815 1190 b 1025 1285 889 1163 950 1219 b 1097 1153 1056 1264 1099 1213 b 893 958 1013 1096 939 1025 b 775 1008 849 965 789 981 b 651 1174 772 1053 756 1076 "},"Ķ":{"ha":1049,"x_min":0,"x_max":0,"o":"m 139 -132 b -139 -6 26 -171 -122 -97 b 492 986 93 157 469 513 b 699 961 569 1015 644 988 b 574 589 688 886 642 747 b 1132 1082 749 674 985 867 b 1238 865 1157 1078 1242 985 b 613 468 1157 742 875 588 b 1290 -404 701 217 975 -167 b 1006 -532 1271 -433 1165 -542 b 475 378 840 -411 632 -3 b 139 -132 379 186 261 -6 m 185 -372 b 278 -290 225 -343 256 -315 b 222 -224 257 -275 236 -251 b 397 -49 244 -172 304 -97 b 507 -192 436 -76 489 -133 b 226 -454 460 -301 329 -400 b 185 -372 206 -440 174 -408 "},"Ḵ":{"ha":1049,"x_min":0,"x_max":0,"o":"m 139 -132 b -139 -6 26 -171 -122 -97 b 492 986 93 157 469 513 b 699 961 569 1015 644 988 b 574 589 688 886 642 747 b 1132 1082 749 674 985 867 b 1238 865 1157 1078 1242 985 b 613 468 1157 742 875 588 b 1290 -404 701 217 975 -167 b 1006 -532 1271 -433 1165 -542 b 475 378 840 -411 632 -3 b 139 -132 379 186 261 -6 m 149 -218 b 199 -101 140 -187 172 -132 b 569 -99 335 -114 481 -119 b 560 -268 624 -133 583 -236 b 149 -218 365 -310 143 -221 "},"L":{"ha":1015,"x_min":0,"x_max":0,"o":"m 1138 -401 b 158 -229 826 -282 456 -228 b -160 -368 35 -289 -65 -346 b -168 -89 -204 -293 -192 -171 l 93 -76 b 985 1038 471 400 456 844 b 1213 821 1071 1036 1240 926 b 261 -65 640 710 638 376 b 1064 -97 485 -42 853 -12 b 1138 -401 1160 -235 1167 -347 "},"Ĺ":{"ha":1015,"x_min":0,"x_max":0,"o":"m 1138 -401 b 158 -229 826 -282 456 -228 b -160 -368 35 -289 -65 -346 b -168 -89 -204 -293 -192 -171 l 93 -76 b 985 1038 471 400 456 844 b 1213 821 1071 1036 1240 926 b 261 -65 640 710 638 376 b 1064 -97 485 -42 853 -12 b 1138 -401 1160 -235 1167 -347 m 879 1124 b 1146 1363 971 1179 1082 1264 b 1246 1189 1233 1383 1275 1283 b 893 1019 1161 1100 1006 1043 b 879 1124 857 1026 860 1089 "},"Ľ":{"ha":1015,"x_min":0,"x_max":0,"o":"m 1138 -401 b 158 -229 826 -282 456 -228 b -160 -368 35 -289 -65 -346 b -168 -89 -204 -293 -192 -171 l 93 -76 b 985 1038 471 400 456 844 b 1211 875 1056 1036 1185 961 b 1229 1032 1211 924 1217 976 b 1513 1022 1285 1074 1404 1133 b 1371 694 1458 1000 1357 801 b 1243 668 1349 661 1276 657 b 1213 821 1239 667 1218 729 b 261 -65 640 710 638 376 b 1064 -97 485 -42 853 -12 b 1138 -401 1160 -235 1167 -347 "},"Ļ":{"ha":1015,"x_min":0,"x_max":0,"o":"m 1138 -401 b 158 -229 826 -282 456 -228 b -160 -368 35 -289 -65 -346 b -168 -89 -204 -293 -192 -171 l 93 -76 b 985 1038 471 400 456 844 b 1213 821 1071 1036 1240 926 b 261 -65 640 710 638 376 b 1064 -97 485 -42 853 -12 b 1138 -401 1160 -235 1167 -347 m 111 -558 b 204 -476 151 -529 182 -501 b 149 -410 183 -461 163 -437 b 324 -235 171 -358 231 -283 b 433 -378 363 -262 415 -319 b 153 -640 386 -487 256 -586 b 111 -558 132 -626 100 -594 "},"Ḷ":{"ha":1015,"x_min":0,"x_max":0,"o":"m 1138 -401 b 158 -229 826 -282 456 -228 b -160 -368 35 -289 -65 -346 b -168 -89 -204 -293 -192 -171 l 93 -76 b 985 1038 471 400 456 844 b 1213 821 1071 1036 1240 926 b 261 -65 640 710 638 376 b 1064 -97 485 -42 853 -12 b 1138 -401 1160 -235 1167 -347 m 121 -411 b 301 -262 135 -392 215 -354 b 465 -374 304 -269 361 -351 b 251 -568 421 -435 335 -525 b 121 -411 207 -532 146 -468 "},"Ḹ":{"ha":1015,"x_min":0,"x_max":0,"o":"m 1138 -401 b 158 -229 826 -282 456 -228 b -160 -368 35 -289 -65 -346 b -168 -89 -204 -293 -192 -171 l 93 -76 b 979 1035 469 399 456 842 b 782 1090 865 1051 778 1088 b 832 1207 774 1121 806 1175 b 1203 1208 968 1194 1114 1189 b 1193 1039 1257 1174 1217 1071 b 1028 1031 1139 1028 1082 1026 b 1213 821 1117 1003 1236 911 b 261 -65 640 710 638 376 b 1064 -97 485 -42 853 -12 b 1138 -401 1160 -235 1167 -347 m 121 -411 b 301 -262 135 -392 215 -354 b 465 -374 304 -269 361 -351 b 251 -568 421 -435 335 -525 b 121 -411 207 -532 146 -468 "},"Ḻ":{"ha":1015,"x_min":0,"x_max":0,"o":"m 1138 -401 b 158 -229 826 -282 456 -228 b -160 -368 35 -289 -65 -346 b -168 -89 -204 -293 -192 -171 l 93 -76 b 985 1038 471 400 456 844 b 1213 821 1071 1036 1240 926 b 261 -65 640 710 638 376 b 1064 -97 485 -42 853 -12 b 1138 -401 1160 -235 1167 -347 m 75 -404 b 125 -287 67 -374 99 -318 b 496 -285 261 -300 407 -306 b 486 -454 550 -319 510 -422 b 75 -404 292 -496 69 -407 "},"Ł":{"ha":1015,"x_min":0,"x_max":0,"o":"m 1138 -401 b 158 -229 826 -282 456 -228 b -160 -368 35 -289 -65 -346 b -168 -89 -204 -293 -192 -171 l 93 -76 b 326 288 193 49 264 171 b 192 235 281 275 235 258 b 299 489 169 335 240 439 b 440 510 346 499 394 506 b 985 1038 561 740 686 929 b 1213 821 1071 1036 1240 926 b 664 503 926 765 783 654 b 775 467 710 494 747 482 b 722 281 776 379 760 340 b 532 311 679 297 611 310 b 261 -65 458 199 378 72 b 1064 -97 485 -42 853 -12 b 1138 -401 1160 -235 1167 -347 "},"M":{"ha":1721,"x_min":0,"x_max":0,"o":"m 57 -343 b -208 -193 -58 -371 -201 -286 b 713 986 149 17 642 453 b 843 986 750 999 796 1008 b 868 971 835 1065 847 1046 l 869 969 b 869 967 869 968 869 968 b 949 515 894 871 931 692 b 1514 979 1096 679 1299 865 l 1540 1003 b 1556 1000 1546 1003 1550 1001 l 1558 1001 b 1565 997 1561 1000 1563 999 b 1683 869 1621 976 1663 915 b 1333 153 1288 633 1221 217 b 1714 418 1426 96 1631 225 l 1810 356 b 1149 -12 1658 -3 1286 -107 b 1226 626 1049 54 1053 326 b 961 344 1128 536 1036 436 b 897 36 964 203 949 82 b 738 218 760 -87 665 44 b 803 329 750 247 772 285 b 749 638 797 442 778 549 b 57 -343 607 321 365 -69 "},"Ḿ":{"ha":1721,"x_min":0,"x_max":0,"o":"m 57 -343 b -208 -193 -58 -371 -201 -286 b 713 986 149 17 642 453 b 843 986 750 999 796 1008 b 868 971 835 1065 847 1046 l 869 969 b 869 967 869 968 869 968 b 949 515 894 871 931 692 b 1514 979 1096 679 1299 865 l 1540 1003 b 1556 1000 1546 1003 1550 1001 l 1558 1001 b 1565 997 1561 1000 1563 999 b 1683 869 1621 976 1663 915 b 1333 153 1288 633 1221 217 b 1714 418 1426 96 1631 225 l 1810 356 b 1149 -12 1658 -3 1286 -107 b 1226 626 1049 54 1053 326 b 961 344 1128 536 1036 436 b 897 36 964 203 949 82 b 738 218 760 -87 665 44 b 803 329 750 247 772 285 b 749 638 797 442 778 549 b 57 -343 607 321 365 -69 m 1017 990 b 1283 1229 1108 1046 1219 1131 b 1383 1056 1371 1250 1413 1150 b 1031 886 1299 967 1143 910 b 1017 990 994 893 997 956 "},"Ṁ":{"ha":1721,"x_min":0,"x_max":0,"o":"m 57 -343 b -208 -193 -58 -371 -201 -286 b 713 986 149 17 642 453 b 843 986 750 999 796 1008 b 868 971 835 1065 847 1046 l 869 969 b 869 967 869 968 869 968 b 949 515 894 871 931 692 b 1514 979 1096 679 1299 865 l 1540 1003 b 1556 1000 1546 1003 1550 1001 l 1558 1001 b 1565 997 1561 1000 1563 999 b 1683 869 1621 976 1663 915 b 1333 153 1288 633 1221 217 b 1714 418 1426 96 1631 225 l 1810 356 b 1149 -12 1658 -3 1286 -107 b 1226 626 1049 54 1053 326 b 961 344 1128 536 1036 436 b 897 36 964 203 949 82 b 738 218 760 -87 665 44 b 803 329 750 247 772 285 b 749 638 797 442 778 549 b 57 -343 607 321 365 -69 m 1026 1054 b 1207 1203 1040 1074 1121 1111 b 1371 1092 1210 1196 1267 1114 b 1157 897 1326 1031 1240 940 b 1026 1054 1113 935 1051 997 "},"Ṃ":{"ha":1721,"x_min":0,"x_max":0,"o":"m 57 -343 b -208 -193 -58 -371 -201 -286 b 713 986 149 17 642 453 b 843 986 750 999 796 1008 b 868 971 835 1065 847 1046 l 869 969 b 869 967 869 968 869 968 b 949 515 894 871 931 692 b 1514 979 1096 679 1299 865 l 1540 1003 b 1556 1000 1546 1003 1550 1001 l 1558 1001 b 1565 997 1561 1000 1563 999 b 1683 869 1621 976 1663 915 b 1333 153 1288 633 1221 217 b 1714 418 1426 96 1631 225 l 1810 356 b 1149 -12 1658 -3 1286 -107 b 1226 626 1049 54 1053 326 b 961 344 1128 536 1036 436 b 897 36 964 203 949 82 b 738 218 760 -87 665 44 b 803 329 750 247 772 285 b 749 638 797 442 778 549 b 57 -343 607 321 365 -69 m 554 -189 b 735 -40 568 -169 649 -132 b 899 -151 738 -47 794 -129 b 685 -346 854 -212 768 -303 b 554 -189 640 -310 579 -246 "},"N":{"ha":1299,"x_min":0,"x_max":0,"o":"m 58 -343 b -208 -193 -58 -371 -200 -286 b 714 986 149 17 643 453 b 871 971 760 1001 813 1011 l 872 972 b 874 969 872 972 872 971 b 874 967 874 968 874 968 b 958 522 881 924 932 726 b 1643 1088 1142 729 1406 975 b 1815 911 1710 1064 1779 975 b 974 361 1450 842 1156 576 b 897 36 979 219 963 93 b 738 218 760 -87 665 44 b 786 304 747 240 764 269 b 746 626 781 418 769 533 b 58 -343 603 313 364 -72 "},"Ń":{"ha":1299,"x_min":0,"x_max":0,"o":"m 58 -343 b -208 -193 -58 -371 -200 -286 b 714 986 149 17 643 453 b 871 971 760 1001 813 1011 l 872 972 b 874 969 872 972 872 971 b 874 967 874 968 874 968 b 958 522 881 924 932 726 b 1643 1088 1142 729 1406 975 b 1815 911 1710 1064 1779 975 b 974 361 1450 842 1156 576 b 897 36 979 219 963 93 b 738 218 760 -87 665 44 b 786 304 747 240 764 269 b 746 626 781 418 769 533 b 58 -343 603 313 364 -72 m 1006 1000 b 1272 1239 1097 1056 1208 1140 b 1372 1065 1360 1260 1401 1160 b 1019 896 1288 976 1132 919 b 1006 1000 983 903 986 965 "},"Ň":{"ha":1299,"x_min":0,"x_max":0,"o":"m 58 -343 b -208 -193 -58 -371 -200 -286 b 714 986 149 17 643 453 b 871 971 760 1001 813 1011 l 872 972 b 874 969 872 972 872 971 b 874 967 874 968 874 968 b 958 522 881 924 932 726 b 1643 1088 1142 729 1406 975 b 1815 911 1710 1064 1779 975 b 974 361 1450 842 1156 576 b 897 36 979 219 963 93 b 738 218 760 -87 665 44 b 786 304 747 240 764 269 b 746 626 781 418 769 533 b 58 -343 603 313 364 -72 m 933 1097 b 1054 1207 950 1139 994 1197 b 1132 1047 1068 1174 1097 1114 b 1307 1208 1171 1086 1232 1143 b 1379 1076 1338 1188 1381 1136 b 1175 882 1294 1019 1221 949 b 1057 932 1131 889 1071 904 b 933 1097 1054 976 1038 1000 "},"Ņ":{"ha":1299,"x_min":0,"x_max":0,"o":"m 58 -343 b -208 -193 -58 -371 -200 -286 b 714 986 149 17 643 453 b 871 971 760 1001 813 1011 l 872 972 b 874 969 872 972 872 971 b 874 967 874 968 874 968 b 958 522 881 924 932 726 b 1643 1088 1142 729 1406 975 b 1815 911 1710 1064 1779 975 b 974 361 1450 842 1156 576 b 897 36 979 219 963 93 b 738 218 760 -87 665 44 b 786 304 747 240 764 269 b 746 626 781 418 769 533 b 58 -343 603 313 364 -72 m 325 -357 b 418 -275 365 -328 396 -300 b 363 -208 397 -260 376 -236 b 538 -33 385 -157 444 -82 b 647 -176 576 -61 629 -118 b 367 -439 600 -286 469 -385 b 325 -357 346 -425 314 -393 "},"Ṅ":{"ha":1299,"x_min":0,"x_max":0,"o":"m 58 -343 b -208 -193 -58 -371 -200 -286 b 714 986 149 17 643 453 b 871 971 760 1001 813 1011 l 872 972 b 874 969 872 972 872 971 b 874 967 874 968 874 968 b 958 522 881 924 932 726 b 1643 1088 1142 729 1406 975 b 1815 911 1710 1064 1779 975 b 974 361 1450 842 1156 576 b 897 36 979 219 963 93 b 738 218 760 -87 665 44 b 786 304 747 240 764 269 b 746 626 781 418 769 533 b 58 -343 603 313 364 -72 m 1015 1064 b 1196 1213 1029 1083 1110 1121 b 1360 1101 1199 1206 1256 1124 b 1146 907 1315 1040 1229 950 b 1015 1064 1101 944 1040 1007 "},"Ṇ":{"ha":1299,"x_min":0,"x_max":0,"o":"m 58 -343 b -208 -193 -58 -371 -200 -286 b 714 986 149 17 643 453 b 871 971 760 1001 813 1011 l 872 972 b 874 969 872 972 872 971 b 874 967 874 968 874 968 b 958 522 881 924 932 726 b 1643 1088 1142 729 1406 975 b 1815 911 1710 1064 1779 975 b 974 361 1450 842 1156 576 b 897 36 979 219 963 93 b 738 218 760 -87 665 44 b 786 304 747 240 764 269 b 746 626 781 418 769 533 b 58 -343 603 313 364 -72 m 335 -210 b 515 -61 349 -190 429 -153 b 679 -172 518 -68 575 -150 b 465 -367 635 -233 549 -324 b 335 -210 421 -331 360 -267 "},"Ṉ":{"ha":1299,"x_min":0,"x_max":0,"o":"m 58 -343 b -208 -193 -58 -371 -200 -286 b 714 986 149 17 643 453 b 871 971 760 1001 813 1011 l 872 972 b 874 969 872 972 872 971 b 874 967 874 968 874 968 b 958 522 881 924 932 726 b 1643 1088 1142 729 1406 975 b 1815 911 1710 1064 1779 975 b 974 361 1450 842 1156 576 b 897 36 979 219 963 93 b 738 218 760 -87 665 44 b 786 304 747 240 764 269 b 746 626 781 418 769 533 b 58 -343 603 313 364 -72 m 289 -203 b 339 -86 281 -172 313 -117 b 710 -83 475 -99 621 -104 b 700 -253 764 -118 724 -221 b 289 -203 506 -294 283 -206 "},"Ñ":{"ha":1299,"x_min":0,"x_max":0,"o":"m 58 -343 b -208 -193 -58 -371 -200 -286 b 714 986 149 17 643 453 b 871 971 760 1001 813 1011 l 872 972 b 874 969 872 972 872 971 b 874 967 874 968 874 968 b 958 522 881 924 932 726 b 1643 1088 1142 729 1406 975 b 1815 911 1710 1064 1779 975 b 974 361 1450 842 1156 576 b 897 36 979 219 963 93 b 738 218 760 -87 665 44 b 786 304 747 240 764 269 b 746 626 781 418 769 533 b 58 -343 603 313 364 -72 m 928 1069 b 1215 1074 1215 1328 1188 1063 b 1276 1149 1254 1089 1271 1121 b 1443 1067 1349 1183 1467 1175 b 1161 924 1343 949 1204 913 b 1107 1044 1110 933 1113 1044 b 1056 926 1090 1043 1056 971 b 928 1069 965 888 911 1011 "},"Ŋ":{"ha":1271,"x_min":0,"x_max":0,"o":"m 61 -343 b -206 -193 -56 -371 -197 -286 b 717 986 151 17 646 453 b 871 974 761 999 815 1010 b 938 494 894 889 926 690 b 1646 1088 1121 706 1397 969 b 1818 911 1713 1064 1782 975 b 882 53 1335 824 960 269 b 1264 418 1038 110 1211 297 l 1358 356 b 753 -144 1336 285 1129 -44 b 349 -260 588 -399 381 -342 b 625 -36 297 -139 428 -36 l 621 -36 b 821 350 658 40 772 276 b 753 636 804 451 781 553 b 61 -343 610 321 369 -71 m 500 -193 b 540 -164 500 -196 517 -189 b 500 -193 494 -172 493 -182 "},"O":{"ha":1153,"x_min":0,"x_max":0,"o":"m 374 57 b 835 522 590 -60 825 225 b 638 635 736 508 649 544 b 765 856 824 649 846 803 b 376 665 675 911 518 864 b 374 57 238 465 188 156 m 197 -90 b 238 778 -112 69 -33 514 b 783 1014 393 931 600 1036 b 447 -136 1208 958 1138 135 b 197 -90 393 -144 283 -135 "},"Ó":{"ha":1153,"x_min":0,"x_max":0,"o":"m 374 57 b 835 522 590 -60 825 225 b 638 635 736 508 649 544 b 765 856 824 649 846 803 b 376 665 675 911 518 864 b 374 57 238 465 188 156 m 197 -90 b 238 778 -112 69 -33 514 b 783 1014 393 931 600 1036 b 447 -136 1208 958 1138 135 b 197 -90 393 -144 283 -135 m 649 1126 b 915 1365 740 1182 851 1267 b 1015 1192 1003 1386 1044 1286 b 663 1022 931 1103 775 1046 b 649 1126 626 1029 629 1092 "},"Ǒ":{"ha":1153,"x_min":0,"x_max":0,"o":"m 374 57 b 835 522 590 -60 825 225 b 638 635 736 508 649 544 b 765 856 824 649 846 803 b 376 665 675 911 518 864 b 374 57 238 465 188 156 m 197 -90 b 238 778 -112 69 -33 514 b 783 1014 393 931 600 1036 b 447 -136 1208 958 1138 135 b 197 -90 393 -144 283 -135 m 576 1224 b 697 1333 593 1265 638 1324 b 775 1174 711 1300 740 1240 b 950 1335 814 1213 875 1269 b 1022 1203 981 1314 1024 1263 b 818 1008 938 1146 864 1075 b 700 1058 774 1015 714 1031 b 576 1224 697 1103 681 1126 "},"Ô":{"ha":1153,"x_min":0,"x_max":0,"o":"m 374 57 b 835 522 590 -60 825 225 b 638 635 736 508 649 544 b 765 856 824 649 846 803 b 376 665 675 911 518 864 b 374 57 238 465 188 156 m 197 -90 b 238 778 -112 69 -33 514 b 625 1004 349 888 488 972 b 579 1114 599 1031 576 1069 b 782 1308 663 1171 736 1242 b 901 1258 826 1301 888 1286 b 1024 1094 901 1214 918 1190 b 903 983 1006 1051 960 993 b 828 1143 889 1017 860 1078 b 688 1014 794 1111 746 1067 b 783 1014 719 1018 751 1018 b 447 -136 1208 958 1138 135 b 197 -90 393 -144 283 -135 "},"Ố":{"ha":1153,"x_min":0,"x_max":0,"o":"m 374 57 b 835 522 590 -60 825 225 b 638 635 736 508 649 544 b 765 856 824 649 846 803 b 376 665 675 911 518 864 b 374 57 238 465 188 156 m 197 -90 b 238 778 -112 69 -33 514 b 592 996 340 879 465 960 b 551 1100 568 1022 549 1058 b 742 1276 628 1151 696 1215 b 733 1379 711 1289 715 1346 b 1000 1618 825 1435 936 1519 b 1100 1444 1088 1639 1129 1539 b 794 1286 1026 1368 900 1314 b 874 1244 829 1278 864 1264 b 996 1081 874 1200 890 1176 b 896 975 981 1043 943 993 b 447 -136 1188 799 1068 107 b 197 -90 393 -144 283 -135 m 674 1013 b 783 1014 711 1018 747 1018 b 865 992 813 1010 840 1003 b 800 1129 850 1026 826 1076 b 674 1013 769 1100 725 1060 "},"Ộ":{"ha":1153,"x_min":0,"x_max":0,"o":"m 374 57 b 835 522 590 -60 825 225 b 638 635 736 508 649 544 b 765 856 824 649 846 803 b 376 665 675 911 518 864 b 374 57 238 465 188 156 m 50 -272 b 231 -124 64 -253 144 -215 b 394 -235 233 -131 290 -212 b 181 -429 350 -296 264 -386 b 50 -272 136 -393 75 -329 m 197 -90 b 238 778 -112 69 -33 514 b 625 1004 349 888 488 972 b 579 1114 599 1031 576 1069 b 782 1308 663 1171 736 1242 b 901 1258 826 1301 888 1286 b 1024 1094 901 1214 918 1190 b 903 983 1006 1051 960 993 b 828 1143 889 1017 860 1078 b 688 1014 794 1111 746 1067 b 783 1014 719 1018 751 1018 b 447 -136 1208 958 1138 135 b 197 -90 393 -144 283 -135 "},"Ồ":{"ha":1153,"x_min":0,"x_max":0,"o":"m 374 57 b 835 522 590 -60 825 225 b 638 635 736 508 649 544 b 765 856 824 649 846 803 b 376 665 675 911 518 864 b 374 57 238 465 188 156 m 197 -90 b 238 778 -112 69 -33 514 b 614 1001 346 885 481 968 b 561 1119 586 1028 558 1071 b 764 1314 644 1176 718 1247 b 883 1264 808 1307 869 1292 b 1006 1100 883 1219 900 1196 b 885 989 988 1057 942 999 b 810 1149 871 1022 842 1083 b 658 1011 774 1114 722 1067 b 783 1014 700 1018 743 1019 b 447 -136 1208 958 1138 135 b 197 -90 393 -144 283 -135 m 738 1421 b 908 1571 747 1497 831 1585 b 1078 1396 931 1496 1010 1435 b 1035 1307 1088 1369 1067 1314 b 738 1421 926 1315 790 1351 "},"Ổ":{"ha":1153,"x_min":0,"x_max":0,"o":"m 374 57 b 835 522 590 -60 825 225 b 638 635 736 508 649 544 b 765 856 824 649 846 803 b 376 665 675 911 518 864 b 374 57 238 465 188 156 m 197 -90 b 238 778 -112 69 -33 514 b 646 1008 356 893 503 982 b 585 1133 615 1033 581 1079 b 769 1303 658 1183 724 1243 l 760 1300 l 724 1369 b 969 1596 943 1442 997 1561 b 871 1599 942 1629 899 1613 b 840 1668 844 1606 828 1633 b 1164 1721 957 1771 1094 1799 b 824 1321 1240 1628 1151 1436 b 907 1278 860 1313 897 1299 b 1029 1114 907 1233 924 1210 b 908 1003 1011 1071 965 1013 b 833 1163 894 1036 865 1097 b 668 1013 796 1126 738 1072 b 783 1014 707 1018 746 1018 b 447 -136 1208 958 1138 135 b 197 -90 393 -144 283 -135 "},"Ỗ":{"ha":1153,"x_min":0,"x_max":0,"o":"m 374 57 b 835 522 590 -60 825 225 b 638 635 736 508 649 544 b 765 856 824 649 846 803 b 376 665 675 911 518 864 b 374 57 238 465 188 156 m 197 -90 b 238 778 -112 69 -33 514 b 783 1014 393 931 600 1036 b 447 -136 1208 958 1138 135 b 197 -90 393 -144 283 -135 m 579 1144 b 782 1339 663 1201 736 1272 b 901 1289 826 1332 888 1317 b 1024 1125 901 1244 918 1221 b 903 1014 1006 1082 960 1024 b 828 1174 889 1047 860 1108 b 650 1013 788 1135 725 1078 b 579 1144 618 1035 575 1085 m 683 1493 b 971 1497 971 1751 943 1486 b 1032 1572 1010 1513 1026 1544 b 1199 1490 1104 1607 1222 1599 b 917 1347 1099 1372 960 1336 b 863 1468 865 1357 868 1468 b 811 1350 846 1467 811 1394 b 683 1493 721 1311 667 1435 "},"Ö":{"ha":1153,"x_min":0,"x_max":0,"o":"m 374 57 b 835 522 590 -60 825 225 b 638 635 736 508 649 544 b 765 856 824 649 846 803 b 376 665 675 911 518 864 b 374 57 238 465 188 156 m 197 -90 b 238 778 -112 69 -33 514 b 663 1011 360 897 514 989 b 539 1163 619 1049 561 1108 b 719 1311 553 1182 635 1222 b 814 1226 721 1304 754 1260 b 936 1331 847 1250 890 1283 b 1100 1219 939 1324 996 1242 b 886 1025 1054 1158 968 1068 b 803 1107 864 1040 831 1072 b 685 1014 771 1076 731 1040 b 783 1014 718 1018 751 1018 b 447 -136 1208 958 1138 135 b 197 -90 393 -144 283 -135 "},"Ȫ":{"ha":1153,"x_min":0,"x_max":0,"o":"m 374 57 b 835 522 590 -60 825 225 b 638 635 736 508 649 544 b 765 856 824 649 846 803 b 376 665 675 911 518 864 b 374 57 238 465 188 156 m 197 -90 b 238 778 -112 69 -33 514 b 663 1011 360 897 514 989 b 539 1163 619 1049 561 1108 b 719 1311 553 1182 635 1222 b 814 1226 721 1304 754 1260 b 919 1314 843 1247 879 1275 b 653 1375 774 1321 649 1372 b 703 1492 644 1406 676 1460 b 1074 1493 839 1479 985 1474 b 1064 1324 1128 1458 1088 1356 b 949 1313 1026 1315 988 1313 b 1100 1219 971 1285 1022 1236 b 886 1025 1054 1158 968 1068 b 803 1107 864 1040 831 1072 b 685 1014 771 1076 731 1040 b 783 1014 718 1018 751 1018 b 447 -136 1208 958 1138 135 b 197 -90 393 -144 283 -135 "},"Ọ":{"ha":1153,"x_min":0,"x_max":0,"o":"m 374 57 b 835 522 590 -60 825 225 b 638 635 736 508 649 544 b 765 856 824 649 846 803 b 376 665 675 911 518 864 b 374 57 238 465 188 156 m 50 -272 b 231 -124 64 -253 144 -215 b 394 -235 233 -131 290 -212 b 181 -429 350 -296 264 -386 b 50 -272 136 -393 75 -329 m 197 -90 b 238 778 -112 69 -33 514 b 783 1014 393 931 600 1036 b 447 -136 1208 958 1138 135 b 197 -90 393 -144 283 -135 "},"Ò":{"ha":1153,"x_min":0,"x_max":0,"o":"m 374 57 b 835 522 590 -60 825 225 b 638 635 736 508 649 544 b 765 856 824 649 846 803 b 376 665 675 911 518 864 b 374 57 238 465 188 156 m 197 -90 b 238 778 -112 69 -33 514 b 783 1014 393 931 600 1036 b 447 -136 1208 958 1138 135 b 197 -90 393 -144 283 -135 m 643 1149 b 814 1299 653 1225 736 1313 b 983 1124 836 1224 915 1163 b 940 1035 993 1097 972 1042 b 643 1149 832 1043 696 1079 "},"Ỏ":{"ha":1153,"x_min":0,"x_max":0,"o":"m 374 57 b 835 522 590 -60 825 225 b 638 635 736 508 649 544 b 765 856 824 649 846 803 b 376 665 675 911 518 864 b 374 57 238 465 188 156 m 197 -90 b 238 778 -112 69 -33 514 b 783 1014 393 931 600 1036 b 447 -136 1208 958 1138 135 b 197 -90 393 -144 283 -135 m 606 1083 b 851 1310 825 1156 879 1275 b 753 1313 824 1343 781 1326 b 722 1382 726 1319 710 1347 b 1046 1435 839 1485 976 1513 b 642 1014 1126 1336 1022 1125 l 606 1083 "},"Ơ":{"ha":1153,"x_min":0,"x_max":0,"o":"m 374 57 b 835 522 590 -60 825 225 b 638 635 736 508 649 544 b 765 856 824 649 846 803 b 376 665 675 911 518 864 b 374 57 238 465 188 156 m 197 -90 b 238 778 -112 69 -33 514 b 783 1014 393 931 600 1036 b 1038 758 922 996 1008 894 b 1375 1007 1143 736 1311 799 l 1444 969 b 1044 586 1349 646 1199 522 b 447 -136 1015 324 824 11 b 197 -90 393 -144 283 -135 "},"Ớ":{"ha":1153,"x_min":0,"x_max":0,"o":"m 374 57 b 835 522 590 -60 825 225 b 638 635 736 508 649 544 b 765 856 824 649 846 803 b 376 665 675 911 518 864 b 374 57 238 465 188 156 m 197 -90 b 238 778 -112 69 -33 514 b 783 1014 393 931 600 1036 b 1038 758 922 996 1008 894 b 1375 1007 1143 736 1311 799 l 1444 969 b 1044 586 1349 646 1199 522 b 447 -136 1015 324 824 11 b 197 -90 393 -144 283 -135 m 649 1126 b 915 1365 740 1182 851 1267 b 1015 1192 1003 1386 1044 1286 b 663 1022 931 1103 775 1046 b 649 1126 626 1029 629 1092 "},"Ợ":{"ha":1153,"x_min":0,"x_max":0,"o":"m 374 57 b 835 522 590 -60 825 225 b 638 635 736 508 649 544 b 765 856 824 649 846 803 b 376 665 675 911 518 864 b 374 57 238 465 188 156 m 50 -272 b 231 -124 64 -253 144 -215 b 394 -235 233 -131 290 -212 b 181 -429 350 -296 264 -386 b 50 -272 136 -393 75 -329 m 197 -90 b 238 778 -112 69 -33 514 b 783 1014 393 931 600 1036 b 1038 758 922 996 1008 894 b 1375 1007 1143 736 1311 799 l 1444 969 b 1044 586 1349 646 1199 522 b 447 -136 1015 324 824 11 b 197 -90 393 -144 283 -135 "},"Ờ":{"ha":1153,"x_min":0,"x_max":0,"o":"m 374 57 b 835 522 590 -60 825 225 b 638 635 736 508 649 544 b 765 856 824 649 846 803 b 376 665 675 911 518 864 b 374 57 238 465 188 156 m 197 -90 b 238 778 -112 69 -33 514 b 783 1014 393 931 600 1036 b 1038 758 922 996 1008 894 b 1375 1007 1143 736 1311 799 l 1444 969 b 1044 586 1349 646 1199 522 b 447 -136 1015 324 824 11 b 197 -90 393 -144 283 -135 m 643 1149 b 814 1299 653 1225 736 1313 b 983 1124 836 1224 915 1163 b 940 1035 993 1097 972 1042 b 643 1149 832 1043 696 1079 "},"Ở":{"ha":1153,"x_min":0,"x_max":0,"o":"m 374 57 b 835 522 590 -60 825 225 b 638 635 736 508 649 544 b 765 856 824 649 846 803 b 376 665 675 911 518 864 b 374 57 238 465 188 156 m 197 -90 b 238 778 -112 69 -33 514 b 783 1014 393 931 600 1036 b 1038 758 922 996 1008 894 b 1375 1007 1143 736 1311 799 l 1444 969 b 1044 586 1349 646 1199 522 b 447 -136 1015 324 824 11 b 197 -90 393 -144 283 -135 m 606 1083 b 851 1310 825 1156 879 1275 b 753 1313 824 1343 781 1326 b 722 1382 726 1319 710 1347 b 1046 1435 839 1485 976 1513 b 642 1014 1126 1336 1022 1125 l 606 1083 "},"Ỡ":{"ha":1153,"x_min":0,"x_max":0,"o":"m 374 57 b 835 522 590 -60 825 225 b 638 635 736 508 649 544 b 765 856 824 649 846 803 b 376 665 675 911 518 864 b 374 57 238 465 188 156 m 197 -90 b 238 778 -112 69 -33 514 b 783 1014 393 931 600 1036 b 1038 758 922 996 1008 894 b 1375 1007 1143 736 1311 799 l 1444 969 b 1044 586 1349 646 1199 522 b 447 -136 1015 324 824 11 b 197 -90 393 -144 283 -135 m 571 1196 b 858 1200 858 1454 831 1189 b 919 1275 897 1215 914 1247 b 1086 1193 992 1310 1110 1301 b 804 1050 986 1075 847 1039 b 750 1171 753 1060 756 1171 b 699 1053 733 1169 699 1097 b 571 1196 608 1014 554 1138 "},"Ő":{"ha":1153,"x_min":0,"x_max":0,"o":"m 374 57 b 835 522 590 -60 825 225 b 638 635 736 508 649 544 b 765 856 824 649 846 803 b 376 665 675 911 518 864 b 374 57 238 465 188 156 m 197 -90 b 238 778 -112 69 -33 514 b 783 1014 393 931 600 1036 b 447 -136 1208 958 1138 135 b 197 -90 393 -144 283 -135 m 581 1139 b 847 1378 672 1194 783 1279 b 957 1285 908 1392 949 1346 b 1033 1378 985 1314 1010 1346 b 1133 1204 1122 1399 1163 1299 b 781 1035 1049 1115 893 1058 b 750 1081 760 1039 750 1057 b 593 1035 690 1057 632 1042 b 581 1139 558 1042 561 1104 "},"Ō":{"ha":1153,"x_min":0,"x_max":0,"o":"m 374 57 b 835 522 590 -60 825 225 b 638 635 736 508 649 544 b 765 856 824 649 846 803 b 376 665 675 911 518 864 b 374 57 238 465 188 156 m 197 -90 b 238 778 -112 69 -33 514 b 783 1014 393 931 600 1036 b 447 -136 1208 958 1138 135 b 197 -90 393 -144 283 -135 m 551 1093 b 601 1210 543 1124 575 1178 b 972 1211 738 1197 883 1192 b 963 1042 1026 1176 986 1074 b 551 1093 768 1000 546 1089 "},"Ṓ":{"ha":1153,"x_min":0,"x_max":0,"o":"m 374 57 b 835 522 590 -60 825 225 b 638 635 736 508 649 544 b 765 856 824 649 846 803 b 376 665 675 911 518 864 b 374 57 238 465 188 156 m 197 -90 b 238 778 -112 69 -33 514 b 783 1014 393 931 600 1036 b 447 -136 1208 958 1138 135 b 197 -90 393 -144 283 -135 m 571 1093 b 621 1210 563 1124 594 1178 l 707 1203 b 711 1296 690 1224 696 1268 b 978 1535 803 1351 914 1436 b 1078 1361 1065 1556 1107 1456 b 761 1200 1001 1282 869 1228 b 992 1211 850 1196 933 1199 b 982 1042 1046 1176 1006 1074 b 571 1093 788 1000 565 1089 "},"Ṑ":{"ha":1153,"x_min":0,"x_max":0,"o":"m 374 57 b 835 522 590 -60 825 225 b 638 635 736 508 649 544 b 765 856 824 649 846 803 b 376 665 675 911 518 864 b 374 57 238 465 188 156 m 197 -90 b 238 778 -112 69 -33 514 b 783 1014 393 931 600 1036 b 447 -136 1208 958 1138 135 b 197 -90 393 -144 283 -135 m 572 1094 b 622 1211 564 1125 596 1179 b 972 1208 749 1200 883 1194 b 707 1319 871 1221 754 1257 b 878 1469 717 1396 800 1483 b 1047 1294 900 1394 979 1333 b 1004 1206 1057 1268 1036 1213 l 1001 1206 b 983 1043 1043 1167 1006 1074 b 572 1094 789 1001 567 1090 "},"Ø":{"ha":1153,"x_min":0,"x_max":0,"o":"m 374 57 b 835 522 590 -60 825 225 b 719 532 792 517 751 519 b 313 106 569 393 426 242 b 374 57 329 86 350 69 m -32 -137 b 71 15 0 -86 35 -35 b 238 778 -79 217 14 560 b 783 1014 393 931 600 1036 b 946 938 850 1006 904 978 b 1043 1015 988 972 1021 999 b 1171 881 1167 1019 1193 935 b 1029 789 1125 854 1078 824 b 447 -136 1108 510 929 53 b 197 -90 393 -144 283 -135 l 172 -76 b 101 -186 143 -117 119 -154 b -32 -137 51 -210 -32 -214 m 254 251 b 801 813 442 474 644 671 b 765 856 794 829 782 844 b 376 665 675 911 518 864 b 254 251 292 543 240 382 "},"Ǿ":{"ha":1153,"x_min":0,"x_max":0,"o":"m 374 57 b 835 522 590 -60 825 225 b 719 532 792 517 751 519 b 313 106 569 393 426 242 b 374 57 329 86 350 69 m -32 -137 b 71 15 0 -86 35 -35 b 238 778 -79 217 14 560 b 783 1014 393 931 600 1036 b 946 938 850 1006 904 978 b 1043 1015 988 972 1021 999 b 1171 881 1167 1019 1193 935 b 1029 789 1125 854 1078 824 b 447 -136 1108 510 929 53 b 197 -90 393 -144 283 -135 l 172 -76 b 101 -186 143 -117 119 -154 b -32 -137 51 -210 -32 -214 m 254 251 b 801 813 442 474 644 671 b 765 856 794 829 782 844 b 376 665 675 911 518 864 b 254 251 292 543 240 382 m 649 1126 b 915 1365 740 1182 851 1267 b 1015 1192 1003 1386 1044 1286 b 663 1022 931 1103 775 1046 b 649 1126 626 1029 629 1092 "},"Õ":{"ha":1153,"x_min":0,"x_max":0,"o":"m 374 57 b 835 522 590 -60 825 225 b 638 635 736 508 649 544 b 765 856 824 649 846 803 b 376 665 675 911 518 864 b 374 57 238 465 188 156 m 197 -90 b 238 778 -112 69 -33 514 b 783 1014 393 931 600 1036 b 447 -136 1208 958 1138 135 b 197 -90 393 -144 283 -135 m 571 1196 b 858 1200 858 1454 831 1189 b 919 1275 897 1215 914 1247 b 1086 1193 992 1310 1110 1301 b 804 1050 986 1075 847 1039 b 750 1171 753 1060 756 1171 b 699 1053 733 1169 699 1097 b 571 1196 608 1014 554 1138 "},"Ṍ":{"ha":1153,"x_min":0,"x_max":0,"o":"m 374 57 b 835 522 590 -60 825 225 b 638 635 736 508 649 544 b 765 856 824 649 846 803 b 376 665 675 911 518 864 b 374 57 238 465 188 156 m 197 -90 b 238 778 -112 69 -33 514 b 783 1014 393 931 600 1036 b 447 -136 1208 958 1138 135 b 197 -90 393 -144 283 -135 m 571 1196 b 740 1306 647 1265 701 1296 b 751 1386 733 1329 739 1364 b 1018 1625 843 1442 954 1526 b 1118 1451 1106 1646 1147 1546 b 810 1293 1044 1374 917 1321 b 858 1200 844 1261 844 1194 b 919 1275 897 1215 914 1247 b 1086 1193 992 1310 1110 1301 b 804 1050 986 1075 847 1039 b 750 1171 753 1060 756 1171 b 699 1053 733 1169 699 1097 b 571 1196 608 1014 554 1138 "},"Œ":{"ha":1904,"x_min":0,"x_max":0,"o":"m 374 57 b 683 136 482 -1 596 42 b 826 443 668 251 733 371 b 835 522 831 469 833 496 b 638 635 736 508 649 544 b 765 856 824 649 846 803 b 376 665 675 911 518 864 b 374 57 238 465 188 156 m 197 -90 b 238 778 -112 69 -33 514 b 783 1014 393 931 600 1036 b 1011 839 893 1000 971 933 b 1682 950 1165 1008 1507 1067 b 1696 539 1879 819 1674 633 b 1407 603 1642 513 1442 519 b 1572 851 1450 743 1619 785 b 1146 554 1496 953 1171 831 b 1418 436 1339 574 1444 531 b 1054 407 1392 347 1182 308 b 1068 36 913 325 900 122 b 1861 418 1288 -72 1744 104 l 1958 357 b 879 -103 1786 -67 1206 -265 b 724 25 806 -67 756 -24 b 447 -136 646 -39 554 -94 b 197 -90 393 -144 283 -135 "},"P":{"ha":1522,"x_min":0,"x_max":0,"o":"m 619 -337 b 338 -304 531 -403 379 -381 b 1004 917 407 17 701 596 b 1117 865 1057 910 1104 881 b 786 344 986 713 872 529 b 1189 851 1215 281 1429 661 b 276 619 910 1072 507 767 b 161 813 210 642 157 710 b 1336 964 469 954 939 1164 b 738 232 1739 765 1415 143 b 619 -337 651 19 607 -185 "},"Þ":{"ha":1522,"x_min":0,"x_max":0,"o":"m 619 -337 b 338 -304 531 -403 379 -381 b 782 656 388 -72 569 329 b 149 349 549 628 304 433 b 33 542 82 371 29 439 b 863 775 254 643 561 781 b 1033 985 919 854 976 925 b 1146 933 1086 978 1133 949 b 1014 760 1100 881 1056 822 b 1208 693 1079 747 1144 725 b 651 -44 1601 499 1300 -103 b 619 -337 624 -156 613 -257 m 682 69 b 1061 581 1094 25 1299 392 b 940 644 1022 611 982 632 b 682 69 831 460 739 256 "},"Q":{"ha":1146,"x_min":0,"x_max":0,"o":"m 1018 -469 b 526 -100 808 -403 649 -261 b 446 -136 501 -114 474 -125 b 196 -90 392 -144 281 -135 b 236 778 -112 69 -35 514 b 783 1014 392 932 600 1036 b 653 -28 1161 964 1146 307 b 1081 -194 764 -125 904 -189 b 1018 -469 1136 -289 1096 -436 m 365 165 b 433 271 379 215 417 264 b 557 72 468 200 510 132 b 833 547 696 165 806 414 b 764 856 867 713 844 803 b 374 665 675 911 518 864 b 374 57 235 465 185 157 b 435 38 394 46 414 39 b 365 165 410 81 386 122 "},"R":{"ha":1308,"x_min":0,"x_max":0,"o":"m 390 -212 b 115 -86 276 -250 129 -178 b 551 357 244 6 418 157 b 408 532 456 375 336 443 b 651 536 456 588 553 579 b 743 907 701 649 736 774 b 950 879 821 938 900 908 b 799 446 938 796 881 629 l 818 428 b 1043 872 1118 438 1235 722 b 286 665 819 1046 444 782 b 171 842 224 681 165 744 b 1200 975 440 967 851 1150 b 921 336 1500 825 1340 408 b 1493 -401 996 122 1226 -200 b 1247 -514 1479 -428 1386 -522 b 772 325 1096 -403 907 -14 l 742 326 b 390 -212 643 126 518 -79 "},"Ŕ":{"ha":1308,"x_min":0,"x_max":0,"o":"m 390 -212 b 115 -86 276 -250 129 -178 b 551 357 244 6 418 157 b 408 532 456 375 336 443 b 651 536 456 588 553 579 b 743 907 701 649 736 774 b 950 879 821 938 900 908 b 799 446 938 796 881 629 l 818 428 b 1043 872 1118 438 1235 722 b 286 665 819 1046 444 782 b 171 842 224 681 165 744 b 953 1044 379 938 671 1069 b 965 1117 949 1067 954 1096 b 1232 1356 1057 1172 1168 1257 b 1332 1182 1319 1376 1361 1276 b 1047 1029 1264 1110 1147 1058 b 1200 975 1099 1018 1150 1000 b 921 336 1500 825 1340 408 b 1493 -401 996 122 1226 -200 b 1247 -514 1479 -428 1386 -522 b 772 325 1096 -403 907 -14 l 742 326 b 390 -212 643 126 518 -79 "},"Ř":{"ha":1308,"x_min":0,"x_max":0,"o":"m 390 -212 b 115 -86 276 -250 129 -178 b 551 357 244 6 418 157 b 408 532 456 375 336 443 b 651 536 456 588 553 579 b 743 907 701 649 736 774 b 950 879 821 938 900 908 b 799 446 938 796 881 629 l 818 428 b 1043 872 1118 438 1235 722 b 286 665 819 1046 444 782 b 171 842 224 681 165 744 b 1031 1033 397 947 725 1093 b 1017 1049 1025 1038 1019 1043 b 893 1214 1014 1093 997 1117 b 1014 1324 910 1256 954 1314 b 1092 1164 1028 1290 1057 1231 b 1267 1325 1131 1203 1192 1260 b 1339 1193 1297 1304 1340 1253 b 1138 1003 1256 1138 1183 1068 b 1200 975 1158 994 1179 985 b 921 336 1500 825 1340 408 b 1493 -401 996 122 1226 -200 b 1247 -514 1479 -428 1386 -522 b 772 325 1096 -403 907 -14 l 742 326 b 390 -212 643 126 518 -79 "},"Ŗ":{"ha":1308,"x_min":0,"x_max":0,"o":"m 390 -212 b 115 -86 276 -250 129 -178 b 551 357 244 6 418 157 b 408 532 456 375 336 443 b 651 536 456 588 553 579 b 743 907 701 649 736 774 b 950 879 821 938 900 908 b 799 446 938 796 881 629 l 818 428 b 1043 872 1118 438 1235 722 b 286 665 819 1046 444 782 b 171 842 224 681 165 744 b 1200 975 440 967 851 1150 b 921 336 1500 825 1340 408 b 1493 -401 996 122 1226 -200 b 1247 -514 1479 -428 1386 -522 b 772 325 1096 -403 907 -14 l 742 326 b 390 -212 643 126 518 -79 m 476 -399 b 569 -317 517 -369 547 -342 b 514 -250 549 -301 528 -278 b 689 -75 536 -199 596 -124 b 799 -218 728 -103 781 -160 b 518 -481 751 -328 621 -426 b 476 -399 497 -467 465 -435 "},"Ṝ":{"ha":1308,"x_min":0,"x_max":0,"o":"m 390 -212 b 115 -86 276 -250 129 -178 b 551 357 244 6 418 157 b 408 532 456 375 336 443 b 651 536 456 588 553 579 b 743 907 701 649 736 774 b 950 879 821 938 900 908 b 799 446 938 796 881 629 l 818 428 b 1043 872 1118 438 1235 722 b 286 665 819 1046 444 782 b 171 842 224 681 165 744 b 1200 975 440 967 851 1150 b 921 336 1500 825 1340 408 b 1493 -401 996 122 1226 -200 b 1247 -514 1479 -428 1386 -522 b 772 325 1096 -403 907 -14 l 742 326 b 390 -212 643 126 518 -79 m 486 -251 b 667 -103 500 -232 581 -194 b 831 -214 669 -110 726 -192 b 617 -408 786 -275 700 -365 b 486 -251 572 -372 511 -308 m 868 1083 b 918 1200 860 1114 892 1168 b 1289 1201 1054 1188 1200 1182 b 1279 1032 1343 1167 1303 1064 b 868 1083 1085 990 863 1079 "},"Ṟ":{"ha":1308,"x_min":0,"x_max":0,"o":"m 390 -212 b 115 -86 276 -250 129 -178 b 551 357 244 6 418 157 b 408 532 456 375 336 443 b 651 536 456 588 553 579 b 743 907 701 649 736 774 b 950 879 821 938 900 908 b 799 446 938 796 881 629 l 818 428 b 1043 872 1118 438 1235 722 b 286 665 819 1046 444 782 b 171 842 224 681 165 744 b 1200 975 440 967 851 1150 b 921 336 1500 825 1340 408 b 1493 -401 996 122 1226 -200 b 1247 -514 1479 -428 1386 -522 b 772 325 1096 -403 907 -14 l 742 326 b 390 -212 643 126 518 -79 m 440 -244 b 490 -128 432 -214 464 -158 b 861 -125 626 -140 772 -146 b 851 -294 915 -160 875 -262 b 440 -244 657 -336 435 -247 "},"S":{"ha":1088,"x_min":0,"x_max":0,"o":"m 701 -228 b -40 256 396 -508 -235 -262 b 233 246 38 304 163 285 b 590 -144 -7 24 374 -418 b 504 429 740 46 553 164 b 1092 900 438 786 863 1051 b 1108 547 1267 788 1086 626 b 854 603 1064 524 885 526 b 996 813 894 724 1036 757 b 726 461 926 904 607 742 b 701 -228 850 179 888 -57 "},"Ś":{"ha":1088,"x_min":0,"x_max":0,"o":"m 701 -228 b -40 256 396 -508 -235 -262 b 233 246 38 304 163 285 b 590 -144 -7 24 374 -418 b 504 429 740 46 553 164 b 1092 900 438 786 863 1051 b 1108 547 1267 788 1086 626 b 854 603 1064 524 885 526 b 996 813 894 724 1036 757 b 726 461 926 904 607 742 b 701 -228 850 179 888 -57 m 857 1076 b 1124 1315 949 1132 1060 1217 b 1224 1142 1211 1336 1253 1236 b 871 972 1139 1053 983 996 b 857 1076 835 979 838 1042 "},"Ꞌ":{"ha":544,"x_min":0,"x_max":0,"o":"m 608 828 b 340 357 546 796 368 510 b 203 318 307 308 232 303 b 329 840 194 317 208 563 b 608 828 401 901 543 988 "},"Š":{"ha":1088,"x_min":0,"x_max":0,"o":"m 701 -228 b -40 256 396 -508 -235 -262 b 233 246 38 304 163 285 b 590 -144 -7 24 374 -418 b 504 429 740 46 553 164 b 1092 900 438 786 863 1051 b 1108 547 1267 788 1086 626 b 854 603 1064 524 885 526 b 996 813 894 724 1036 757 b 726 461 926 904 607 742 b 701 -228 850 179 888 -57 m 785 1174 b 906 1283 801 1215 846 1274 b 983 1124 919 1250 949 1190 b 1158 1285 1022 1163 1083 1219 b 1231 1153 1189 1264 1232 1213 b 1026 958 1146 1096 1072 1025 b 908 1008 982 965 922 981 b 785 1174 906 1053 889 1076 "},"Ş":{"ha":1088,"x_min":0,"x_max":0,"o":"m 701 -228 b 183 -304 560 -357 350 -375 l 178 -310 b 293 -575 326 -340 379 -471 b -143 -606 200 -686 -31 -706 b -97 -528 -146 -582 -131 -543 b 99 -493 -22 -562 54 -549 b -46 -404 142 -436 104 -382 l 4 -318 l 97 -258 b -40 256 -47 -158 -129 21 b 233 246 38 304 163 285 b 590 -144 -7 24 374 -418 b 504 429 740 46 553 164 b 1092 900 438 786 863 1051 b 1108 547 1267 788 1086 626 b 854 603 1064 524 885 526 b 996 813 894 724 1036 757 b 726 461 926 904 607 742 b 701 -228 850 179 888 -57 "},"Ŝ":{"ha":1088,"x_min":0,"x_max":0,"o":"m 701 -228 b -40 256 396 -508 -235 -262 b 233 246 38 304 163 285 b 590 -144 -7 24 374 -418 b 504 429 740 46 553 164 b 856 933 457 681 656 888 b 788 1064 824 957 783 1006 b 990 1258 871 1121 944 1192 b 1110 1208 1035 1251 1096 1236 b 1232 1044 1110 1164 1126 1140 b 1111 933 1214 1001 1168 943 b 1036 1093 1097 967 1068 1028 b 863 935 996 1054 935 999 b 1092 900 943 953 1026 943 b 1108 547 1267 788 1086 626 b 854 603 1064 524 885 526 b 996 813 894 724 1036 757 b 726 461 926 904 607 742 b 701 -228 850 179 888 -57 "},"Ș":{"ha":1088,"x_min":0,"x_max":0,"o":"m 701 -228 b 175 -301 558 -360 343 -375 b 271 -433 213 -332 256 -382 b -10 -696 224 -543 93 -642 b -51 -614 -31 -682 -62 -650 b 42 -532 -11 -585 19 -557 b -14 -465 21 -517 0 -493 b 157 -293 8 -415 67 -342 b -40 256 -22 -204 -140 -10 b 233 246 38 304 163 285 b 590 -144 -7 24 374 -418 b 504 429 740 46 553 164 b 1092 900 438 786 863 1051 b 1108 547 1267 788 1086 626 b 854 603 1064 524 885 526 b 996 813 894 724 1036 757 b 726 461 926 904 607 742 b 701 -228 850 179 888 -57 "},"Ṣ":{"ha":1088,"x_min":0,"x_max":0,"o":"m 701 -228 b -40 256 396 -508 -235 -262 b 233 246 38 304 163 285 b 590 -144 -7 24 374 -418 b 504 429 740 46 553 164 b 1092 900 438 786 863 1051 b 1108 547 1267 788 1086 626 b 854 603 1064 524 885 526 b 996 813 894 724 1036 757 b 726 461 926 904 607 742 b 701 -228 850 179 888 -57 m -42 -467 b 139 -318 -28 -447 53 -410 b 303 -429 142 -325 199 -407 b 89 -624 258 -490 172 -581 b -42 -467 44 -587 -17 -524 "},"ẞ":{"ha":654,"x_min":0,"x_max":0,"o":"m -325 -164 b 131 678 -183 32 31 515 b 606 928 236 851 464 944 b 249 296 657 825 647 590 b 364 131 393 303 421 229 b 647 418 460 172 583 275 l 742 356 b 185 -56 707 238 396 -24 b 72 -131 149 -82 111 -108 b 56 64 -25 -94 25 11 b 65 208 192 138 299 244 b -86 -231 8 71 -44 -81 b -325 -164 -133 -265 -339 -269 m 132 361 b 414 726 288 440 413 619 b 132 361 333 713 232 567 "},"Ə":{"ha":1317,"x_min":0,"x_max":0,"o":"m 518 765 b 1096 168 975 965 1483 643 b 571 -14 935 -31 719 -58 b 686 488 328 63 268 356 b 931 551 749 504 838 528 b 604 614 901 636 785 671 b 94 185 425 557 172 367 l -44 269 b 518 765 -14 379 251 651 m 635 154 b 815 261 679 149 732 169 b 910 393 858 307 889 351 b 771 342 858 375 811 357 b 635 154 578 258 554 167 "},"T":{"ha":1032,"x_min":0,"x_max":0,"o":"m 494 -321 b 225 -237 396 -368 251 -319 b 972 839 332 28 656 540 b 182 774 719 847 435 829 b 293 1032 163 825 178 922 b 1157 967 535 1088 951 1008 b 1522 1003 1214 978 1383 992 b 1531 753 1550 922 1574 808 b 1144 828 1436 788 1300 814 b 494 -321 799 524 524 -19 "},"Ŧ":{"ha":1032,"x_min":0,"x_max":0,"o":"m 494 -321 b 225 -237 396 -368 251 -319 b 576 368 286 -87 417 143 b 422 311 524 357 471 338 b 529 565 400 411 471 515 b 743 590 603 581 675 589 b 972 839 818 681 896 767 b 182 774 719 847 435 829 b 293 1032 163 825 178 922 b 1157 967 535 1088 951 1008 b 1522 1003 1214 978 1383 992 b 1531 753 1550 922 1574 808 b 1144 828 1436 788 1300 814 b 911 575 1061 756 983 669 b 1006 543 949 568 982 557 b 953 357 1007 456 990 417 b 781 388 914 372 851 385 b 494 -321 621 133 513 -137 "},"Ť":{"ha":1032,"x_min":0,"x_max":0,"o":"m 494 -321 b 225 -237 396 -368 251 -319 b 972 839 332 28 656 540 b 182 774 719 847 435 829 b 293 1032 163 825 178 922 b 1082 982 508 1082 861 1024 b 1049 1008 1067 989 1054 997 b 925 1174 1046 1053 1029 1076 b 1046 1283 942 1215 986 1274 b 1124 1124 1060 1250 1089 1190 b 1299 1285 1163 1163 1224 1219 b 1371 1153 1329 1264 1372 1213 b 1175 969 1290 1099 1221 1033 b 1522 1003 1244 981 1396 993 b 1531 753 1550 922 1574 808 b 1144 828 1436 788 1300 814 b 494 -321 799 524 524 -19 "},"Ţ":{"ha":1032,"x_min":0,"x_max":0,"o":"m 494 -321 b 350 -332 450 -342 397 -344 l 335 -344 b 450 -610 483 -375 536 -506 b 15 -640 357 -721 126 -740 b 60 -562 11 -617 26 -578 b 256 -528 135 -597 211 -583 b 113 -439 299 -471 261 -417 l 161 -353 l 261 -289 b 225 -237 243 -274 231 -257 b 972 839 332 28 656 540 b 182 774 719 847 435 829 b 293 1032 163 825 178 922 b 1157 967 535 1088 951 1008 b 1522 1003 1214 978 1383 992 b 1531 753 1550 922 1574 808 b 1144 828 1436 788 1300 814 b 494 -321 799 524 524 -19 "},"Ț":{"ha":1032,"x_min":0,"x_max":0,"o":"m 494 -321 b 225 -237 396 -368 251 -319 b 972 839 332 28 656 540 b 182 774 719 847 435 829 b 293 1032 163 825 178 922 b 1157 967 535 1088 951 1008 b 1522 1003 1214 978 1383 992 b 1531 753 1550 922 1574 808 b 1144 828 1436 788 1300 814 b 494 -321 799 524 524 -19 m 106 -649 b 199 -567 146 -619 176 -592 b 143 -500 178 -551 157 -528 b 318 -325 165 -449 225 -374 b 428 -468 357 -353 410 -410 b 147 -731 381 -578 250 -676 b 106 -649 126 -717 94 -685 "},"Ṭ":{"ha":1032,"x_min":0,"x_max":0,"o":"m 494 -321 b 225 -237 396 -368 251 -319 b 972 839 332 28 656 540 b 182 774 719 847 435 829 b 293 1032 163 825 178 922 b 1157 967 535 1088 951 1008 b 1522 1003 1214 978 1383 992 b 1531 753 1550 922 1574 808 b 1144 828 1436 788 1300 814 b 494 -321 799 524 524 -19 m 115 -501 b 296 -353 129 -482 210 -444 b 460 -464 299 -360 356 -442 b 246 -658 415 -525 329 -615 b 115 -501 201 -622 140 -558 "},"Ṯ":{"ha":1032,"x_min":0,"x_max":0,"o":"m 494 -321 b 225 -237 396 -368 251 -319 b 972 839 332 28 656 540 b 182 774 719 847 435 829 b 293 1032 163 825 178 922 b 1157 967 535 1088 951 1008 b 1522 1003 1214 978 1383 992 b 1531 753 1550 922 1574 808 b 1144 828 1436 788 1300 814 b 494 -321 799 524 524 -19 m 69 -494 b 119 -378 61 -464 93 -408 b 490 -375 256 -390 401 -396 b 481 -544 544 -410 504 -512 b 69 -494 286 -586 64 -497 "},"U":{"ha":1229,"x_min":0,"x_max":0,"o":"m -28 -50 b 307 988 -315 124 369 563 b 538 942 371 997 483 1003 b 193 150 554 622 26 258 b 683 525 260 110 426 283 b 1049 1003 756 681 874 849 b 1192 869 1117 994 1168 922 b 842 153 796 633 729 217 b 1222 418 935 96 1139 225 l 1318 356 b 657 -12 1167 -3 794 -107 b 606 297 596 28 574 144 b -28 -50 365 56 125 -142 "},"Ú":{"ha":1229,"x_min":0,"x_max":0,"o":"m -28 -50 b 307 988 -315 124 369 563 b 538 942 371 997 483 1003 b 193 150 554 622 26 258 b 683 525 260 110 426 283 b 1049 1003 756 681 874 849 b 1192 869 1117 994 1168 922 b 842 153 796 633 729 217 b 1222 418 935 96 1139 225 l 1318 356 b 657 -12 1167 -3 794 -107 b 606 297 596 28 574 144 b -28 -50 365 56 125 -142 m 624 1043 b 890 1282 715 1099 826 1183 b 990 1108 978 1303 1019 1203 b 638 939 906 1019 750 963 b 624 1043 601 946 604 1008 "},"Ŭ":{"ha":1229,"x_min":0,"x_max":0,"o":"m -28 -50 b 307 988 -315 124 369 563 b 538 942 371 997 483 1003 b 193 150 554 622 26 258 b 683 525 260 110 426 283 b 1049 1003 756 681 874 849 b 1192 869 1117 994 1168 922 b 842 153 796 633 729 217 b 1222 418 935 96 1139 225 l 1318 356 b 657 -12 1167 -3 794 -107 b 606 297 596 28 574 144 b -28 -50 365 56 125 -142 m 528 1131 b 756 1153 617 1225 751 1211 b 903 1165 747 1029 826 1015 b 1040 1122 976 1208 1058 1176 b 528 1131 921 896 569 867 "},"Ǔ":{"ha":1229,"x_min":0,"x_max":0,"o":"m -28 -50 b 307 988 -315 124 369 563 b 538 942 371 997 483 1003 b 193 150 554 622 26 258 b 683 525 260 110 426 283 b 1049 1003 756 681 874 849 b 1192 869 1117 994 1168 922 b 842 153 796 633 729 217 b 1222 418 935 96 1139 225 l 1318 356 b 657 -12 1167 -3 794 -107 b 606 297 596 28 574 144 b -28 -50 365 56 125 -142 m 551 1140 b 672 1250 568 1182 613 1240 b 750 1090 686 1217 715 1157 b 925 1251 789 1129 850 1186 b 997 1119 956 1231 999 1179 b 793 925 913 1063 839 992 b 675 975 749 932 689 947 b 551 1140 672 1019 656 1043 "},"Û":{"ha":1229,"x_min":0,"x_max":0,"o":"m -28 -50 b 307 988 -315 124 369 563 b 538 942 371 997 483 1003 b 193 150 554 622 26 258 b 683 525 260 110 426 283 b 1049 1003 756 681 874 849 b 1192 869 1117 994 1168 922 b 842 153 796 633 729 217 b 1222 418 935 96 1139 225 l 1318 356 b 657 -12 1167 -3 794 -107 b 606 297 596 28 574 144 b -28 -50 365 56 125 -142 m 554 1031 b 757 1225 638 1088 711 1158 b 876 1175 801 1218 863 1203 b 999 1011 876 1131 893 1107 b 878 900 981 968 935 910 b 803 1060 864 933 835 994 b 625 899 763 1021 700 964 b 554 1031 593 921 550 971 "},"Ü":{"ha":1229,"x_min":0,"x_max":0,"o":"m -28 -50 b 307 988 -315 124 369 563 b 538 942 371 997 483 1003 b 193 150 554 622 26 258 b 683 525 260 110 426 283 b 1049 1003 756 681 874 849 b 1192 869 1117 994 1168 922 b 842 153 796 633 729 217 b 1222 418 935 96 1139 225 l 1318 356 b 657 -12 1167 -3 794 -107 b 606 297 596 28 574 144 b -28 -50 365 56 125 -142 m 514 1079 b 694 1228 528 1099 610 1139 b 789 1143 696 1221 729 1176 b 911 1247 822 1167 865 1200 b 1075 1136 914 1240 971 1158 b 861 942 1029 1075 943 985 b 778 1024 839 957 806 989 b 644 922 742 989 696 949 b 514 1079 600 960 538 1022 "},"Ǘ":{"ha":1229,"x_min":0,"x_max":0,"o":"m -28 -50 b 307 988 -315 124 369 563 b 538 942 371 997 483 1003 b 193 150 554 622 26 258 b 683 525 260 110 426 283 b 1049 1003 756 681 874 849 b 1192 869 1117 994 1168 922 b 842 153 796 633 729 217 b 1222 418 935 96 1139 225 l 1318 356 b 657 -12 1167 -3 794 -107 b 606 297 596 28 574 144 b -28 -50 365 56 125 -142 m 514 1079 b 694 1228 528 1099 610 1139 b 789 1143 696 1221 729 1176 b 911 1247 822 1167 865 1200 b 1075 1136 914 1240 971 1158 b 861 942 1029 1075 943 985 b 778 1024 839 957 806 989 b 644 922 742 989 696 949 b 514 1079 600 960 538 1022 m 725 1325 b 992 1564 817 1381 928 1465 b 1092 1390 1079 1585 1121 1485 b 739 1221 1007 1301 851 1244 b 725 1325 703 1228 706 1290 "},"Ǚ":{"ha":1229,"x_min":0,"x_max":0,"o":"m -28 -50 b 307 988 -315 124 369 563 b 538 942 371 997 483 1003 b 193 150 554 622 26 258 b 683 525 260 110 426 283 b 1049 1003 756 681 874 849 b 1192 869 1117 994 1168 922 b 842 153 796 633 729 217 b 1222 418 935 96 1139 225 l 1318 356 b 657 -12 1167 -3 794 -107 b 606 297 596 28 574 144 b -28 -50 365 56 125 -142 m 514 1079 b 694 1228 528 1099 610 1139 b 789 1143 696 1221 729 1176 b 874 1211 813 1160 842 1182 b 776 1257 833 1219 788 1233 b 653 1422 774 1301 757 1325 b 774 1532 669 1464 714 1522 b 851 1372 788 1499 817 1439 b 1026 1533 890 1411 951 1468 b 1099 1401 1057 1513 1100 1461 b 917 1238 1026 1353 963 1294 b 1075 1136 935 1214 989 1154 b 861 942 1029 1075 943 985 b 778 1024 839 957 806 989 b 644 922 742 989 696 949 b 514 1079 600 960 538 1022 "},"Ǜ":{"ha":1229,"x_min":0,"x_max":0,"o":"m -28 -50 b 307 988 -315 124 369 563 b 538 942 371 997 483 1003 b 193 150 554 622 26 258 b 683 525 260 110 426 283 b 1049 1003 756 681 874 849 b 1192 869 1117 994 1168 922 b 842 153 796 633 729 217 b 1222 418 935 96 1139 225 l 1318 356 b 657 -12 1167 -3 794 -107 b 606 297 596 28 574 144 b -28 -50 365 56 125 -142 m 514 1079 b 694 1228 528 1099 610 1139 b 789 1143 696 1221 729 1176 b 911 1247 822 1167 865 1200 b 1075 1136 914 1240 971 1158 b 861 942 1029 1075 943 985 b 778 1024 839 957 806 989 b 644 922 742 989 696 949 b 514 1079 600 960 538 1022 m 719 1347 b 890 1497 729 1424 813 1511 b 1060 1322 913 1422 992 1361 b 1017 1233 1069 1296 1049 1240 b 719 1347 908 1242 772 1278 "},"Ǖ":{"ha":1229,"x_min":0,"x_max":0,"o":"m -28 -50 b 307 988 -315 124 369 563 b 538 942 371 997 483 1003 b 193 150 554 622 26 258 b 683 525 260 110 426 283 b 1049 1003 756 681 874 849 b 1192 869 1117 994 1168 922 b 842 153 796 633 729 217 b 1222 418 935 96 1139 225 l 1318 356 b 657 -12 1167 -3 794 -107 b 606 297 596 28 574 144 b -28 -50 365 56 125 -142 m 514 1079 b 694 1228 528 1099 610 1139 b 789 1143 696 1221 729 1176 b 894 1231 818 1164 854 1192 b 628 1292 749 1238 624 1289 b 678 1408 619 1322 651 1376 b 1049 1410 814 1396 960 1390 b 1039 1240 1103 1375 1063 1272 b 924 1229 1001 1232 963 1229 b 1075 1136 946 1201 997 1153 b 861 942 1029 1075 943 985 b 778 1024 839 957 806 989 b 644 922 742 989 696 949 b 514 1079 600 960 538 1022 "},"Ụ":{"ha":1229,"x_min":0,"x_max":0,"o":"m -28 -50 b 307 988 -315 124 369 563 b 538 942 371 997 483 1003 b 193 150 554 622 26 258 b 683 525 260 110 426 283 b 1049 1003 756 681 874 849 b 1192 869 1117 994 1168 922 b 842 153 796 633 729 217 b 1222 418 935 96 1139 225 l 1318 356 b 657 -12 1167 -3 794 -107 b 606 297 596 28 574 144 b -28 -50 365 56 125 -142 m 92 -183 b 272 -35 106 -164 186 -126 b 436 -146 275 -42 332 -124 b 222 -340 392 -207 306 -297 b 92 -183 178 -304 117 -240 "},"Ù":{"ha":1229,"x_min":0,"x_max":0,"o":"m -28 -50 b 307 988 -315 124 369 563 b 538 942 371 997 483 1003 b 193 150 554 622 26 258 b 683 525 260 110 426 283 b 1049 1003 756 681 874 849 b 1192 869 1117 994 1168 922 b 842 153 796 633 729 217 b 1222 418 935 96 1139 225 l 1318 356 b 657 -12 1167 -3 794 -107 b 606 297 596 28 574 144 b -28 -50 365 56 125 -142 m 618 1065 b 789 1215 628 1142 711 1229 b 958 1040 811 1140 890 1079 b 915 951 968 1014 947 958 b 618 1065 807 960 671 996 "},"Ủ":{"ha":1229,"x_min":0,"x_max":0,"o":"m -28 -50 b 307 988 -315 124 369 563 b 538 942 371 997 483 1003 b 193 150 554 622 26 258 b 683 525 260 110 426 283 b 1049 1003 756 681 874 849 b 1192 869 1117 994 1168 922 b 842 153 796 633 729 217 b 1222 418 935 96 1139 225 l 1318 356 b 657 -12 1167 -3 794 -107 b 606 297 596 28 574 144 b -28 -50 365 56 125 -142 m 581 1000 b 826 1226 800 1072 854 1192 b 728 1229 799 1260 756 1243 b 697 1299 701 1236 685 1264 b 1021 1351 814 1401 951 1429 b 617 931 1101 1253 997 1042 l 581 1000 "},"Ư":{"ha":1229,"x_min":0,"x_max":0,"o":"m -28 -50 b 307 988 -315 124 369 563 b 538 942 371 997 483 1003 b 193 150 554 622 26 258 b 683 525 260 110 426 283 b 1049 1003 756 681 874 849 b 1192 869 1117 994 1168 922 b 1072 786 1149 843 1108 815 b 1336 1036 1171 799 1286 872 l 1406 999 b 942 651 1297 631 1118 521 b 842 153 774 436 760 200 b 1222 418 935 96 1139 225 l 1318 356 b 657 -12 1167 -3 794 -107 b 606 297 596 28 574 144 b -28 -50 365 56 125 -142 "},"Ứ":{"ha":1229,"x_min":0,"x_max":0,"o":"m -28 -50 b 307 988 -315 124 369 563 b 538 942 371 997 483 1003 b 193 150 554 622 26 258 b 683 525 260 110 426 283 b 1049 1003 756 681 874 849 b 1192 869 1117 994 1168 922 b 1072 786 1149 843 1108 815 b 1336 1036 1171 799 1286 872 l 1406 999 b 942 651 1297 631 1118 521 b 842 153 774 436 760 200 b 1222 418 935 96 1139 225 l 1318 356 b 657 -12 1167 -3 794 -107 b 606 297 596 28 574 144 b -28 -50 365 56 125 -142 m 624 1043 b 890 1282 715 1099 826 1183 b 990 1108 978 1303 1019 1203 b 638 939 906 1019 750 963 b 624 1043 601 946 604 1008 "},"Ự":{"ha":1229,"x_min":0,"x_max":0,"o":"m -28 -50 b 307 988 -315 124 369 563 b 538 942 371 997 483 1003 b 193 150 554 622 26 258 b 683 525 260 110 426 283 b 1049 1003 756 681 874 849 b 1192 869 1117 994 1168 922 b 1072 786 1149 843 1108 815 b 1336 1036 1171 799 1286 872 l 1406 999 b 942 651 1297 631 1118 521 b 842 153 774 436 760 200 b 1222 418 935 96 1139 225 l 1318 356 b 657 -12 1167 -3 794 -107 b 606 297 596 28 574 144 b -28 -50 365 56 125 -142 m 92 -183 b 272 -35 106 -164 186 -126 b 436 -146 275 -42 332 -124 b 222 -340 392 -207 306 -297 b 92 -183 178 -304 117 -240 "},"Ừ":{"ha":1229,"x_min":0,"x_max":0,"o":"m -28 -50 b 307 988 -315 124 369 563 b 538 942 371 997 483 1003 b 193 150 554 622 26 258 b 683 525 260 110 426 283 b 1049 1003 756 681 874 849 b 1192 869 1117 994 1168 922 b 1072 786 1149 843 1108 815 b 1336 1036 1171 799 1286 872 l 1406 999 b 942 651 1297 631 1118 521 b 842 153 774 436 760 200 b 1222 418 935 96 1139 225 l 1318 356 b 657 -12 1167 -3 794 -107 b 606 297 596 28 574 144 b -28 -50 365 56 125 -142 m 618 1065 b 789 1215 628 1142 711 1229 b 958 1040 811 1140 890 1079 b 915 951 968 1014 947 958 b 618 1065 807 960 671 996 "},"Ử":{"ha":1229,"x_min":0,"x_max":0,"o":"m -28 -50 b 307 988 -315 124 369 563 b 538 942 371 997 483 1003 b 193 150 554 622 26 258 b 683 525 260 110 426 283 b 1049 1003 756 681 874 849 b 1192 869 1117 994 1168 922 b 1072 786 1149 843 1108 815 b 1336 1036 1171 799 1286 872 l 1406 999 b 942 651 1297 631 1118 521 b 842 153 774 436 760 200 b 1222 418 935 96 1139 225 l 1318 356 b 657 -12 1167 -3 794 -107 b 606 297 596 28 574 144 b -28 -50 365 56 125 -142 m 581 1000 b 826 1226 800 1072 854 1192 b 728 1229 799 1260 756 1243 b 697 1299 701 1236 685 1264 b 1021 1351 814 1401 951 1429 b 617 931 1101 1253 997 1042 l 581 1000 "},"Ữ":{"ha":1229,"x_min":0,"x_max":0,"o":"m -28 -50 b 307 988 -315 124 369 563 b 538 942 371 997 483 1003 b 193 150 554 622 26 258 b 683 525 260 110 426 283 b 1049 1003 756 681 874 849 b 1192 869 1117 994 1168 922 b 1072 786 1149 843 1108 815 b 1336 1036 1171 799 1286 872 l 1406 999 b 942 651 1297 631 1118 521 b 842 153 774 436 760 200 b 1222 418 935 96 1139 225 l 1318 356 b 657 -12 1167 -3 794 -107 b 606 297 596 28 574 144 b -28 -50 365 56 125 -142 m 546 1113 b 833 1117 833 1371 806 1106 b 894 1192 872 1132 889 1164 b 1061 1110 967 1226 1085 1218 b 779 967 961 992 822 956 b 725 1088 728 976 731 1088 b 674 969 708 1086 674 1014 b 546 1113 583 931 529 1054 "},"Ű":{"ha":1229,"x_min":0,"x_max":0,"o":"m -28 -50 b 307 988 -315 124 369 563 b 538 942 371 997 483 1003 b 193 150 554 622 26 258 b 683 525 260 110 426 283 b 1049 1003 756 681 874 849 b 1192 869 1117 994 1168 922 b 842 153 796 633 729 217 b 1222 418 935 96 1139 225 l 1318 356 b 657 -12 1167 -3 794 -107 b 606 297 596 28 574 144 b -28 -50 365 56 125 -142 m 556 1056 b 822 1294 647 1111 758 1196 b 932 1201 883 1308 924 1263 b 1008 1294 960 1231 985 1263 b 1108 1121 1097 1315 1138 1215 b 756 951 1024 1032 868 975 b 725 997 735 956 725 974 b 568 951 665 974 607 958 b 556 1056 533 958 536 1021 "},"Ū":{"ha":1229,"x_min":0,"x_max":0,"o":"m -28 -50 b 307 988 -315 124 369 563 b 538 942 371 997 483 1003 b 193 150 554 622 26 258 b 683 525 260 110 426 283 b 1049 1003 756 681 874 849 b 1192 869 1117 994 1168 922 b 842 153 796 633 729 217 b 1222 418 935 96 1139 225 l 1318 356 b 657 -12 1167 -3 794 -107 b 606 297 596 28 574 144 b -28 -50 365 56 125 -142 m 526 1010 b 576 1126 518 1040 550 1094 b 947 1128 713 1114 858 1108 b 938 958 1001 1093 961 990 b 526 1010 743 917 521 1006 "},"Ų":{"ha":1229,"x_min":0,"x_max":0,"o":"m -28 -50 b 307 988 -315 124 369 563 b 538 942 371 997 483 1003 b 193 150 554 622 26 258 b 683 525 260 110 426 283 b 1049 1003 756 681 874 849 b 1192 869 1117 994 1168 922 b 842 153 796 633 729 217 b 1222 418 935 96 1139 225 l 1318 356 b 842 -42 1214 110 1006 -17 b 665 -240 681 -112 640 -210 b 764 -243 693 -274 736 -257 b 794 -312 790 -250 807 -278 b 471 -365 679 -415 540 -443 b 675 -24 407 -287 460 -137 b 657 -12 669 -19 663 -17 b 606 297 596 28 574 144 b -28 -50 365 56 125 -142 "},"Ů":{"ha":1229,"x_min":0,"x_max":0,"o":"m -28 -50 b 307 988 -315 124 369 563 b 538 942 371 997 483 1003 b 193 150 554 622 26 258 b 683 525 260 110 426 283 b 1049 1003 756 681 874 849 b 1192 869 1117 994 1168 922 b 842 153 796 633 729 217 b 1222 418 935 96 1139 225 l 1318 356 b 657 -12 1167 -3 794 -107 b 606 297 596 28 574 144 b -28 -50 365 56 125 -142 m 783 958 b 886 1268 440 890 578 1197 b 783 958 1217 1340 1106 1022 m 786 1057 b 853 1160 846 1064 946 1168 b 786 1057 751 1150 722 1050 "},"Ũ":{"ha":1229,"x_min":0,"x_max":0,"o":"m -28 -50 b 307 988 -315 124 369 563 b 538 942 371 997 483 1003 b 193 150 554 622 26 258 b 683 525 260 110 426 283 b 1049 1003 756 681 874 849 b 1192 869 1117 994 1168 922 b 842 153 796 633 729 217 b 1222 418 935 96 1139 225 l 1318 356 b 657 -12 1167 -3 794 -107 b 606 297 596 28 574 144 b -28 -50 365 56 125 -142 m 546 1113 b 833 1117 833 1371 806 1106 b 894 1192 872 1132 889 1164 b 1061 1110 967 1226 1085 1218 b 779 967 961 992 822 956 b 725 1088 728 976 731 1088 b 674 969 708 1086 674 1014 b 546 1113 583 931 529 1054 "},"V":{"ha":1136,"x_min":0,"x_max":0,"o":"m 14 -87 b 14 -82 14 -86 14 -83 l 19 -79 b 189 906 221 263 308 925 b 450 1069 226 961 335 1061 b 226 56 600 1015 435 472 b 1115 1103 625 347 1035 826 b 1389 961 1232 1133 1374 1054 b 78 -189 1194 658 514 22 b 17 -108 42 -169 24 -136 l 3 -106 "},"W":{"ha":1553,"x_min":0,"x_max":0,"o":"m 13 -87 b 13 -82 13 -86 13 -83 l 18 -79 b 190 907 218 263 307 924 b 444 1069 225 961 333 1061 b 229 64 599 1017 436 479 b 829 964 551 324 746 690 b 1015 910 915 986 982 956 b 761 63 1160 785 961 421 b 1642 1103 1157 353 1563 828 b 1915 961 1758 1133 1901 1054 b 606 -189 1721 658 1040 22 b 542 -108 569 -169 550 -136 l 528 -106 b 538 -89 531 -100 535 -94 l 538 -82 b 544 -78 540 -81 542 -79 b 796 485 643 88 738 306 b 78 -189 608 226 368 -49 b 15 -108 42 -169 22 -136 l 1 -106 "},"Ẃ":{"ha":1553,"x_min":0,"x_max":0,"o":"m 13 -87 b 13 -82 13 -86 13 -83 l 18 -79 b 190 907 218 263 307 924 b 444 1069 225 961 333 1061 b 229 64 599 1017 436 479 b 829 964 551 324 746 690 b 1015 910 915 986 982 956 b 761 63 1160 785 961 421 b 1642 1103 1157 353 1563 828 b 1915 961 1758 1133 1901 1054 b 606 -189 1721 658 1040 22 b 542 -108 569 -169 550 -136 l 528 -106 b 538 -89 531 -100 535 -94 l 538 -82 b 544 -78 540 -81 542 -79 b 796 485 643 88 738 306 b 78 -189 608 226 368 -49 b 15 -108 42 -169 22 -136 l 1 -106 m 896 1076 b 1163 1315 988 1132 1099 1217 b 1263 1142 1250 1336 1292 1236 b 910 972 1178 1053 1022 996 b 896 1076 874 979 876 1042 "},"Ŵ":{"ha":1553,"x_min":0,"x_max":0,"o":"m 13 -87 b 13 -82 13 -86 13 -83 l 18 -79 b 190 907 218 263 307 924 b 444 1069 225 961 333 1061 b 229 64 599 1017 436 479 b 829 964 551 324 746 690 b 858 969 839 967 849 968 b 826 1064 839 994 824 1028 b 1029 1258 910 1121 983 1192 b 1149 1208 1074 1251 1135 1236 b 1271 1044 1149 1164 1165 1140 b 1150 933 1253 1001 1207 943 b 1075 1093 1136 967 1107 1028 b 935 965 1042 1061 993 1017 b 1015 910 969 956 997 935 b 761 63 1160 785 961 421 b 1642 1103 1157 353 1563 828 b 1915 961 1758 1133 1901 1054 b 606 -189 1721 658 1040 22 b 542 -108 569 -169 550 -136 l 528 -106 b 538 -89 531 -100 535 -94 l 538 -82 b 544 -78 540 -81 542 -79 b 796 485 643 88 738 306 b 78 -189 608 226 368 -49 b 15 -108 42 -169 22 -136 l 1 -106 "},"Ẅ":{"ha":1553,"x_min":0,"x_max":0,"o":"m 13 -87 b 13 -82 13 -86 13 -83 l 18 -79 b 190 907 218 263 307 924 b 444 1069 225 961 333 1061 b 229 64 599 1017 436 479 b 829 964 551 324 746 690 b 899 971 854 971 878 972 b 786 1113 857 1008 807 1063 b 967 1261 800 1132 882 1172 b 1061 1176 968 1254 1001 1210 b 1183 1281 1094 1200 1138 1233 b 1347 1169 1186 1274 1243 1192 b 1133 975 1301 1108 1215 1018 b 1050 1057 1111 990 1078 1022 b 935 965 1018 1026 978 992 b 1015 910 969 956 997 935 b 761 63 1160 785 961 421 b 1642 1103 1157 353 1563 828 b 1915 961 1758 1133 1901 1054 b 606 -189 1721 658 1040 22 b 542 -108 569 -169 550 -136 l 528 -106 b 538 -89 531 -100 535 -94 l 538 -82 b 544 -78 540 -81 542 -79 b 796 485 643 88 738 306 b 78 -189 608 226 368 -49 b 15 -108 42 -169 22 -136 l 1 -106 "},"Ẁ":{"ha":1553,"x_min":0,"x_max":0,"o":"m 13 -87 b 13 -82 13 -86 13 -83 l 18 -79 b 190 907 218 263 307 924 b 444 1069 225 961 333 1061 b 229 64 599 1017 436 479 b 829 964 551 324 746 690 b 1015 910 915 986 982 956 b 761 63 1160 785 961 421 b 1642 1103 1157 353 1563 828 b 1915 961 1758 1133 1901 1054 b 606 -189 1721 658 1040 22 b 542 -108 569 -169 550 -136 l 528 -106 b 538 -89 531 -100 535 -94 l 538 -82 b 544 -78 540 -81 542 -79 b 796 485 643 88 738 306 b 78 -189 608 226 368 -49 b 15 -108 42 -169 22 -136 l 1 -106 m 890 1099 b 1061 1249 900 1175 983 1263 b 1231 1074 1083 1174 1163 1113 b 1188 985 1240 1047 1219 992 b 890 1099 1079 993 943 1029 "},"X":{"ha":1251,"x_min":0,"x_max":0,"o":"m 6 -322 b -199 -168 -100 -325 -211 -226 b 464 403 29 -79 231 164 b 499 907 435 546 436 718 b 717 882 572 940 664 913 b 613 547 647 764 615 650 b 1194 917 781 704 969 843 b 1282 832 1226 904 1275 876 b 638 385 986 710 793 553 b 879 154 678 269 764 186 b 1244 418 986 122 1151 204 l 1340 356 b 697 -14 1192 10 835 -108 b 513 242 639 24 565 114 b 6 -322 354 47 217 -151 "},"Y":{"ha":964,"x_min":0,"x_max":0,"o":"m -26 -50 b 306 988 -315 124 369 565 b 538 942 371 997 483 1003 b 193 150 554 622 25 258 b 579 429 250 115 382 239 b 925 908 693 636 810 801 b 1143 781 1019 906 1086 863 b 325 -492 919 626 465 -40 b 238 -361 288 -471 233 -419 b 435 133 299 -186 365 -19 b -26 -50 256 -22 89 -119 "},"Ý":{"ha":964,"x_min":0,"x_max":0,"o":"m -26 -50 b 306 988 -315 124 369 565 b 538 942 371 997 483 1003 b 193 150 554 622 25 258 b 579 429 250 115 382 239 b 925 908 693 636 810 801 b 1143 781 1019 906 1086 863 b 325 -492 919 626 465 -40 b 238 -361 288 -471 233 -419 b 435 133 299 -186 365 -19 b -26 -50 256 -22 89 -119 m 601 1076 b 868 1315 693 1132 804 1217 b 968 1142 956 1336 997 1236 b 615 972 883 1053 728 996 b 601 1076 579 979 582 1042 "},"Ŷ":{"ha":964,"x_min":0,"x_max":0,"o":"m -26 -50 b 306 988 -315 124 369 565 b 538 942 371 997 483 1003 b 193 150 554 622 25 258 b 579 429 250 115 382 239 b 925 908 693 636 810 801 b 1143 781 1019 906 1086 863 b 325 -492 919 626 465 -40 b 238 -361 288 -471 233 -419 b 435 133 299 -186 365 -19 b -26 -50 256 -22 89 -119 m 532 1064 b 735 1258 615 1121 689 1192 b 854 1208 779 1251 840 1236 b 976 1044 854 1164 871 1140 b 856 933 958 1001 913 943 b 781 1093 842 967 813 1028 b 603 932 740 1054 678 997 b 532 1064 571 954 528 1004 "},"Ÿ":{"ha":964,"x_min":0,"x_max":0,"o":"m -26 -50 b 306 988 -315 124 369 565 b 538 942 371 997 483 1003 b 193 150 554 622 25 258 b 579 429 250 115 382 239 b 925 908 693 636 810 801 b 1143 781 1019 906 1086 863 b 325 -492 919 626 465 -40 b 238 -361 288 -471 233 -419 b 435 133 299 -186 365 -19 b -26 -50 256 -22 89 -119 m 492 1113 b 672 1261 506 1132 588 1172 b 767 1176 674 1254 707 1210 b 889 1281 800 1200 843 1233 b 1053 1169 892 1274 949 1192 b 839 975 1007 1108 921 1018 b 756 1057 817 990 783 1022 b 622 956 719 1022 674 982 b 492 1113 578 993 515 1056 "},"Ẏ":{"ha":964,"x_min":0,"x_max":0,"o":"m -26 -50 b 306 988 -315 124 369 565 b 538 942 371 997 483 1003 b 193 150 554 622 25 258 b 579 429 250 115 382 239 b 925 908 693 636 810 801 b 1143 781 1019 906 1086 863 b 325 -492 919 626 465 -40 b 238 -361 288 -471 233 -419 b 435 133 299 -186 365 -19 b -26 -50 256 -22 89 -119 m 611 1140 b 792 1289 625 1160 706 1197 b 956 1178 794 1282 851 1200 b 742 983 911 1117 825 1026 b 611 1140 697 1021 636 1083 "},"Ỵ":{"ha":964,"x_min":0,"x_max":0,"o":"m -26 -50 b 306 988 -315 124 369 565 b 538 942 371 997 483 1003 b 193 150 554 622 25 258 b 579 429 250 115 382 239 b 925 908 693 636 810 801 b 1143 781 1019 906 1086 863 b 325 -492 919 626 465 -40 b 238 -361 288 -471 233 -419 b 435 133 299 -186 365 -19 b -26 -50 256 -22 89 -119 m -86 -246 b 94 -97 -72 -226 8 -189 b 258 -208 97 -104 154 -186 b 44 -403 214 -269 128 -360 b -86 -246 0 -367 -61 -303 "},"Ỳ":{"ha":964,"x_min":0,"x_max":0,"o":"m -26 -50 b 306 988 -315 124 369 565 b 538 942 371 997 483 1003 b 193 150 554 622 25 258 b 579 429 250 115 382 239 b 925 908 693 636 810 801 b 1143 781 1019 906 1086 863 b 325 -492 919 626 465 -40 b 238 -361 288 -471 233 -419 b 435 133 299 -186 365 -19 b -26 -50 256 -22 89 -119 m 596 1099 b 767 1249 606 1175 689 1263 b 936 1074 789 1174 868 1113 b 893 985 946 1047 925 992 b 596 1099 785 993 649 1029 "},"Ỷ":{"ha":964,"x_min":0,"x_max":0,"o":"m -26 -50 b 306 988 -315 124 369 565 b 538 942 371 997 483 1003 b 193 150 554 622 25 258 b 579 429 250 115 382 239 b 925 908 693 636 810 801 b 1143 781 1019 906 1086 863 b 325 -492 919 626 465 -40 b 238 -361 288 -471 233 -419 b 435 133 299 -186 365 -19 b -26 -50 256 -22 89 -119 m 558 1033 b 804 1260 778 1106 832 1225 b 706 1263 776 1293 733 1276 b 675 1332 679 1269 663 1297 b 999 1385 792 1435 929 1463 b 594 964 1079 1286 975 1075 l 558 1033 "},"Ȳ":{"ha":964,"x_min":0,"x_max":0,"o":"m -26 -50 b 306 988 -315 124 369 565 b 538 942 371 997 483 1003 b 193 150 554 622 25 258 b 579 429 250 115 382 239 b 925 908 693 636 810 801 b 1143 781 1019 906 1086 863 b 325 -492 919 626 465 -40 b 238 -361 288 -471 233 -419 b 435 133 299 -186 365 -19 b -26 -50 256 -22 89 -119 m 504 1043 b 554 1160 496 1074 528 1128 b 925 1161 690 1147 836 1142 b 915 992 979 1126 939 1024 b 504 1043 721 950 499 1039 "},"Ỹ":{"ha":964,"x_min":0,"x_max":0,"o":"m -26 -50 b 306 988 -315 124 369 565 b 538 942 371 997 483 1003 b 193 150 554 622 25 258 b 579 429 250 115 382 239 b 925 908 693 636 810 801 b 1143 781 1019 906 1086 863 b 325 -492 919 626 465 -40 b 238 -361 288 -471 233 -419 b 435 133 299 -186 365 -19 b -26 -50 256 -22 89 -119 m 524 1146 b 811 1150 811 1404 783 1139 b 872 1225 850 1165 867 1197 b 1039 1143 944 1260 1063 1251 b 757 1000 939 1025 800 989 b 703 1121 706 1010 708 1121 b 651 1003 686 1119 651 1047 b 524 1146 561 964 507 1088 "},"Z":{"ha":1206,"x_min":0,"x_max":0,"o":"m 658 -14 b 354 154 546 61 501 188 b 93 -75 275 79 189 1 b -110 79 -11 -76 -121 24 b 889 799 243 221 511 582 b 301 706 725 789 536 756 b 413 967 279 758 297 856 b 1114 925 672 976 908 967 b 1325 996 1178 956 1267 982 b 1363 739 1381 921 1392 829 b 1147 790 1292 764 1221 781 b 475 269 881 668 690 479 b 842 154 606 265 696 193 b 1199 418 949 122 1108 213 l 1294 356 b 658 -14 1154 22 796 -108 "},"Ź":{"ha":1206,"x_min":0,"x_max":0,"o":"m 658 -14 b 354 154 546 61 501 188 b 93 -75 275 79 189 1 b -110 79 -11 -76 -121 24 b 889 799 243 221 511 582 b 301 706 725 789 536 756 b 413 967 279 758 297 856 b 1114 925 672 976 908 967 b 1325 996 1178 956 1267 982 b 1363 739 1381 921 1392 829 b 1147 790 1292 764 1221 781 b 475 269 881 668 690 479 b 842 154 606 265 696 193 b 1199 418 949 122 1108 213 l 1294 356 b 658 -14 1154 22 796 -108 m 722 1076 b 989 1315 814 1132 925 1217 b 1089 1142 1076 1336 1118 1236 b 736 972 1004 1053 849 996 b 722 1076 700 979 703 1042 "},"Ž":{"ha":1206,"x_min":0,"x_max":0,"o":"m 658 -14 b 354 154 546 61 501 188 b 93 -75 275 79 189 1 b -110 79 -11 -76 -121 24 b 889 799 243 221 511 582 b 301 706 725 789 536 756 b 413 967 279 758 297 856 b 1114 925 672 976 908 967 b 1325 996 1178 956 1267 982 b 1363 739 1381 921 1392 829 b 1147 790 1292 764 1221 781 b 475 269 881 668 690 479 b 842 154 606 265 696 193 b 1199 418 949 122 1108 213 l 1294 356 b 658 -14 1154 22 796 -108 m 650 1174 b 771 1283 667 1215 711 1274 b 849 1124 785 1250 814 1190 b 1024 1285 888 1163 949 1219 b 1096 1153 1054 1264 1097 1213 b 892 958 1011 1096 938 1025 b 774 1008 847 965 788 981 b 650 1174 771 1053 754 1076 "},"Ż":{"ha":1206,"x_min":0,"x_max":0,"o":"m 658 -14 b 354 154 546 61 501 188 b 93 -75 275 79 189 1 b -110 79 -11 -76 -121 24 b 889 799 243 221 511 582 b 301 706 725 789 536 756 b 413 967 279 758 297 856 b 1114 925 672 976 908 967 b 1325 996 1178 956 1267 982 b 1363 739 1381 921 1392 829 b 1147 790 1292 764 1221 781 b 475 269 881 668 690 479 b 842 154 606 265 696 193 b 1199 418 949 122 1108 213 l 1294 356 b 658 -14 1154 22 796 -108 m 732 1140 b 913 1289 746 1160 826 1197 b 1076 1178 915 1282 972 1200 b 863 983 1032 1117 946 1026 b 732 1140 818 1021 757 1083 "},"Ẓ":{"ha":1206,"x_min":0,"x_max":0,"o":"m 658 -14 b 354 154 546 61 501 188 b 93 -75 275 79 189 1 b -110 79 -11 -76 -121 24 b 889 799 243 221 511 582 b 301 706 725 789 536 756 b 413 967 279 758 297 856 b 1114 925 672 976 908 967 b 1325 996 1178 956 1267 982 b 1363 739 1381 921 1392 829 b 1147 790 1292 764 1221 781 b 475 269 881 668 690 479 b 842 154 606 265 696 193 b 1199 418 949 122 1108 213 l 1294 356 b 658 -14 1154 22 796 -108 m 174 -225 b 354 -76 188 -206 268 -168 b 518 -187 357 -83 414 -165 b 304 -382 474 -249 388 -339 b 174 -225 260 -346 199 -282 "},"Ẕ":{"ha":1206,"x_min":0,"x_max":0,"o":"m 658 -14 b 354 154 546 61 501 188 b 93 -75 275 79 189 1 b -110 79 -11 -76 -121 24 b 889 799 243 221 511 582 b 301 706 725 789 536 756 b 413 967 279 758 297 856 b 1114 925 672 976 908 967 b 1325 996 1178 956 1267 982 b 1363 739 1381 921 1392 829 b 1147 790 1292 764 1221 781 b 475 269 881 668 690 479 b 842 154 606 265 696 193 b 1199 418 949 122 1108 213 l 1294 356 b 658 -14 1154 22 796 -108 m 128 -218 b 178 -101 119 -187 151 -132 b 549 -99 314 -114 460 -119 b 539 -268 603 -133 563 -236 b 128 -218 344 -310 122 -221 "},"a":{"ha":863,"x_min":0,"x_max":0,"o":"m 143 -6 b 4 426 -114 -79 -196 182 b 431 478 151 607 356 603 b 465 525 442 494 453 510 b 640 410 493 525 631 464 b 574 161 565 244 535 199 b 857 418 613 124 753 199 l 951 356 b 542 -6 903 229 751 -10 b 365 144 449 -1 389 58 b 143 -6 294 71 217 17 m 165 147 b 368 333 224 161 301 244 l 375 360 b 199 361 361 440 306 481 b 165 147 64 214 67 118 "},"á":{"ha":863,"x_min":0,"x_max":0,"o":"m 143 -6 b 4 426 -114 -79 -196 182 b 431 478 151 607 356 603 b 465 525 442 494 453 510 b 640 410 493 525 631 464 b 574 161 565 244 535 199 b 857 418 613 124 753 199 l 951 356 b 542 -6 903 229 751 -10 b 365 144 449 -1 389 58 b 143 -6 294 71 217 17 m 165 147 b 368 333 224 161 301 244 l 375 360 b 199 361 361 440 306 481 b 165 147 64 214 67 118 m 268 726 b 535 965 360 782 471 867 b 635 792 622 986 664 886 b 282 622 550 703 394 646 b 268 726 246 629 249 692 "},"ă":{"ha":863,"x_min":0,"x_max":0,"o":"m 143 -6 b 4 426 -114 -79 -196 182 b 431 478 151 607 356 603 b 465 525 442 494 453 510 b 640 410 493 525 631 464 b 574 161 565 244 535 199 b 857 418 613 124 753 199 l 951 356 b 542 -6 903 229 751 -10 b 365 144 449 -1 389 58 b 143 -6 294 71 217 17 m 165 147 b 368 333 224 161 301 244 l 375 360 b 199 361 361 440 306 481 b 165 147 64 214 67 118 m 172 814 b 400 836 261 908 396 894 b 547 849 392 713 471 699 b 685 806 621 892 703 860 b 172 814 565 579 214 550 "},"ắ":{"ha":863,"x_min":0,"x_max":0,"o":"m 143 -6 b 4 426 -114 -79 -196 182 b 431 478 151 607 356 603 b 465 525 442 494 453 510 b 640 410 493 525 631 464 b 574 161 565 244 535 199 b 857 418 613 124 753 199 l 951 356 b 542 -6 903 229 751 -10 b 365 144 449 -1 389 58 b 143 -6 294 71 217 17 m 165 147 b 368 333 224 161 301 244 l 375 360 b 199 361 361 440 306 481 b 165 147 64 214 67 118 m 175 813 b 338 881 225 865 289 885 b 344 968 325 903 331 943 b 611 1207 436 1024 547 1108 b 711 1033 699 1228 740 1128 b 379 868 632 950 489 894 b 403 835 393 861 401 849 b 550 847 394 711 474 697 b 688 804 624 890 706 858 b 175 813 568 578 217 549 "},"ặ":{"ha":863,"x_min":0,"x_max":0,"o":"m 143 -6 b 4 426 -114 -79 -196 182 b 431 478 151 607 356 603 b 465 525 442 494 453 510 b 640 410 493 525 631 464 b 574 161 565 244 535 199 b 857 418 613 124 753 199 l 951 356 b 542 -6 903 229 751 -10 b 365 144 449 -1 389 58 b 143 -6 294 71 217 17 m 28 -161 b 208 -12 42 -142 122 -104 b 372 -124 211 -19 268 -101 b 158 -318 328 -185 242 -275 b 28 -161 114 -282 53 -218 m 165 147 b 368 333 224 161 301 244 l 375 360 b 199 361 361 440 306 481 b 165 147 64 214 67 118 m 172 814 b 400 836 261 908 396 894 b 547 849 392 713 471 699 b 685 806 621 892 703 860 b 172 814 565 579 214 550 "},"ằ":{"ha":863,"x_min":0,"x_max":0,"o":"m 143 -6 b 4 426 -114 -79 -196 182 b 431 478 151 607 356 603 b 465 525 442 494 453 510 b 640 410 493 525 631 464 b 574 161 565 244 535 199 b 857 418 613 124 753 199 l 951 356 b 542 -6 903 229 751 -10 b 365 144 449 -1 389 58 b 143 -6 294 71 217 17 m 165 147 b 368 333 224 161 301 244 l 375 360 b 199 361 361 440 306 481 b 165 147 64 214 67 118 m 179 813 b 407 835 268 907 403 893 b 554 847 399 711 478 697 b 692 804 628 890 710 858 b 179 813 572 578 221 549 m 343 990 b 514 1140 353 1067 436 1154 b 683 965 536 1065 615 1004 b 640 876 693 939 672 883 b 343 990 532 885 396 921 "},"ẳ":{"ha":863,"x_min":0,"x_max":0,"o":"m 143 -6 b 4 426 -114 -79 -196 182 b 431 478 151 607 356 603 b 465 525 442 494 453 510 b 640 410 493 525 631 464 b 574 161 565 244 535 199 b 857 418 613 124 753 199 l 951 356 b 542 -6 903 229 751 -10 b 365 144 449 -1 389 58 b 143 -6 294 71 217 17 m 165 147 b 368 333 224 161 301 244 l 375 360 b 199 361 361 440 306 481 b 165 147 64 214 67 118 m 194 811 b 396 868 260 881 351 892 l 390 879 b 636 1106 610 951 664 1071 b 538 1108 608 1139 565 1122 b 507 1178 511 1115 494 1143 b 831 1231 624 1281 761 1308 b 426 810 911 1132 807 921 l 422 819 b 569 846 421 708 496 701 b 707 803 643 889 725 857 b 194 811 588 576 236 547 "},"ẵ":{"ha":863,"x_min":0,"x_max":0,"o":"m 143 -6 b 4 426 -114 -79 -196 182 b 431 478 151 607 356 603 b 465 525 442 494 453 510 b 640 410 493 525 631 464 b 574 161 565 244 535 199 b 857 418 613 124 753 199 l 951 356 b 542 -6 903 229 751 -10 b 365 144 449 -1 389 58 b 143 -6 294 71 217 17 m 165 147 b 368 333 224 161 301 244 l 375 360 b 199 361 361 440 306 481 b 165 147 64 214 67 118 m 175 824 b 403 846 264 918 399 904 b 550 858 394 722 474 708 b 688 815 624 901 706 869 b 175 824 568 589 217 560 m 267 1049 b 554 1053 554 1307 526 1042 b 615 1128 593 1068 610 1100 b 782 1046 688 1163 806 1154 b 500 903 682 928 543 892 b 446 1024 449 913 451 1024 b 394 906 429 1022 394 950 b 267 1049 304 867 250 990 "},"ǎ":{"ha":863,"x_min":0,"x_max":0,"o":"m 143 -6 b 4 426 -114 -79 -196 182 b 431 478 151 607 356 603 b 465 525 442 494 453 510 b 640 410 493 525 631 464 b 574 161 565 244 535 199 b 857 418 613 124 753 199 l 951 356 b 542 -6 903 229 751 -10 b 365 144 449 -1 389 58 b 143 -6 294 71 217 17 m 165 147 b 368 333 224 161 301 244 l 375 360 b 199 361 361 440 306 481 b 165 147 64 214 67 118 m 196 824 b 317 933 213 865 257 924 b 394 774 331 900 360 840 b 569 935 433 813 494 869 b 642 803 600 914 643 863 b 438 608 557 746 483 675 b 319 658 393 615 333 631 b 196 824 317 703 300 726 "},"â":{"ha":863,"x_min":0,"x_max":0,"o":"m 143 -6 b 4 426 -114 -79 -196 182 b 431 478 151 607 356 603 b 465 525 442 494 453 510 b 640 410 493 525 631 464 b 574 161 565 244 535 199 b 857 418 613 124 753 199 l 951 356 b 542 -6 903 229 751 -10 b 365 144 449 -1 389 58 b 143 -6 294 71 217 17 m 165 147 b 368 333 224 161 301 244 l 375 360 b 199 361 361 440 306 481 b 165 147 64 214 67 118 m 199 714 b 401 908 282 771 356 842 b 521 858 446 901 507 886 b 643 694 521 814 538 790 b 522 583 625 651 579 593 b 447 743 508 617 479 678 b 269 582 407 704 344 647 b 199 714 238 604 194 654 "},"ấ":{"ha":863,"x_min":0,"x_max":0,"o":"m 143 -6 b 4 426 -114 -79 -196 182 b 431 478 151 607 356 603 b 465 525 442 494 453 510 b 640 410 493 525 631 464 b 574 161 565 244 535 199 b 857 418 613 124 753 199 l 951 356 b 542 -6 903 229 751 -10 b 365 144 449 -1 389 58 b 143 -6 294 71 217 17 m 165 147 b 368 333 224 161 301 244 l 375 360 b 199 361 361 440 306 481 b 165 147 64 214 67 118 m 171 700 b 361 876 247 751 315 815 b 353 979 331 889 335 946 b 619 1218 444 1035 556 1119 b 719 1044 707 1239 749 1139 b 414 886 646 968 519 914 b 493 844 449 878 483 864 b 615 681 493 800 510 776 b 494 569 597 638 551 579 b 419 729 481 603 451 664 b 242 568 379 690 317 633 b 171 700 210 590 167 640 "},"ậ":{"ha":863,"x_min":0,"x_max":0,"o":"m 143 -6 b 4 426 -114 -79 -196 182 b 431 478 151 607 356 603 b 465 525 442 494 453 510 b 640 410 493 525 631 464 b 574 161 565 244 535 199 b 857 418 613 124 753 199 l 951 356 b 542 -6 903 229 751 -10 b 365 144 449 -1 389 58 b 143 -6 294 71 217 17 m 28 -161 b 208 -12 42 -142 122 -104 b 372 -124 211 -19 268 -101 b 158 -318 328 -185 242 -275 b 28 -161 114 -282 53 -218 m 165 147 b 368 333 224 161 301 244 l 375 360 b 199 361 361 440 306 481 b 165 147 64 214 67 118 m 199 714 b 401 908 282 771 356 842 b 521 858 446 901 507 886 b 643 694 521 814 538 790 b 522 583 625 651 579 593 b 447 743 508 617 479 678 b 269 582 407 704 344 647 b 199 714 238 604 194 654 "},"ầ":{"ha":863,"x_min":0,"x_max":0,"o":"m 143 -6 b 4 426 -114 -79 -196 182 b 431 478 151 607 356 603 b 465 525 442 494 453 510 b 640 410 493 525 631 464 b 574 161 565 244 535 199 b 857 418 613 124 753 199 l 951 356 b 542 -6 903 229 751 -10 b 365 144 449 -1 389 58 b 143 -6 294 71 217 17 m 165 147 b 368 333 224 161 301 244 l 375 360 b 199 361 361 440 306 481 b 165 147 64 214 67 118 m 181 719 b 383 914 264 776 338 847 b 503 864 428 907 489 892 b 625 700 503 819 519 796 b 504 589 607 657 561 599 b 429 749 490 622 461 683 b 251 588 389 710 326 653 b 181 719 219 610 176 660 m 357 1021 b 528 1171 367 1097 450 1185 b 697 996 550 1096 629 1035 b 654 907 707 969 686 914 b 357 1021 546 915 410 951 "},"ẩ":{"ha":863,"x_min":0,"x_max":0,"o":"m 143 -6 b 4 426 -114 -79 -196 182 b 431 478 151 607 356 603 b 465 525 442 494 453 510 b 640 410 493 525 631 464 b 574 161 565 244 535 199 b 857 418 613 124 753 199 l 951 356 b 542 -6 903 229 751 -10 b 365 144 449 -1 389 58 b 143 -6 294 71 217 17 m 165 147 b 368 333 224 161 301 244 l 375 360 b 199 361 361 440 306 481 b 165 147 64 214 67 118 m 204 733 b 389 903 278 783 343 843 l 379 900 l 343 969 b 589 1196 563 1042 617 1161 b 490 1199 561 1229 518 1213 b 460 1268 464 1206 447 1233 b 783 1321 576 1371 714 1399 b 443 921 860 1228 771 1036 b 526 878 479 913 517 899 b 649 714 526 833 543 810 b 528 603 631 671 585 613 b 453 763 514 636 485 697 b 275 601 413 724 350 667 b 204 733 243 624 200 674 "},"ẫ":{"ha":863,"x_min":0,"x_max":0,"o":"m 143 -6 b 4 426 -114 -79 -196 182 b 431 478 151 607 356 603 b 465 525 442 494 453 510 b 640 410 493 525 631 464 b 574 161 565 244 535 199 b 857 418 613 124 753 199 l 951 356 b 542 -6 903 229 751 -10 b 365 144 449 -1 389 58 b 143 -6 294 71 217 17 m 165 147 b 368 333 224 161 301 244 l 375 360 b 199 361 361 440 306 481 b 165 147 64 214 67 118 m 199 744 b 401 939 282 801 356 872 b 521 889 446 932 507 917 b 643 725 521 844 538 821 b 522 614 625 682 579 624 b 447 774 508 647 479 708 b 269 613 407 735 344 678 b 199 744 238 635 194 685 m 303 1093 b 590 1097 590 1351 563 1086 b 651 1172 629 1113 646 1144 b 818 1090 724 1207 842 1199 b 536 947 718 972 579 936 b 482 1068 485 957 488 1068 b 431 950 465 1067 431 994 b 303 1093 340 911 286 1035 "},"ä":{"ha":863,"x_min":0,"x_max":0,"o":"m 143 -6 b 4 426 -114 -79 -196 182 b 431 478 151 607 356 603 b 465 525 442 494 453 510 b 640 410 493 525 631 464 b 574 161 565 244 535 199 b 857 418 613 124 753 199 l 951 356 b 542 -6 903 229 751 -10 b 365 144 449 -1 389 58 b 143 -6 294 71 217 17 m 158 763 b 339 911 172 782 254 822 b 433 826 340 904 374 860 b 556 931 467 850 510 883 b 719 819 558 924 615 842 b 506 625 674 758 588 668 b 422 707 483 640 450 672 b 289 606 386 672 340 632 b 158 763 244 643 182 706 m 165 147 b 368 333 224 161 301 244 l 375 360 b 199 361 361 440 306 481 b 165 147 64 214 67 118 "},"ǟ":{"ha":863,"x_min":0,"x_max":0,"o":"m 143 -6 b 4 426 -114 -79 -196 182 b 431 478 151 607 356 603 b 465 525 442 494 453 510 b 640 410 493 525 631 464 b 574 161 565 244 535 199 b 857 418 613 124 753 199 l 951 356 b 542 -6 903 229 751 -10 b 365 144 449 -1 389 58 b 143 -6 294 71 217 17 m 158 763 b 339 911 172 782 254 822 b 433 826 340 904 374 860 b 539 914 463 847 499 875 b 272 975 393 921 268 972 b 322 1092 264 1006 296 1060 b 693 1093 458 1079 604 1074 b 683 924 747 1058 707 956 b 568 913 646 915 607 913 b 719 819 590 885 642 836 b 506 625 674 758 588 668 b 422 707 483 640 450 672 b 289 606 386 672 340 632 b 158 763 244 643 182 706 m 165 147 b 368 333 224 161 301 244 l 375 360 b 199 361 361 440 306 481 b 165 147 64 214 67 118 "},"ạ":{"ha":863,"x_min":0,"x_max":0,"o":"m 143 -6 b 4 426 -114 -79 -196 182 b 431 478 151 607 356 603 b 465 525 442 494 453 510 b 640 410 493 525 631 464 b 574 161 565 244 535 199 b 857 418 613 124 753 199 l 951 356 b 542 -6 903 229 751 -10 b 365 144 449 -1 389 58 b 143 -6 294 71 217 17 m 28 -161 b 208 -12 42 -142 122 -104 b 372 -124 211 -19 268 -101 b 158 -318 328 -185 242 -275 b 28 -161 114 -282 53 -218 m 165 147 b 368 333 224 161 301 244 l 375 360 b 199 361 361 440 306 481 b 165 147 64 214 67 118 "},"à":{"ha":863,"x_min":0,"x_max":0,"o":"m 143 -6 b 4 426 -114 -79 -196 182 b 431 478 151 607 356 603 b 465 525 442 494 453 510 b 640 410 493 525 631 464 b 574 161 565 244 535 199 b 857 418 613 124 753 199 l 951 356 b 542 -6 903 229 751 -10 b 365 144 449 -1 389 58 b 143 -6 294 71 217 17 m 165 147 b 368 333 224 161 301 244 l 375 360 b 199 361 361 440 306 481 b 165 147 64 214 67 118 m 263 749 b 433 899 272 825 356 913 b 603 724 456 824 535 763 b 560 635 613 697 592 642 b 263 749 451 643 315 679 "},"ả":{"ha":863,"x_min":0,"x_max":0,"o":"m 143 -6 b 4 426 -114 -79 -196 182 b 431 478 151 607 356 603 b 465 525 442 494 453 510 b 640 410 493 525 631 464 b 574 161 565 244 535 199 b 857 418 613 124 753 199 l 951 356 b 542 -6 903 229 751 -10 b 365 144 449 -1 389 58 b 143 -6 294 71 217 17 m 165 147 b 368 333 224 161 301 244 l 375 360 b 199 361 361 440 306 481 b 165 147 64 214 67 118 m 225 683 b 471 910 444 756 499 875 b 372 913 443 943 400 926 b 342 982 346 919 329 947 b 665 1035 458 1085 596 1113 b 261 614 746 936 642 725 l 225 683 "},"ā":{"ha":863,"x_min":0,"x_max":0,"o":"m 143 -6 b 4 426 -114 -79 -196 182 b 431 478 151 607 356 603 b 465 525 442 494 453 510 b 640 410 493 525 631 464 b 574 161 565 244 535 199 b 857 418 613 124 753 199 l 951 356 b 542 -6 903 229 751 -10 b 365 144 449 -1 389 58 b 143 -6 294 71 217 17 m 165 147 b 368 333 224 161 301 244 l 375 360 b 199 361 361 440 306 481 b 165 147 64 214 67 118 m 171 693 b 221 810 163 724 194 778 b 592 811 357 797 503 792 b 582 642 646 776 606 674 b 171 693 388 600 165 689 "},"ą":{"ha":863,"x_min":0,"x_max":0,"o":"m 143 -6 b 4 426 -114 -79 -196 182 b 431 478 151 607 356 603 b 465 525 442 494 453 510 b 640 410 493 525 631 464 b 574 161 565 244 535 199 b 857 418 613 124 753 199 l 951 356 b 560 -6 904 233 760 4 b 406 -194 417 -76 382 -165 b 504 -197 433 -228 476 -211 b 535 -267 531 -204 547 -232 b 211 -319 419 -369 281 -397 b 435 32 146 -239 203 -82 b 365 144 401 58 378 97 b 143 -6 294 71 217 17 m 165 147 b 368 333 224 161 301 244 l 375 360 b 199 361 361 440 306 481 b 165 147 64 214 67 118 "},"å":{"ha":863,"x_min":0,"x_max":0,"o":"m 143 -6 b 4 426 -114 -79 -196 182 b 431 478 151 607 356 603 b 465 525 442 494 453 510 b 640 410 493 525 631 464 b 574 161 565 244 535 199 b 857 418 613 124 753 199 l 951 356 b 542 -6 903 229 751 -10 b 365 144 449 -1 389 58 b 143 -6 294 71 217 17 m 165 147 b 368 333 224 161 301 244 l 375 360 b 199 361 361 440 306 481 b 165 147 64 214 67 118 m 428 642 b 531 951 85 574 222 881 b 428 642 861 1024 750 706 m 431 740 b 497 843 490 747 590 851 b 431 740 396 833 367 733 "},"ã":{"ha":863,"x_min":0,"x_max":0,"o":"m 143 -6 b 4 426 -114 -79 -196 182 b 431 478 151 607 356 603 b 465 525 442 494 453 510 b 640 410 493 525 631 464 b 574 161 565 244 535 199 b 857 418 613 124 753 199 l 951 356 b 542 -6 903 229 751 -10 b 365 144 449 -1 389 58 b 143 -6 294 71 217 17 m 165 147 b 368 333 224 161 301 244 l 375 360 b 199 361 361 440 306 481 b 165 147 64 214 67 118 m 190 796 b 478 800 478 1054 450 789 b 539 875 517 815 533 847 b 706 793 611 910 729 901 b 424 650 606 675 467 639 b 369 771 372 660 375 771 b 318 653 353 769 318 697 b 190 796 228 614 174 738 "},"æ":{"ha":1135,"x_min":0,"x_max":0,"o":"m 143 -6 b 4 426 -114 -79 -196 182 b 447 444 164 622 390 601 b 806 565 557 575 703 596 b 725 218 974 511 1014 308 b 556 174 682 207 619 189 b 782 131 575 114 657 90 b 1135 428 907 169 1081 300 l 1231 368 b 842 25 1210 292 1026 104 b 361 139 638 -64 418 -4 b 143 -6 290 68 215 17 m 165 147 b 378 346 226 163 310 253 b 199 361 367 435 313 488 b 165 147 64 214 67 118 m 571 282 b 667 318 607 294 639 307 b 761 449 800 376 817 439 b 636 374 729 453 693 438 b 571 282 607 342 585 311 "},"ǣ":{"ha":1135,"x_min":0,"x_max":0,"o":"m 143 -6 b 4 426 -114 -79 -196 182 b 447 444 164 622 390 601 b 806 565 557 575 703 596 b 725 218 974 511 1014 308 b 556 174 682 207 619 189 b 782 131 575 114 657 90 b 1135 428 907 169 1081 300 l 1231 368 b 842 25 1210 292 1026 104 b 361 139 638 -64 418 -4 b 143 -6 290 68 215 17 m 165 147 b 378 346 226 163 310 253 b 199 361 367 435 313 488 b 165 147 64 214 67 118 m 171 693 b 221 810 163 724 194 778 b 592 811 357 797 503 792 b 582 642 646 776 606 674 b 171 693 388 600 165 689 m 571 282 b 667 318 607 294 639 307 b 761 449 800 376 817 439 b 636 374 729 453 693 438 b 571 282 607 342 585 311 "},"b":{"ha":693,"x_min":0,"x_max":0,"o":"m 158 -6 b 321 1025 -233 43 25 689 b 519 885 390 1032 517 931 b 153 149 142 456 54 197 b 347 278 210 121 300 181 b 275 339 322 290 292 317 b 501 501 211 522 401 692 b 522 357 518 468 524 413 b 686 417 589 344 663 353 l 781 356 b 494 243 750 253 617 226 b 158 -6 438 122 338 -28 "},"ḅ":{"ha":693,"x_min":0,"x_max":0,"o":"m 158 -6 b 321 1025 -233 43 25 689 b 519 885 390 1032 517 931 b 153 149 142 456 54 197 b 347 278 210 121 300 181 b 275 339 322 290 292 317 b 501 501 211 522 401 692 b 522 357 518 468 524 413 b 686 417 589 344 663 353 l 781 356 b 494 243 750 253 617 226 b 158 -6 438 122 338 -28 m -25 -225 b 156 -76 -11 -206 69 -168 b 319 -187 158 -83 215 -165 b 106 -382 275 -249 189 -339 b -25 -225 61 -346 0 -282 "},"c":{"ha":711,"x_min":0,"x_max":0,"o":"m 411 25 b 10 439 93 -114 -260 108 b 375 563 122 575 271 600 b 418 282 501 522 536 367 b 271 379 336 271 274 296 b 343 456 354 394 381 447 b 206 374 313 461 261 438 b 350 131 44 199 122 57 b 704 417 478 169 650 289 l 800 357 b 411 25 778 279 594 104 "},"ć":{"ha":711,"x_min":0,"x_max":0,"o":"m 411 25 b 10 439 93 -114 -260 108 b 375 563 122 575 271 600 b 418 282 501 522 536 367 b 271 379 336 271 274 296 b 343 456 354 394 381 447 b 206 374 313 461 261 438 b 350 131 44 199 122 57 b 704 417 478 169 650 289 l 800 357 b 411 25 778 279 594 104 m 199 693 b 465 932 290 749 401 833 b 565 758 553 953 594 853 b 213 589 481 669 325 613 b 199 693 176 596 179 658 "},"č":{"ha":711,"x_min":0,"x_max":0,"o":"m 411 25 b 10 439 93 -114 -260 108 b 375 563 122 575 271 600 b 418 282 501 522 536 367 b 271 379 336 271 274 296 b 343 456 354 394 381 447 b 206 374 313 461 261 438 b 350 131 44 199 122 57 b 704 417 478 169 650 289 l 800 357 b 411 25 778 279 594 104 m 126 790 b 247 900 143 832 188 890 b 325 740 261 867 290 807 b 500 901 364 779 425 836 b 572 769 531 881 574 829 b 368 575 488 713 414 642 b 250 625 324 582 264 597 b 126 790 247 669 231 693 "},"ç":{"ha":711,"x_min":0,"x_max":0,"o":"m 411 25 b 200 -17 340 -6 267 -19 l 175 -37 b 290 -303 324 -68 376 -199 b -146 -333 197 -414 -33 -433 b -100 -256 -149 -310 -133 -271 b 96 -221 -25 -290 51 -276 b -49 -132 139 -164 101 -110 l 1 -46 l 81 6 b 10 439 -82 63 -161 229 b 375 563 122 575 271 600 b 418 282 501 522 536 367 b 271 379 336 271 274 296 b 343 456 354 394 381 447 b 206 374 313 461 261 438 b 350 131 44 199 122 57 b 704 417 478 169 650 289 l 800 357 b 411 25 778 279 594 104 "},"ĉ":{"ha":711,"x_min":0,"x_max":0,"o":"m 411 25 b 10 439 93 -114 -260 108 b 183 563 63 503 124 542 b 129 681 156 588 126 631 b 332 875 213 738 286 808 b 451 825 376 868 438 853 b 574 661 451 781 468 757 b 453 550 556 618 510 560 b 378 710 439 583 410 644 b 228 574 343 676 290 628 b 375 563 281 583 332 578 b 418 282 501 522 536 367 b 271 379 336 271 274 296 b 343 456 354 394 381 447 b 206 374 313 461 261 438 b 350 131 44 199 122 57 b 704 417 478 169 650 289 l 800 357 b 411 25 778 279 594 104 "},"ċ":{"ha":711,"x_min":0,"x_max":0,"o":"m 411 25 b 10 439 93 -114 -260 108 b 375 563 122 575 271 600 b 418 282 501 522 536 367 b 271 379 336 271 274 296 b 343 456 354 394 381 447 b 206 374 313 461 261 438 b 350 131 44 199 122 57 b 704 417 478 169 650 289 l 800 357 b 411 25 778 279 594 104 m 208 757 b 389 906 222 776 303 814 b 553 794 392 899 449 817 b 339 600 508 733 422 643 b 208 757 294 638 233 700 "},"d":{"ha":865,"x_min":0,"x_max":0,"o":"m 146 -6 b 6 426 -110 -78 -196 178 b 432 479 153 606 356 603 b 778 1058 501 678 629 897 b 953 942 810 1058 946 993 b 547 149 557 401 481 188 b 860 418 599 119 757 199 l 954 356 b 543 -6 906 229 754 -6 b 378 153 440 -6 389 57 b 146 -6 303 75 222 18 m 169 147 b 379 344 229 163 311 251 b 201 361 369 435 314 488 b 169 147 67 214 69 118 "},"ð":{"ha":654,"x_min":0,"x_max":0,"o":"m 267 49 b 89 -62 206 -14 139 -56 b -54 322 -17 -78 -171 107 b 257 603 35 485 169 565 b 282 600 265 603 274 603 b 272 643 279 614 276 628 b 133 594 193 610 133 593 b 111 707 104 613 104 669 b 217 763 146 725 182 742 b 158 829 201 785 181 808 b 253 931 132 881 254 949 b 339 831 286 899 314 865 b 485 933 399 868 449 903 b 571 811 554 914 575 851 b 411 707 524 772 465 736 b 376 222 481 546 461 388 b 647 418 460 222 579 265 l 742 356 b 279 65 667 157 435 69 l 267 49 m 136 172 b 286 486 189 175 274 317 b 136 172 47 356 50 168 "},"ď":{"ha":865,"x_min":0,"x_max":0,"o":"m 146 -6 b 6 426 -110 -78 -196 178 b 432 479 153 606 356 603 b 778 1058 501 678 629 897 b 953 942 810 1058 946 993 b 547 149 557 401 481 188 b 860 418 599 119 757 199 l 954 356 b 543 -6 906 229 754 -6 b 378 153 440 -6 389 57 b 146 -6 303 75 222 18 m 169 147 b 379 344 229 163 311 251 b 201 361 369 435 314 488 b 169 147 67 214 69 118 m 965 1000 b 1249 990 1021 1042 1140 1101 b 1107 663 1194 968 1093 769 b 979 636 1085 629 1013 625 b 965 1000 972 635 919 806 "},"đ":{"ha":865,"x_min":0,"x_max":0,"o":"m 146 -6 b 6 426 -110 -78 -196 178 b 432 479 153 606 356 603 b 513 668 454 542 481 604 b 321 603 447 657 381 636 b 428 857 299 703 369 807 b 639 882 500 872 571 881 b 778 1058 682 944 729 1004 b 953 942 810 1058 946 993 l 883 844 b 904 835 890 842 897 839 b 851 649 906 747 889 708 b 763 671 829 657 799 665 b 547 149 533 328 493 181 b 860 418 599 119 757 199 l 954 356 b 543 -6 906 229 754 -6 b 378 153 440 -6 389 57 b 146 -6 303 75 222 18 m 169 147 b 379 344 229 163 311 251 b 201 361 369 435 314 488 b 169 147 67 214 69 118 "},"ḍ":{"ha":865,"x_min":0,"x_max":0,"o":"m 146 -6 b 6 426 -110 -78 -196 178 b 432 479 153 606 356 603 b 778 1058 501 678 629 897 b 953 942 810 1058 946 993 b 547 149 557 401 481 188 b 860 418 599 119 757 199 l 954 356 b 543 -6 906 229 754 -6 b 378 153 440 -6 389 57 b 146 -6 303 75 222 18 m 61 -147 b 242 1 75 -128 156 -90 b 406 -110 244 -6 301 -87 b 192 -304 361 -171 275 -261 b 61 -147 147 -268 86 -204 m 169 147 b 379 344 229 163 311 251 b 201 361 369 435 314 488 b 169 147 67 214 69 118 "},"ḏ":{"ha":865,"x_min":0,"x_max":0,"o":"m 146 -6 b 6 426 -110 -78 -196 178 b 432 479 153 606 356 603 b 778 1058 501 678 629 897 b 953 942 810 1058 946 993 b 547 149 557 401 481 188 b 860 418 599 119 757 199 l 954 356 b 543 -6 906 229 754 -6 b 378 153 440 -6 389 57 b 146 -6 303 75 222 18 m 15 -140 b 65 -24 7 -110 39 -54 b 436 -21 201 -36 347 -42 b 426 -190 490 -56 450 -158 b 15 -140 232 -232 10 -143 m 169 147 b 379 344 229 163 311 251 b 201 361 369 435 314 488 b 169 147 67 214 69 118 "},"e":{"ha":715,"x_min":0,"x_max":0,"o":"m 415 25 b 15 439 99 -114 -254 108 b 379 565 126 575 275 596 b 299 218 547 511 588 308 b 129 174 256 207 193 189 b 356 131 149 114 231 90 b 708 428 481 169 654 300 l 804 368 b 415 25 783 292 600 104 m 144 282 b 240 318 181 294 213 307 b 335 449 374 376 390 439 b 210 374 303 453 267 438 b 144 282 181 342 158 311 "},"é":{"ha":715,"x_min":0,"x_max":0,"o":"m 415 25 b 15 439 99 -114 -254 108 b 379 565 126 575 275 596 b 299 218 547 511 588 308 b 129 174 256 207 193 189 b 356 131 149 114 231 90 b 708 428 481 169 654 300 l 804 368 b 415 25 783 292 600 104 m 144 282 b 240 318 181 294 213 307 b 335 449 374 376 390 439 b 210 374 303 453 267 438 b 144 282 181 342 158 311 m 253 733 b 519 972 344 789 456 874 b 619 799 607 993 649 893 b 267 629 535 710 379 653 b 253 733 231 636 233 699 "},"ě":{"ha":715,"x_min":0,"x_max":0,"o":"m 415 25 b 15 439 99 -114 -254 108 b 379 565 126 575 275 596 b 299 218 547 511 588 308 b 129 174 256 207 193 189 b 356 131 149 114 231 90 b 708 428 481 169 654 300 l 804 368 b 415 25 783 292 600 104 m 144 282 b 240 318 181 294 213 307 b 335 449 374 376 390 439 b 210 374 303 453 267 438 b 144 282 181 342 158 311 m 181 831 b 301 940 197 872 242 931 b 379 781 315 907 344 847 b 554 942 418 819 479 876 b 626 810 585 921 628 869 b 422 615 542 753 468 682 b 304 665 378 622 318 638 b 181 831 301 710 285 733 "},"ȩ":{"ha":715,"x_min":0,"x_max":0,"o":"m 415 25 b 172 -14 332 -11 247 -22 l 156 -28 b 271 -293 304 -58 357 -189 b -165 -324 178 -404 -53 -424 b -119 -246 -168 -300 -153 -261 b 76 -211 -44 -281 32 -267 b -68 -122 119 -154 82 -100 l -18 -36 l 61 15 b 15 439 -83 81 -147 240 b 379 565 126 575 275 596 b 299 218 547 511 588 308 b 129 174 256 207 193 189 b 356 131 149 114 231 90 b 708 428 481 169 654 300 l 804 368 b 415 25 783 292 600 104 m 144 282 b 240 318 181 294 213 307 b 335 449 374 376 390 439 b 210 374 303 453 267 438 b 144 282 181 342 158 311 "},"ê":{"ha":715,"x_min":0,"x_max":0,"o":"m 415 25 b 15 439 99 -114 -254 108 b 379 565 126 575 275 596 b 299 218 547 511 588 308 b 129 174 256 207 193 189 b 356 131 149 114 231 90 b 708 428 481 169 654 300 l 804 368 b 415 25 783 292 600 104 m 144 282 b 240 318 181 294 213 307 b 335 449 374 376 390 439 b 210 374 303 453 267 438 b 144 282 181 342 158 311 m 183 721 b 386 915 267 778 340 849 b 506 865 431 908 492 893 b 628 701 506 821 522 797 b 507 590 610 658 564 600 b 432 750 493 624 464 685 b 254 589 392 711 329 654 b 183 721 222 611 179 661 "},"ế":{"ha":715,"x_min":0,"x_max":0,"o":"m 415 25 b 15 439 99 -114 -254 108 b 379 565 126 575 275 596 b 299 218 547 511 588 308 b 129 174 256 207 193 189 b 356 131 149 114 231 90 b 708 428 481 169 654 300 l 804 368 b 415 25 783 292 600 104 m 144 282 b 240 318 181 294 213 307 b 335 449 374 376 390 439 b 210 374 303 453 267 438 b 144 282 181 342 158 311 m 156 707 b 346 883 232 758 300 822 b 338 986 315 896 319 953 b 604 1225 429 1042 540 1126 b 704 1051 692 1246 733 1146 b 399 893 631 975 504 921 b 478 851 433 885 468 871 b 600 688 478 807 494 783 b 479 576 582 644 536 586 b 404 736 465 610 436 671 b 226 575 364 697 301 640 b 156 707 194 597 151 647 "},"ệ":{"ha":715,"x_min":0,"x_max":0,"o":"m 415 25 b 15 439 99 -114 -254 108 b 379 565 126 575 275 596 b 299 218 547 511 588 308 b 129 174 256 207 193 189 b 356 131 149 114 231 90 b 708 428 481 169 654 300 l 804 368 b 415 25 783 292 600 104 m -64 -185 b 117 -36 -50 -165 31 -128 b 281 -147 119 -43 176 -125 b 67 -342 236 -208 150 -299 b -64 -185 22 -306 -39 -242 m 144 282 b 240 318 181 294 213 307 b 335 449 374 376 390 439 b 210 374 303 453 267 438 b 144 282 181 342 158 311 m 183 721 b 386 915 267 778 340 849 b 506 865 431 908 492 893 b 628 701 506 821 522 797 b 507 590 610 658 564 600 b 432 750 493 624 464 685 b 254 589 392 711 329 654 b 183 721 222 611 179 661 "},"ề":{"ha":715,"x_min":0,"x_max":0,"o":"m 415 25 b 15 439 99 -114 -254 108 b 379 565 126 575 275 596 b 299 218 547 511 588 308 b 129 174 256 207 193 189 b 356 131 149 114 231 90 b 708 428 481 169 654 300 l 804 368 b 415 25 783 292 600 104 m 144 282 b 240 318 181 294 213 307 b 335 449 374 376 390 439 b 210 374 303 453 267 438 b 144 282 181 342 158 311 m 165 726 b 368 921 249 783 322 854 b 488 871 413 914 474 899 b 610 707 488 826 504 803 b 489 596 592 664 546 606 b 414 756 475 629 446 690 b 236 594 374 717 311 660 b 165 726 204 617 161 667 m 342 1028 b 513 1178 351 1104 435 1192 b 682 1003 535 1103 614 1042 b 639 914 692 976 671 921 b 342 1028 531 922 394 958 "},"ể":{"ha":715,"x_min":0,"x_max":0,"o":"m 415 25 b 15 439 99 -114 -254 108 b 379 565 126 575 275 596 b 299 218 547 511 588 308 b 129 174 256 207 193 189 b 356 131 149 114 231 90 b 708 428 481 169 654 300 l 804 368 b 415 25 783 292 600 104 m 144 282 b 240 318 181 294 213 307 b 335 449 374 376 390 439 b 210 374 303 453 267 438 b 144 282 181 342 158 311 m 189 740 b 374 910 263 790 328 850 l 364 907 l 328 976 b 574 1203 547 1049 601 1168 b 475 1206 546 1236 503 1219 b 444 1275 449 1213 432 1240 b 768 1328 561 1378 699 1406 b 428 928 844 1235 756 1043 b 511 885 464 919 501 906 b 633 721 511 840 528 817 b 513 610 615 678 569 619 b 438 769 499 643 469 704 b 260 608 397 731 335 674 b 189 740 228 631 185 681 "},"ễ":{"ha":715,"x_min":0,"x_max":0,"o":"m 415 25 b 15 439 99 -114 -254 108 b 379 565 126 575 275 596 b 299 218 547 511 588 308 b 129 174 256 207 193 189 b 356 131 149 114 231 90 b 708 428 481 169 654 300 l 804 368 b 415 25 783 292 600 104 m 144 282 b 240 318 181 294 213 307 b 335 449 374 376 390 439 b 210 374 303 453 267 438 b 144 282 181 342 158 311 m 183 751 b 386 946 267 808 340 879 b 506 896 431 939 492 924 b 628 732 506 851 522 828 b 507 621 610 689 564 631 b 432 781 493 654 464 715 b 254 619 392 742 329 685 b 183 751 222 642 179 692 m 288 1100 b 575 1104 575 1358 547 1093 b 636 1179 614 1119 631 1151 b 803 1097 708 1214 826 1206 b 521 954 703 979 564 943 b 467 1075 469 964 472 1075 b 415 957 450 1074 415 1001 b 288 1100 325 918 271 1042 "},"ë":{"ha":715,"x_min":0,"x_max":0,"o":"m 415 25 b 15 439 99 -114 -254 108 b 379 565 126 575 275 596 b 299 218 547 511 588 308 b 129 174 256 207 193 189 b 356 131 149 114 231 90 b 708 428 481 169 654 300 l 804 368 b 415 25 783 292 600 104 m 143 769 b 324 918 157 789 239 829 b 418 833 325 911 358 867 b 540 938 451 857 494 890 b 704 826 543 931 600 849 b 490 632 658 765 572 675 b 407 714 468 647 435 679 b 274 613 371 679 325 639 b 143 769 229 650 167 713 m 144 282 b 240 318 181 294 213 307 b 335 449 374 376 390 439 b 210 374 303 453 267 438 b 144 282 181 342 158 311 "},"ė":{"ha":715,"x_min":0,"x_max":0,"o":"m 415 25 b 15 439 99 -114 -254 108 b 379 565 126 575 275 596 b 299 218 547 511 588 308 b 129 174 256 207 193 189 b 356 131 149 114 231 90 b 708 428 481 169 654 300 l 804 368 b 415 25 783 292 600 104 m 144 282 b 240 318 181 294 213 307 b 335 449 374 376 390 439 b 210 374 303 453 267 438 b 144 282 181 342 158 311 m 263 797 b 443 946 276 817 357 854 b 607 835 446 939 503 857 b 393 640 563 774 476 683 b 263 797 349 678 288 740 "},"ẹ":{"ha":715,"x_min":0,"x_max":0,"o":"m 415 25 b 15 439 99 -114 -254 108 b 379 565 126 575 275 596 b 299 218 547 511 588 308 b 129 174 256 207 193 189 b 356 131 149 114 231 90 b 708 428 481 169 654 300 l 804 368 b 415 25 783 292 600 104 m -64 -185 b 117 -36 -50 -165 31 -128 b 281 -147 119 -43 176 -125 b 67 -342 236 -208 150 -299 b -64 -185 22 -306 -39 -242 m 144 282 b 240 318 181 294 213 307 b 335 449 374 376 390 439 b 210 374 303 453 267 438 b 144 282 181 342 158 311 "},"è":{"ha":715,"x_min":0,"x_max":0,"o":"m 415 25 b 15 439 99 -114 -254 108 b 379 565 126 575 275 596 b 299 218 547 511 588 308 b 129 174 256 207 193 189 b 356 131 149 114 231 90 b 708 428 481 169 654 300 l 804 368 b 415 25 783 292 600 104 m 144 282 b 240 318 181 294 213 307 b 335 449 374 376 390 439 b 210 374 303 453 267 438 b 144 282 181 342 158 311 m 247 756 b 418 906 257 832 340 919 b 588 731 440 831 519 769 b 544 642 597 704 576 649 b 247 756 436 650 300 686 "},"ẻ":{"ha":715,"x_min":0,"x_max":0,"o":"m 415 25 b 15 439 99 -114 -254 108 b 379 565 126 575 275 596 b 299 218 547 511 588 308 b 129 174 256 207 193 189 b 356 131 149 114 231 90 b 708 428 481 169 654 300 l 804 368 b 415 25 783 292 600 104 m 144 282 b 240 318 181 294 213 307 b 335 449 374 376 390 439 b 210 374 303 453 267 438 b 144 282 181 342 158 311 m 210 690 b 456 917 429 763 483 882 b 357 919 428 950 385 933 b 326 989 331 926 314 954 b 650 1042 443 1092 581 1119 b 246 621 731 943 626 732 l 210 690 "},"ē":{"ha":715,"x_min":0,"x_max":0,"o":"m 415 25 b 15 439 99 -114 -254 108 b 379 565 126 575 275 596 b 299 218 547 511 588 308 b 129 174 256 207 193 189 b 356 131 149 114 231 90 b 708 428 481 169 654 300 l 804 368 b 415 25 783 292 600 104 m 144 282 b 240 318 181 294 213 307 b 335 449 374 376 390 439 b 210 374 303 453 267 438 b 144 282 181 342 158 311 m 156 700 b 206 817 147 731 179 785 b 576 818 342 804 488 799 b 567 649 631 783 590 681 b 156 700 372 607 150 696 "},"ę":{"ha":715,"x_min":0,"x_max":0,"o":"m 415 25 b 243 -17 358 0 299 -14 b 58 -219 75 -89 33 -189 b 157 -222 86 -253 129 -236 b 188 -292 183 -229 200 -257 b -136 -344 72 -394 -67 -422 b 85 6 -201 -264 -144 -110 b 15 439 -76 64 -156 229 b 379 565 126 575 275 596 b 299 218 547 511 588 308 b 129 174 256 207 193 189 b 356 131 149 114 231 90 b 708 428 481 169 654 300 l 804 368 b 415 25 783 292 600 104 m 144 282 b 240 318 181 294 213 307 b 335 449 374 376 390 439 b 210 374 303 453 267 438 b 144 282 181 342 158 311 "},"ẽ":{"ha":715,"x_min":0,"x_max":0,"o":"m 415 25 b 15 439 99 -114 -254 108 b 379 565 126 575 275 596 b 299 218 547 511 588 308 b 129 174 256 207 193 189 b 356 131 149 114 231 90 b 708 428 481 169 654 300 l 804 368 b 415 25 783 292 600 104 m 144 282 b 240 318 181 294 213 307 b 335 449 374 376 390 439 b 210 374 303 453 267 438 b 144 282 181 342 158 311 m 175 803 b 463 807 463 1061 435 796 b 524 882 501 822 518 854 b 690 800 596 917 714 908 b 408 657 590 682 451 646 b 354 778 357 667 360 778 b 303 660 338 776 303 704 b 175 803 213 621 158 744 "},"ə":{"ha":715,"x_min":0,"x_max":0,"o":"m 225 528 b 625 115 542 667 894 444 b 261 -11 514 -22 365 -43 b 342 336 93 42 53 244 b 511 379 385 346 447 364 b 285 424 492 439 411 464 b -68 126 160 385 -14 253 l -164 185 b 225 528 -143 261 40 450 m 306 106 b 431 179 338 101 374 115 b 496 269 460 211 482 242 b 400 235 461 257 429 246 b 306 106 267 178 250 114 "},"f":{"ha":522,"x_min":0,"x_max":0,"o":"m 51 -394 b 18 351 -183 -393 -126 -22 b -26 399 -11 374 -32 393 b 97 536 -29 492 33 536 b 394 1025 190 736 300 919 b 594 885 465 1031 592 931 b 251 394 463 738 344 563 b 517 417 314 354 478 315 l 611 356 b 276 251 575 239 408 219 b 51 -394 288 35 246 -394 m 44 -240 b 154 207 90 -262 154 -50 b 44 -240 43 -28 -6 -215 "},"g":{"ha":864,"x_min":0,"x_max":0,"o":"m 171 -292 b -212 -249 -29 -389 -182 -329 b -14 -4 -262 -114 -164 -26 b 6 426 -136 50 -144 243 b 433 478 154 607 358 603 b 468 525 443 493 456 510 b 642 410 492 525 632 464 b 579 275 617 351 593 308 b 486 72 569 251 538 168 b 586 108 519 82 553 94 b 858 418 696 153 793 282 l 953 356 b 704 42 919 265 828 121 b 397 -78 613 -19 504 -56 b 171 -292 335 -168 258 -251 m -35 -192 b 121 -172 -11 -224 56 -222 b 189 -106 144 -154 167 -132 b 60 -110 142 -108 97 -110 b -35 -192 -53 -111 -68 -147 m 167 147 b 369 335 225 161 303 244 l 376 358 b 201 361 363 440 308 481 b 167 147 64 213 71 118 m 179 7 b 274 19 210 10 242 14 b 311 92 288 43 300 68 b 179 7 268 54 224 25 "},"ğ":{"ha":864,"x_min":0,"x_max":0,"o":"m 171 -292 b -212 -249 -29 -389 -182 -329 b -14 -4 -262 -114 -164 -26 b 6 426 -136 50 -144 243 b 433 478 154 607 358 603 b 468 525 443 493 456 510 b 642 410 492 525 632 464 b 579 275 617 351 593 308 b 486 72 569 251 538 168 b 586 108 519 82 553 94 b 858 418 696 153 793 282 l 953 356 b 704 42 919 265 828 121 b 397 -78 613 -19 504 -56 b 171 -292 335 -168 258 -251 m -35 -192 b 121 -172 -11 -224 56 -222 b 189 -106 144 -154 167 -132 b 60 -110 142 -108 97 -110 b -35 -192 -53 -111 -68 -147 m 124 778 b 351 800 213 872 347 858 b 499 813 343 676 422 663 b 636 769 572 856 654 824 b 124 778 517 543 165 514 m 167 147 b 369 335 225 161 303 244 l 376 358 b 201 361 363 440 308 481 b 167 147 64 213 71 118 m 179 7 b 274 19 210 10 242 14 b 311 92 288 43 300 68 b 179 7 268 54 224 25 "},"ǧ":{"ha":864,"x_min":0,"x_max":0,"o":"m 171 -292 b -212 -249 -29 -389 -182 -329 b -14 -4 -262 -114 -164 -26 b 6 426 -136 50 -144 243 b 433 478 154 607 358 603 b 468 525 443 493 456 510 b 642 410 492 525 632 464 b 579 275 617 351 593 308 b 486 72 569 251 538 168 b 586 108 519 82 553 94 b 858 418 696 153 793 282 l 953 356 b 704 42 919 265 828 121 b 397 -78 613 -19 504 -56 b 171 -292 335 -168 258 -251 m -35 -192 b 121 -172 -11 -224 56 -222 b 189 -106 144 -154 167 -132 b 60 -110 142 -108 97 -110 b -35 -192 -53 -111 -68 -147 m 147 788 b 268 897 164 829 208 888 b 346 738 282 864 311 804 b 521 899 385 776 446 833 b 593 767 551 878 594 826 b 389 572 508 710 435 639 b 271 622 344 579 285 594 b 147 788 268 667 251 690 m 167 147 b 369 335 225 161 303 244 l 376 358 b 201 361 363 440 308 481 b 167 147 64 213 71 118 m 179 7 b 274 19 210 10 242 14 b 311 92 288 43 300 68 b 179 7 268 54 224 25 "},"ĝ":{"ha":864,"x_min":0,"x_max":0,"o":"m 171 -292 b -212 -249 -29 -389 -182 -329 b -14 -4 -262 -114 -164 -26 b 6 426 -136 50 -144 243 b 204 560 67 500 136 543 b 150 678 175 586 147 628 b 353 872 233 735 307 806 b 472 822 397 865 458 850 b 594 658 472 778 489 754 b 474 547 576 615 531 557 b 399 707 460 581 431 642 b 244 567 363 672 310 624 b 433 478 325 574 396 540 b 468 525 443 493 456 510 b 642 410 492 525 632 464 b 579 275 617 351 593 308 b 486 72 569 251 538 168 b 586 108 519 82 553 94 b 858 418 696 153 793 282 l 953 356 b 704 42 919 265 828 121 b 397 -78 613 -19 504 -56 b 171 -292 335 -168 258 -251 m -35 -192 b 121 -172 -11 -224 56 -222 b 189 -106 144 -154 167 -132 b 60 -110 142 -108 97 -110 b -35 -192 -53 -111 -68 -147 m 167 147 b 369 335 225 161 303 244 l 376 358 b 201 361 363 440 308 481 b 167 147 64 213 71 118 m 179 7 b 274 19 210 10 242 14 b 311 92 288 43 300 68 b 179 7 268 54 224 25 "},"ģ":{"ha":864,"x_min":0,"x_max":0,"o":"m 171 -292 b -212 -249 -29 -389 -182 -329 b -14 -4 -262 -114 -164 -26 b 6 426 -136 50 -144 243 b 294 565 96 535 206 578 b 213 689 261 600 228 644 b 532 989 265 815 415 926 b 579 900 556 974 589 938 b 468 803 531 865 494 832 b 535 729 493 783 518 758 b 363 544 511 676 453 600 b 433 478 392 529 415 507 b 468 525 443 493 456 510 b 642 410 492 525 632 464 b 579 275 617 351 593 308 b 486 72 569 251 538 168 b 586 108 519 82 553 94 b 858 418 696 153 793 282 l 953 356 b 704 42 919 265 828 121 b 397 -78 613 -19 504 -56 b 171 -292 335 -168 258 -251 m -35 -192 b 121 -172 -11 -224 56 -222 b 189 -106 144 -154 167 -132 b 60 -110 142 -108 97 -110 b -35 -192 -53 -111 -68 -147 m 167 147 b 369 335 225 161 303 244 l 376 358 b 201 361 363 440 308 481 b 167 147 64 213 71 118 m 179 7 b 274 19 210 10 242 14 b 311 92 288 43 300 68 b 179 7 268 54 224 25 "},"ġ":{"ha":864,"x_min":0,"x_max":0,"o":"m 171 -292 b -212 -249 -29 -389 -182 -329 b -14 -4 -262 -114 -164 -26 b 6 426 -136 50 -144 243 b 433 478 154 607 358 603 b 468 525 443 493 456 510 b 642 410 492 525 632 464 b 579 275 617 351 593 308 b 486 72 569 251 538 168 b 586 108 519 82 553 94 b 858 418 696 153 793 282 l 953 356 b 704 42 919 265 828 121 b 397 -78 613 -19 504 -56 b 171 -292 335 -168 258 -251 m -35 -192 b 121 -172 -11 -224 56 -222 b 189 -106 144 -154 167 -132 b 60 -110 142 -108 97 -110 b -35 -192 -53 -111 -68 -147 m 167 147 b 369 335 225 161 303 244 l 376 358 b 201 361 363 440 308 481 b 167 147 64 213 71 118 m 179 7 b 274 19 210 10 242 14 b 311 92 288 43 300 68 b 179 7 268 54 224 25 m 229 754 b 410 903 243 774 324 811 b 574 792 413 896 469 814 b 360 597 529 731 443 640 b 229 754 315 635 254 697 "},"ḡ":{"ha":864,"x_min":0,"x_max":0,"o":"m 171 -292 b -212 -249 -29 -389 -182 -329 b -14 -4 -262 -114 -164 -26 b 6 426 -136 50 -144 243 b 433 478 154 607 358 603 b 468 525 443 493 456 510 b 642 410 492 525 632 464 b 579 275 617 351 593 308 b 486 72 569 251 538 168 b 586 108 519 82 553 94 b 858 418 696 153 793 282 l 953 356 b 704 42 919 265 828 121 b 397 -78 613 -19 504 -56 b 171 -292 335 -168 258 -251 m -35 -192 b 121 -172 -11 -224 56 -222 b 189 -106 144 -154 167 -132 b 60 -110 142 -108 97 -110 b -35 -192 -53 -111 -68 -147 m 122 657 b 172 774 114 688 146 742 b 543 775 308 761 454 756 b 533 606 597 740 557 638 b 122 657 339 564 117 653 m 167 147 b 369 335 225 161 303 244 l 376 358 b 201 361 363 440 308 481 b 167 147 64 213 71 118 m 179 7 b 274 19 210 10 242 14 b 311 92 288 43 300 68 b 179 7 268 54 224 25 "},"ǥ":{"ha":863,"x_min":0,"x_max":0,"o":"m 285 386 b 365 399 311 392 339 394 b 201 361 342 450 289 460 b 167 147 64 213 71 118 b 278 225 200 156 239 185 b 194 193 249 217 221 207 b 285 386 176 268 236 347 m -212 -249 b -14 -4 -262 -114 -164 -26 b 6 426 -136 50 -144 243 b 433 478 154 607 358 603 b 468 525 443 493 456 510 b 642 410 492 525 632 464 l 632 388 b 685 368 653 382 671 375 b 642 228 686 303 674 272 b 567 244 622 235 597 240 b 486 72 551 206 524 143 b 586 108 519 82 553 94 b 858 418 696 153 793 282 l 953 356 b 704 42 919 265 828 121 b 397 -78 613 -19 504 -56 b 171 -292 335 -168 258 -251 b -212 -249 -29 -389 -182 -329 m -35 -192 b 121 -172 -11 -224 56 -222 b 189 -106 144 -154 167 -132 b 60 -110 142 -108 97 -110 b -35 -192 -53 -111 -68 -147 m 179 7 b 274 19 210 10 242 14 b 311 92 288 43 300 68 b 179 7 268 54 224 25 "},"h":{"ha":710,"x_min":0,"x_max":0,"o":"m -60 -37 b -201 53 -126 -29 -176 7 b 174 954 -157 60 208 851 b 358 904 228 975 296 971 b 190 399 376 861 290 625 b 308 519 229 438 269 479 l 313 525 b 313 525 313 525 313 525 l 319 532 b 329 521 322 529 325 525 b 485 410 374 508 479 456 b 421 161 411 244 382 199 b 703 417 458 125 600 199 l 799 356 b 388 -6 750 229 599 -10 b 203 267 253 0 189 124 b -1 18 133 196 63 108 b -36 -32 -14 -3 -26 -19 l -47 -47 "},"ħ":{"ha":710,"x_min":0,"x_max":0,"o":"m -60 -37 b -201 53 -126 -29 -176 7 b 39 522 -178 57 -58 292 b -56 481 7 511 -25 497 b 51 735 -78 581 -7 685 b 128 749 76 740 103 744 b 174 954 163 849 183 926 b 358 904 228 975 296 971 b 331 758 367 886 354 832 b 528 713 414 753 483 738 b 475 526 529 625 513 586 b 257 557 428 544 347 558 b 190 399 236 506 213 451 b 308 519 229 438 269 479 l 313 525 b 313 525 313 525 313 525 l 319 532 b 329 521 322 529 325 525 b 485 410 374 508 479 456 b 421 161 411 244 382 199 b 703 417 458 125 600 199 l 799 356 b 388 -6 750 229 599 -10 b 203 267 253 0 189 124 b -1 18 133 196 63 108 b -36 -32 -14 -3 -26 -19 l -47 -47 "},"ḫ":{"ha":710,"x_min":0,"x_max":0,"o":"m -60 -37 b -201 53 -126 -29 -176 7 b 174 954 -157 60 208 851 b 358 904 228 975 296 971 b 190 399 376 861 290 625 b 308 519 229 438 269 479 l 313 525 b 313 525 313 525 313 525 l 319 532 b 329 521 322 529 325 525 b 485 410 374 508 479 456 b 421 161 411 244 382 199 b 703 417 458 125 600 199 l 799 356 b 388 -6 750 229 599 -10 b 203 267 253 0 189 124 b -1 18 133 196 63 108 b -36 -32 -14 -3 -26 -19 l -47 -47 m -75 -121 b 153 -99 14 -26 149 -40 b 300 -86 144 -222 224 -236 b 438 -129 374 -43 456 -75 b -75 -121 318 -356 -33 -385 "},"ĥ":{"ha":710,"x_min":0,"x_max":0,"o":"m -60 -37 b -201 53 -126 -29 -176 7 b 174 954 -157 60 208 851 b 358 904 228 975 296 971 b 190 399 376 861 290 625 b 308 519 229 438 269 479 l 313 525 b 313 525 313 525 313 525 l 319 532 b 329 521 322 529 325 525 b 485 410 374 508 479 456 b 421 161 411 244 382 199 b 703 417 458 125 600 199 l 799 356 b 388 -6 750 229 599 -10 b 203 267 253 0 189 124 b -1 18 133 196 63 108 b -36 -32 -14 -3 -26 -19 l -47 -47 m 332 1006 b 535 1200 415 1063 489 1133 b 654 1150 579 1193 640 1178 b 776 986 654 1106 671 1082 b 656 875 758 943 713 885 b 581 1035 642 908 613 969 b 403 874 540 996 478 939 b 332 1006 371 896 328 946 "},"ḥ":{"ha":710,"x_min":0,"x_max":0,"o":"m -60 -37 b -201 53 -126 -29 -176 7 b 174 954 -157 60 208 851 b 358 904 228 975 296 971 b 190 399 376 861 290 625 b 308 519 229 438 269 479 l 313 525 b 313 525 313 525 313 525 l 319 532 b 329 521 322 529 325 525 b 485 410 374 508 479 456 b 421 161 411 244 382 199 b 703 417 458 125 600 199 l 799 356 b 388 -6 750 229 599 -10 b 203 267 253 0 189 124 b -1 18 133 196 63 108 b -36 -32 -14 -3 -26 -19 l -47 -47 m -17 -225 b 164 -76 -3 -206 78 -168 b 328 -187 167 -83 224 -165 b 114 -382 283 -249 197 -339 b -17 -225 69 -346 8 -282 "},"ẖ":{"ha":710,"x_min":0,"x_max":0,"o":"m -60 -37 b -201 53 -126 -29 -176 7 b 174 954 -157 60 208 851 b 358 904 228 975 296 971 b 190 399 376 861 290 625 b 308 519 229 438 269 479 l 313 525 b 313 525 313 525 313 525 l 319 532 b 329 521 322 529 325 525 b 485 410 374 508 479 456 b 421 161 411 244 382 199 b 703 417 458 125 600 199 l 799 356 b 388 -6 750 229 599 -10 b 203 267 253 0 189 124 b -1 18 133 196 63 108 b -36 -32 -14 -3 -26 -19 l -47 -47 m -64 -218 b -12 -101 -72 -187 -39 -132 b 358 -99 124 -114 269 -119 b 349 -268 413 -133 372 -236 b -64 -218 154 -310 -68 -221 "},"i":{"ha":457,"x_min":0,"x_max":0,"o":"m 135 -6 b 58 525 -81 3 -112 317 b 233 410 90 524 224 464 b 167 161 160 244 128 199 b 450 417 207 124 347 199 l 546 356 b 135 -6 497 229 346 -10 m 104 653 b 238 788 104 725 165 788 b 372 653 311 788 372 725 b 238 519 372 579 311 519 b 104 653 165 519 104 579 "},"ı":{"ha":457,"x_min":0,"x_max":0,"o":"m 135 -6 b 58 525 -81 3 -112 317 b 233 410 90 524 224 464 b 167 161 160 244 128 199 b 450 417 207 124 347 199 l 546 356 b 135 -6 497 229 346 -10 "},"í":{"ha":457,"x_min":0,"x_max":0,"o":"m 135 -6 b 58 525 -81 3 -112 317 b 233 410 90 524 224 464 b 167 161 160 244 128 199 b 450 417 207 124 347 199 l 546 356 b 135 -6 497 229 346 -10 m 56 657 b 322 896 147 713 258 797 b 422 722 410 917 451 817 b 69 553 338 633 182 576 b 56 657 33 560 36 622 "},"ǐ":{"ha":457,"x_min":0,"x_max":0,"o":"m 135 -6 b 58 525 -81 3 -112 317 b 233 410 90 524 224 464 b 167 161 160 244 128 199 b 450 417 207 124 347 199 l 546 356 b 135 -6 497 229 346 -10 m -17 754 b 104 864 0 796 44 854 b 182 704 118 831 147 771 b 357 865 221 743 282 800 b 429 733 388 844 431 793 b 225 539 344 676 271 606 b 107 589 181 546 121 561 b -17 754 104 633 88 657 "},"î":{"ha":457,"x_min":0,"x_max":0,"o":"m 135 -6 b 51 517 -78 3 -111 308 b -15 644 21 540 -18 588 b 189 839 69 701 143 772 b 308 789 233 832 294 817 b 431 625 308 744 325 721 b 310 514 413 582 367 524 b 235 674 296 547 267 608 b 69 524 197 638 139 583 b 233 410 114 513 225 458 b 167 161 160 244 128 199 b 450 417 207 124 347 199 l 546 356 b 135 -6 497 229 346 -10 "},"ï":{"ha":457,"x_min":0,"x_max":0,"o":"m 135 -6 b 58 525 -81 3 -112 317 b 233 410 90 524 224 464 b 167 161 160 244 128 199 b 450 417 207 124 347 199 l 546 356 b 135 -6 497 229 346 -10 m -54 693 b 126 842 -40 713 42 753 b 221 757 128 835 161 790 b 343 861 254 781 297 814 b 507 750 346 854 403 772 b 293 556 461 689 375 599 b 210 638 271 571 238 603 b 76 536 174 603 128 563 b -54 693 32 574 -31 636 "},"ḯ":{"ha":457,"x_min":0,"x_max":0,"o":"m 135 -6 b 58 525 -81 3 -112 317 b 233 410 90 524 224 464 b 167 161 160 244 128 199 b 450 417 207 124 347 199 l 546 356 b 135 -6 497 229 346 -10 m -54 693 b 126 842 -40 713 42 753 b 221 757 128 835 161 790 b 343 861 254 781 297 814 b 507 750 346 854 403 772 b 293 556 461 689 375 599 b 210 638 271 571 238 603 b 76 536 174 603 128 563 b -54 693 32 574 -31 636 m 157 939 b 424 1178 249 994 360 1079 b 524 1004 511 1199 553 1099 b 171 835 439 915 283 858 b 157 939 135 842 138 904 "},"ị":{"ha":457,"x_min":0,"x_max":0,"o":"m 135 -6 b 58 525 -81 3 -112 317 b 233 410 90 524 224 464 b 167 161 160 244 128 199 b 450 417 207 124 347 199 l 546 356 b 135 -6 497 229 346 -10 m -185 -225 b -4 -76 -171 -206 -90 -168 b 160 -187 -1 -83 56 -165 b -54 -382 115 -249 29 -339 b -185 -225 -99 -346 -160 -282 m 104 653 b 238 788 104 725 165 788 b 372 653 311 788 372 725 b 238 519 372 579 311 519 b 104 653 165 519 104 579 "},"ì":{"ha":457,"x_min":0,"x_max":0,"o":"m 135 -6 b 58 525 -81 3 -112 317 b 233 410 90 524 224 464 b 167 161 160 244 128 199 b 450 417 207 124 347 199 l 546 356 b 135 -6 497 229 346 -10 m 50 679 b 221 829 60 756 143 843 b 390 654 243 754 322 693 b 347 565 400 628 379 572 b 50 679 239 574 103 610 "},"ỉ":{"ha":457,"x_min":0,"x_max":0,"o":"m 135 -6 b 58 525 -81 3 -112 317 b 233 410 90 524 224 464 b 167 161 160 244 128 199 b 450 417 207 124 347 199 l 546 356 b 135 -6 497 229 346 -10 m 13 614 b 258 840 232 686 286 806 b 160 843 231 874 188 857 b 129 913 133 850 117 878 b 453 965 246 1015 383 1043 b 49 544 533 867 429 656 l 13 614 "},"ĳ":{"ha":907,"x_min":0,"x_max":0,"o":"m 135 -6 b 58 525 -81 3 -112 317 b 233 410 90 524 224 464 b 167 161 160 244 128 199 b 444 404 206 124 342 196 b 508 525 471 467 493 511 b 685 410 542 524 672 463 b 622 275 658 351 635 310 b 515 46 613 250 575 153 b 901 418 671 110 850 301 l 996 356 b 390 -144 974 285 767 -44 b -14 -260 225 -399 18 -342 b 258 -36 -67 -139 65 -35 b 293 38 269 -12 282 13 b 135 -6 246 10 192 -7 m 104 653 b 238 788 104 725 165 788 b 372 653 311 788 372 725 b 238 519 372 579 311 519 b 104 653 165 519 104 579 m 138 -193 b 178 -164 138 -196 153 -186 b 138 -193 131 -169 131 -182 m 533 653 b 665 788 533 725 594 788 b 801 653 739 788 801 725 b 665 519 801 579 739 519 b 533 653 594 519 533 579 "},"ī":{"ha":457,"x_min":0,"x_max":0,"o":"m 135 -6 b 58 525 -81 3 -112 317 b 233 410 90 524 224 464 b 167 161 160 244 128 199 b 450 417 207 124 347 199 l 546 356 b 135 -6 497 229 346 -10 m -43 624 b 8 740 -51 654 -18 708 b 379 742 144 728 290 722 b 369 572 433 707 393 604 b -43 624 175 531 -47 619 "},"į":{"ha":457,"x_min":0,"x_max":0,"o":"m 246 869 b 410 758 249 863 306 781 b 196 564 365 697 279 607 b 65 721 151 601 90 664 b 246 869 79 740 160 778 m -192 -324 b 33 29 -258 -243 -200 -86 b 58 525 -85 117 -81 356 b 233 410 90 524 224 464 b 167 161 160 244 128 199 b 450 417 207 124 347 199 l 546 356 b 168 -4 500 236 363 15 b 3 -199 15 -75 -21 -168 b 101 -201 31 -232 74 -215 b 132 -271 128 -208 144 -236 b -192 -324 17 -374 -122 -401 "},"ɨ":{"ha":457,"x_min":0,"x_max":0,"o":"m 135 -6 b -51 233 11 -1 -53 106 b -157 181 -87 221 -124 204 b -72 435 -175 281 -119 385 b 8 451 -46 442 -18 447 b 58 525 22 478 39 501 b 207 450 82 524 164 490 b 303 413 246 442 279 429 b 261 226 304 325 292 286 b 164 253 238 238 203 247 b 167 161 146 207 144 182 b 450 417 207 124 347 199 l 546 356 b 135 -6 497 229 346 -10 m 65 721 b 246 869 79 740 160 778 b 410 758 249 863 306 781 b 196 564 365 697 279 607 b 65 721 151 601 90 664 "},"ĩ":{"ha":457,"x_min":0,"x_max":0,"o":"m 135 -6 b 58 525 -81 3 -112 317 b 233 410 90 524 224 464 b 167 161 160 244 128 199 b 450 417 207 124 347 199 l 546 356 b 135 -6 497 229 346 -10 m -22 726 b 265 731 265 985 238 719 b 326 806 304 746 321 778 b 493 724 399 840 517 832 b 211 581 393 606 254 569 b 157 701 160 590 163 701 b 106 583 140 700 106 628 b -22 726 15 544 -39 668 "},"j":{"ha":450,"x_min":0,"x_max":0,"o":"m -319 -193 b -279 -164 -319 -196 -304 -186 b -319 -193 -326 -169 -326 -182 m -471 -260 b -200 -36 -524 -139 -393 -35 b 51 525 -100 163 4 483 b 228 410 85 524 215 463 b 165 275 201 351 178 310 b 58 46 156 250 118 153 b 444 418 214 110 393 301 l 539 356 b -68 -144 517 285 310 -44 b -471 -260 -233 -399 -439 -342 m 76 653 b 208 788 76 725 138 788 b 344 653 282 788 344 725 b 208 519 344 579 282 519 b 76 653 138 519 76 579 "},"ȷ":{"ha":450,"x_min":0,"x_max":0,"o":"m -319 -193 b -279 -164 -319 -196 -304 -186 b -319 -193 -326 -169 -326 -182 m -471 -260 b -200 -36 -524 -139 -393 -35 b 51 525 -100 163 4 483 b 228 410 85 524 215 463 b 165 275 201 351 178 310 b 58 46 156 250 118 153 b 444 418 214 110 393 301 l 539 356 b -68 -144 517 285 310 -44 b -471 -260 -233 -399 -439 -342 "},"ĵ":{"ha":450,"x_min":0,"x_max":0,"o":"m -319 -193 b -279 -164 -319 -196 -304 -186 b -319 -193 -326 -169 -326 -182 m -471 -260 b -200 -36 -524 -139 -393 -35 b 28 490 -114 133 -26 393 b -40 619 -4 514 -43 563 b 164 814 44 676 118 747 b 283 764 208 807 269 792 b 406 600 283 719 300 696 b 285 489 388 557 342 499 b 210 649 271 522 242 583 b 71 521 176 617 128 572 b 228 410 118 507 217 456 b 165 275 201 351 178 310 b 58 46 156 250 118 153 b 444 418 214 110 393 301 l 539 356 b -68 -144 517 285 310 -44 b -471 -260 -233 -399 -439 -342 "},"k":{"ha":724,"x_min":0,"x_max":0,"o":"m -43 -39 b -203 53 -121 -35 -175 3 b 174 954 -158 60 208 851 b 356 904 226 975 293 971 b 164 344 375 857 274 586 b 436 571 267 390 378 467 b 589 463 469 571 578 518 b 285 267 525 342 393 283 b 403 140 286 179 325 144 b 717 417 468 138 613 199 l 814 356 b 374 -39 764 231 583 -24 b 100 206 183 -51 110 68 b -43 -39 43 90 -11 -4 "},"ǩ":{"ha":724,"x_min":0,"x_max":0,"o":"m -43 -39 b -203 53 -121 -35 -175 3 b 174 954 -158 60 208 851 b 356 904 226 975 293 971 b 164 344 375 857 274 586 b 436 571 267 390 378 467 b 589 463 469 571 578 518 b 285 267 525 342 393 283 b 403 140 286 179 325 144 b 717 417 468 138 613 199 l 814 356 b 374 -39 764 231 583 -24 b 100 206 183 -51 110 68 b -43 -39 43 90 -11 -4 m 303 969 b 424 1079 319 1011 364 1069 b 501 919 438 1046 467 986 b 676 1081 540 958 601 1015 b 749 949 707 1060 750 1008 b 544 754 664 892 590 821 b 426 804 500 761 440 776 b 303 969 424 849 407 872 "},"ķ":{"ha":724,"x_min":0,"x_max":0,"o":"m -43 -39 b -203 53 -121 -35 -175 3 b 174 954 -158 60 208 851 b 356 904 226 975 293 971 b 164 344 375 857 274 586 b 436 571 267 390 378 467 b 589 463 469 571 578 518 b 285 267 525 342 393 283 b 403 140 286 179 325 144 b 717 417 468 138 613 199 l 814 356 b 374 -39 764 231 583 -24 b 100 206 183 -51 110 68 b -43 -39 43 90 -11 -4 m -118 -296 b -25 -214 -78 -267 -47 -239 b -81 -147 -46 -199 -67 -175 b 94 28 -58 -96 1 -21 b 204 -115 133 0 186 -57 b -76 -378 157 -225 26 -324 b -118 -296 -97 -364 -129 -332 "},"ḵ":{"ha":724,"x_min":0,"x_max":0,"o":"m 374 -39 b 279 -32 338 -42 307 -39 b 257 -192 314 -74 279 -162 b -156 -142 63 -233 -160 -144 b -106 -26 -164 -111 -132 -58 b -203 53 -150 -11 -183 18 b 174 954 -158 60 208 851 b 356 904 226 975 293 971 b 164 344 375 857 274 586 b 436 571 267 390 378 467 b 589 463 469 571 578 518 b 285 267 525 342 393 283 b 403 140 286 179 325 144 b 717 417 468 138 613 199 l 814 356 b 374 -39 764 231 583 -24 m -36 -31 b 253 -25 72 -37 178 -39 b 100 206 150 10 107 101 b -36 -31 46 97 -3 10 "},"l":{"ha":499,"x_min":0,"x_max":0,"o":"m 158 -6 b 321 1025 -235 43 25 689 b 521 885 392 1031 518 931 b 153 149 142 456 54 197 b 493 418 233 111 389 199 l 588 356 b 158 -6 539 231 369 -31 "},"ĺ":{"ha":499,"x_min":0,"x_max":0,"o":"m 158 -6 b 321 1025 -235 43 25 689 l 325 1025 b 339 1090 324 1047 329 1072 b 606 1329 431 1146 542 1231 b 706 1156 693 1350 735 1250 b 407 1000 633 1081 511 1028 b 521 885 464 968 519 915 b 153 149 142 456 54 197 b 493 418 233 111 389 199 l 588 356 b 158 -6 539 231 369 -31 "},"ľ":{"ha":499,"x_min":0,"x_max":0,"o":"m 158 -6 b 321 1025 -235 43 25 689 b 514 904 383 1031 488 954 l 522 942 b 806 932 578 983 697 1043 b 664 604 751 910 650 711 b 536 578 642 571 569 567 b 510 872 531 576 489 708 b 153 149 140 450 56 197 b 493 418 233 111 389 199 l 588 356 b 158 -6 539 231 369 -31 "},"ļ":{"ha":499,"x_min":0,"x_max":0,"o":"m 158 -6 b 321 1025 -235 43 25 689 b 521 885 392 1031 518 931 b 153 149 142 456 54 197 b 493 418 233 111 389 199 l 588 356 b 158 -6 539 231 369 -31 m -132 -372 b -39 -290 -92 -343 -61 -315 b -94 -224 -60 -275 -81 -251 b 81 -49 -72 -172 -12 -97 b 190 -192 119 -76 172 -133 b -90 -454 143 -301 13 -400 b -132 -372 -111 -440 -143 -408 "},"ḷ":{"ha":499,"x_min":0,"x_max":0,"o":"m 158 -6 b 321 1025 -235 43 25 689 b 521 885 392 1031 518 931 b 153 149 142 456 54 197 b 493 418 233 111 389 199 l 588 356 b 158 -6 539 231 369 -31 m -122 -225 b 58 -76 -108 -206 -28 -168 b 222 -187 61 -83 118 -165 b 8 -382 178 -249 92 -339 b -122 -225 -36 -346 -97 -282 "},"ḹ":{"ha":499,"x_min":0,"x_max":0,"o":"m 158 -6 b 321 1025 -235 43 25 689 l 328 1025 b 242 1057 274 1040 239 1056 b 292 1174 233 1088 265 1142 b 663 1175 428 1161 574 1156 b 653 1006 717 1140 676 1038 b 381 1013 558 986 458 996 b 521 885 447 985 518 919 b 153 149 142 456 54 197 b 493 418 233 111 389 199 l 588 356 b 158 -6 539 231 369 -31 m -122 -225 b 58 -76 -108 -206 -28 -168 b 222 -187 61 -83 118 -165 b 8 -382 178 -249 92 -339 b -122 -225 -36 -346 -97 -282 "},"ḻ":{"ha":499,"x_min":0,"x_max":0,"o":"m 158 -6 b 321 1025 -235 43 25 689 b 521 885 392 1031 518 931 b 153 149 142 456 54 197 b 493 418 233 111 389 199 l 588 356 b 158 -6 539 231 369 -31 m -169 -218 b -118 -101 -178 -187 -144 -132 b 253 -99 18 -114 164 -119 b 243 -268 307 -133 267 -236 b -169 -218 49 -310 -174 -221 "},"ł":{"ha":499,"x_min":0,"x_max":0,"o":"m 158 -6 b 118 735 -137 31 -64 407 b -65 671 56 722 -7 703 b 42 925 -87 771 -17 875 b 258 950 115 942 190 949 b 321 1025 279 976 300 1001 b 514 906 382 1029 486 956 l 518 903 b 518 896 518 900 518 899 b 521 885 519 892 521 889 l 518 882 b 465 717 517 808 500 771 b 396 736 447 724 422 731 b 153 149 124 396 67 192 b 493 418 233 111 389 199 l 588 356 b 158 -6 539 231 369 -31 "},"m":{"ha":1022,"x_min":0,"x_max":0,"o":"m -1 -39 b -7 -47 -3 -42 -6 -44 l -21 -36 b -156 51 -83 -26 -128 7 b -11 514 -83 117 3 378 b 171 463 43 533 111 529 b 174 392 175 444 176 421 b 254 481 199 419 225 449 l 254 483 b 260 486 256 485 258 485 l 264 490 b 271 489 267 490 268 490 b 433 432 319 503 381 490 b 439 332 439 410 442 372 b 617 518 496 390 558 454 l 622 525 b 622 525 622 525 622 525 l 629 532 b 639 522 632 529 635 525 b 797 410 685 508 786 457 b 732 161 724 244 690 199 b 1015 417 771 124 911 199 l 1113 356 b 699 -6 1061 229 910 -10 b 515 271 563 0 500 126 b 361 -40 449 189 388 76 b 199 47 285 -36 232 -3 b 253 317 228 142 246 231 b 89 99 197 258 144 181 b 3 -39 65 46 36 -1 "},"ḿ":{"ha":1022,"x_min":0,"x_max":0,"o":"m -1 -39 b -7 -47 -3 -42 -6 -44 l -21 -36 b -156 51 -83 -26 -128 7 b -11 514 -83 117 3 378 b 171 463 43 533 111 529 b 174 392 175 444 176 421 b 254 481 199 419 225 449 l 254 483 b 260 486 256 485 258 485 l 264 490 b 271 489 267 490 268 490 b 433 432 319 503 381 490 b 439 332 439 410 442 372 b 617 518 496 390 558 454 l 622 525 b 622 525 622 525 622 525 l 629 532 b 639 522 632 529 635 525 b 797 410 685 508 786 457 b 732 161 724 244 690 199 b 1015 417 771 124 911 199 l 1113 356 b 699 -6 1061 229 910 -10 b 515 271 563 0 500 126 b 361 -40 449 189 388 76 b 199 47 285 -36 232 -3 b 253 317 228 142 246 231 b 89 99 197 258 144 181 b 3 -39 65 46 36 -1 m 306 608 b 572 847 397 664 508 749 b 672 674 660 868 701 768 b 319 504 588 585 432 528 b 306 608 283 511 286 574 "},"ṁ":{"ha":1022,"x_min":0,"x_max":0,"o":"m -1 -39 b -7 -47 -3 -42 -6 -44 l -21 -36 b -156 51 -83 -26 -128 7 b -11 514 -83 117 3 378 b 171 463 43 533 111 529 b 174 392 175 444 176 421 b 254 481 199 419 225 449 l 254 483 b 260 486 256 485 258 485 l 264 490 b 271 489 267 490 268 490 b 433 432 319 503 381 490 b 439 332 439 410 442 372 b 617 518 496 390 558 454 l 622 525 b 622 525 622 525 622 525 l 629 532 b 639 522 632 529 635 525 b 797 410 685 508 786 457 b 732 161 724 244 690 199 b 1015 417 771 124 911 199 l 1113 356 b 699 -6 1061 229 910 -10 b 515 271 563 0 500 126 b 361 -40 449 189 388 76 b 199 47 285 -36 232 -3 b 253 317 228 142 246 231 b 89 99 197 258 144 181 b 3 -39 65 46 36 -1 m 315 672 b 496 821 329 692 410 729 b 660 710 499 814 556 732 b 446 515 615 649 529 558 b 315 672 401 553 340 615 "},"ṃ":{"ha":1022,"x_min":0,"x_max":0,"o":"m -1 -39 b -7 -47 -3 -42 -6 -44 l -21 -36 b -156 51 -83 -26 -128 7 b -11 514 -83 117 3 378 b 171 463 43 533 111 529 b 174 392 175 444 176 421 b 254 481 199 419 225 449 l 254 483 b 260 486 256 485 258 485 l 264 490 b 271 489 267 490 268 490 b 433 432 319 503 381 490 b 439 332 439 410 442 372 b 617 518 496 390 558 454 l 622 525 b 622 525 622 525 622 525 l 629 532 b 639 522 632 529 635 525 b 797 410 685 508 786 457 b 732 161 724 244 690 199 b 1015 417 771 124 911 199 l 1113 356 b 699 -6 1061 229 910 -10 b 515 271 563 0 500 126 b 361 -40 449 189 388 76 b 199 47 285 -36 232 -3 b 253 317 228 142 246 231 b 89 99 197 258 144 181 b 3 -39 65 46 36 -1 m 50 -171 b 231 -22 64 -151 144 -114 b 394 -133 233 -29 290 -111 b 181 -328 350 -194 264 -285 b 50 -171 136 -292 75 -228 "},"n":{"ha":786,"x_min":0,"x_max":0,"o":"m 18 -37 b -124 51 -49 -29 -96 4 b -19 518 -51 114 -6 381 b 163 467 33 538 103 533 b 163 300 171 431 172 369 b 383 518 235 367 314 443 l 389 525 b 389 525 389 525 389 525 l 396 532 b 406 521 399 529 401 525 b 564 410 450 508 556 456 b 496 161 489 244 457 199 b 781 418 536 124 678 199 l 875 356 b 465 -6 828 229 675 -10 b 281 269 331 0 267 125 b 75 18 210 197 138 108 b 46 -24 65 3 57 -11 l 31 -47 "},"ń":{"ha":786,"x_min":0,"x_max":0,"o":"m 18 -37 b -124 51 -49 -29 -96 4 b -19 518 -51 114 -6 381 b 163 467 33 538 103 533 b 163 300 171 431 172 369 b 383 518 235 367 314 443 l 389 525 b 389 525 389 525 389 525 l 396 532 b 406 521 399 529 401 525 b 564 410 450 508 556 456 b 496 161 489 244 457 199 b 781 418 536 124 678 199 l 875 356 b 465 -6 828 229 675 -10 b 281 269 331 0 267 125 b 75 18 210 197 138 108 b 46 -24 65 3 57 -11 l 31 -47 m 181 635 b 447 874 272 690 383 775 b 547 700 535 894 576 794 b 194 531 463 611 307 554 b 181 635 158 538 161 600 "},"ň":{"ha":786,"x_min":0,"x_max":0,"o":"m 18 -37 b -124 51 -49 -29 -96 4 b -19 518 -51 114 -6 381 b 163 467 33 538 103 533 b 163 300 171 431 172 369 b 383 518 235 367 314 443 l 389 525 b 389 525 389 525 389 525 l 396 532 b 406 521 399 529 401 525 b 564 410 450 508 556 456 b 496 161 489 244 457 199 b 781 418 536 124 678 199 l 875 356 b 465 -6 828 229 675 -10 b 281 269 331 0 267 125 b 75 18 210 197 138 108 b 46 -24 65 3 57 -11 l 31 -47 m 108 732 b 229 842 125 774 169 832 b 307 682 243 808 272 749 b 482 843 346 721 407 778 b 554 711 513 822 556 771 b 350 517 469 654 396 583 b 232 567 306 524 246 539 b 108 732 229 611 213 635 "},"ņ":{"ha":786,"x_min":0,"x_max":0,"o":"m 18 -37 b -124 51 -49 -29 -96 4 b -19 518 -51 114 -6 381 b 163 467 33 538 103 533 b 163 300 171 431 172 369 b 383 518 235 367 314 443 l 389 525 b 389 525 389 525 389 525 l 396 532 b 406 521 399 529 401 525 b 564 410 450 508 556 456 b 496 161 489 244 457 199 b 781 418 536 124 678 199 l 875 356 b 465 -6 828 229 675 -10 b 281 269 331 0 267 125 b 75 18 210 197 138 108 b 46 -24 65 3 57 -11 l 31 -47 m -58 -322 b 35 -240 -18 -293 13 -265 b -21 -174 14 -225 -7 -201 b 154 1 1 -122 61 -47 b 264 -142 193 -26 246 -83 b -17 -404 217 -251 86 -350 b -58 -322 -37 -390 -69 -358 "},"ṅ":{"ha":786,"x_min":0,"x_max":0,"o":"m 18 -37 b -124 51 -49 -29 -96 4 b -19 518 -51 114 -6 381 b 163 467 33 538 103 533 b 163 300 171 431 172 369 b 383 518 235 367 314 443 l 389 525 b 389 525 389 525 389 525 l 396 532 b 406 521 399 529 401 525 b 564 410 450 508 556 456 b 496 161 489 244 457 199 b 781 418 536 124 678 199 l 875 356 b 465 -6 828 229 675 -10 b 281 269 331 0 267 125 b 75 18 210 197 138 108 b 46 -24 65 3 57 -11 l 31 -47 m 190 699 b 371 847 204 718 285 756 b 535 736 374 840 431 758 b 321 542 490 675 404 585 b 190 699 276 579 215 642 "},"ṇ":{"ha":786,"x_min":0,"x_max":0,"o":"m 18 -37 b -124 51 -49 -29 -96 4 b -19 518 -51 114 -6 381 b 163 467 33 538 103 533 b 163 300 171 431 172 369 b 383 518 235 367 314 443 l 389 525 b 389 525 389 525 389 525 l 396 532 b 406 521 399 529 401 525 b 564 410 450 508 556 456 b 496 161 489 244 457 199 b 781 418 536 124 678 199 l 875 356 b 465 -6 828 229 675 -10 b 281 269 331 0 267 125 b 75 18 210 197 138 108 b 46 -24 65 3 57 -11 l 31 -47 m -49 -175 b 132 -26 -35 -156 46 -118 b 296 -137 135 -33 192 -115 b 82 -332 251 -199 165 -289 b -49 -175 38 -296 -24 -232 "},"ṉ":{"ha":786,"x_min":0,"x_max":0,"o":"m 18 -37 b -124 51 -49 -29 -96 4 b -19 518 -51 114 -6 381 b 163 467 33 538 103 533 b 163 300 171 431 172 369 b 383 518 235 367 314 443 l 389 525 b 389 525 389 525 389 525 l 396 532 b 406 521 399 529 401 525 b 564 410 450 508 556 456 b 496 161 489 244 457 199 b 781 418 536 124 678 199 l 875 356 b 465 -6 828 229 675 -10 b 281 269 331 0 267 125 b 75 18 210 197 138 108 b 46 -24 65 3 57 -11 l 31 -47 m -96 -168 b -44 -51 -104 -137 -71 -82 b 326 -49 92 -64 238 -69 b 317 -218 381 -83 340 -186 b -96 -168 122 -260 -100 -171 "},"ñ":{"ha":786,"x_min":0,"x_max":0,"o":"m 18 -37 b -124 51 -49 -29 -96 4 b -19 518 -51 114 -6 381 b 163 467 33 538 103 533 b 163 300 171 431 172 369 b 383 518 235 367 314 443 l 389 525 b 389 525 389 525 389 525 l 396 532 b 406 521 399 529 401 525 b 564 410 450 508 556 456 b 496 161 489 244 457 199 b 781 418 536 124 678 199 l 875 356 b 465 -6 828 229 675 -10 b 281 269 331 0 267 125 b 75 18 210 197 138 108 b 46 -24 65 3 57 -11 l 31 -47 m 103 704 b 390 708 390 963 363 697 b 451 783 429 724 446 756 b 618 701 524 818 642 810 b 336 558 518 583 379 547 b 282 679 285 568 288 679 b 231 561 265 678 231 606 b 103 704 140 522 86 646 "},"ŋ":{"ha":786,"x_min":0,"x_max":0,"o":"m 18 -37 b -124 51 -49 -29 -96 4 b -19 518 -51 114 -6 381 b 163 467 33 538 103 533 b 163 300 171 431 172 369 b 379 514 233 365 311 440 b 389 525 383 518 386 522 b 396 532 392 528 393 529 l 406 522 b 565 410 453 508 554 456 b 503 275 539 351 515 310 b 396 46 493 250 456 153 b 782 418 551 110 731 301 l 876 356 b 271 -144 854 285 647 -44 b -133 -260 106 -399 -101 -342 b 139 -36 -186 -139 -54 -35 b 263 251 181 49 224 154 b 75 18 197 183 133 101 b 46 -24 65 3 57 -11 l 31 -47 m 18 -193 b 58 -164 18 -196 33 -186 b 18 -193 11 -169 11 -182 "},"o":{"ha":690,"x_min":0,"x_max":0,"o":"m 156 -6 b 256 604 -232 43 -25 604 b 321 557 286 604 306 585 b 497 501 372 601 447 599 b 519 357 517 468 521 413 b 685 417 586 346 658 354 l 779 356 b 492 243 747 253 613 226 b 156 -6 433 122 333 -28 m 151 149 b 346 276 206 121 294 179 b 272 339 319 290 289 317 b 260 407 264 363 260 385 b 151 149 128 356 69 189 "},"ó":{"ha":690,"x_min":0,"x_max":0,"o":"m 156 -6 b 256 604 -232 43 -25 604 b 321 557 286 604 306 585 b 497 501 372 601 447 599 b 519 357 517 468 521 413 b 685 417 586 346 658 354 l 779 356 b 492 243 747 253 613 226 b 156 -6 433 122 333 -28 m 151 149 b 346 276 206 121 294 179 b 272 339 319 290 289 317 b 260 407 264 363 260 385 b 151 149 128 356 69 189 m 215 739 b 482 978 307 794 418 879 b 582 804 569 999 611 899 b 229 635 497 715 342 658 b 215 739 193 642 196 704 "},"ǒ":{"ha":690,"x_min":0,"x_max":0,"o":"m 156 -6 b 256 604 -232 43 -25 604 b 321 557 286 604 306 585 b 497 501 372 601 447 599 b 519 357 517 468 521 413 b 685 417 586 346 658 354 l 779 356 b 492 243 747 253 613 226 b 156 -6 433 122 333 -28 m 143 836 b 264 946 160 878 204 936 b 342 786 278 913 307 853 b 517 947 381 825 442 882 b 589 815 547 926 590 875 b 385 621 504 758 431 688 b 267 671 340 628 281 643 b 143 836 264 715 247 739 m 151 149 b 346 276 206 121 294 179 b 272 339 319 290 289 317 b 260 407 264 363 260 385 b 151 149 128 356 69 189 "},"ô":{"ha":690,"x_min":0,"x_max":0,"o":"m 156 -6 b 210 599 -211 40 -46 544 b 146 726 179 624 142 671 b 349 921 229 783 303 854 b 468 871 393 914 454 899 b 590 707 468 826 485 803 b 469 596 572 664 526 606 b 394 756 456 629 426 690 b 225 601 356 718 296 664 b 256 604 235 603 246 604 b 321 557 286 604 306 585 b 497 501 372 601 447 599 b 519 357 517 468 521 413 b 685 417 586 346 658 354 l 779 356 b 492 243 747 253 613 226 b 156 -6 433 122 333 -28 m 151 149 b 346 276 206 121 294 179 b 272 339 319 290 289 317 b 260 407 264 363 260 385 b 151 149 128 356 69 189 "},"ố":{"ha":690,"x_min":0,"x_max":0,"o":"m 156 -6 b 178 589 -194 39 -60 501 b 118 713 147 615 114 660 b 308 889 194 764 263 828 b 300 992 278 901 282 958 b 567 1231 392 1047 503 1132 b 667 1057 654 1251 696 1151 b 361 899 593 981 467 926 b 440 857 396 890 431 876 b 563 693 440 813 457 789 b 442 582 544 650 499 592 b 367 742 428 615 399 676 b 210 600 331 707 276 657 b 256 604 225 603 240 604 b 321 557 286 604 306 585 b 497 501 372 601 447 599 b 519 357 517 468 521 413 b 685 417 586 346 658 354 l 779 356 b 492 243 747 253 613 226 b 156 -6 433 122 333 -28 m 151 149 b 346 276 206 121 294 179 b 272 339 319 290 289 317 b 260 407 264 363 260 385 b 151 149 128 356 69 189 "},"ộ":{"ha":690,"x_min":0,"x_max":0,"o":"m 142 -4 b 299 -104 160 -28 214 -86 b 85 -299 254 -165 168 -256 b -46 -142 40 -262 -21 -199 b 128 -1 -32 -122 44 -87 b 210 599 -201 67 -39 546 b 146 726 179 624 142 671 b 349 921 229 783 303 854 b 468 871 393 914 454 899 b 590 707 468 826 485 803 b 469 596 572 664 526 606 b 394 756 456 629 426 690 b 225 601 356 718 296 664 b 256 604 235 603 246 604 b 321 557 286 604 306 585 b 497 501 372 601 447 599 b 519 357 517 468 521 413 b 685 417 586 346 658 354 l 779 356 b 492 243 747 253 613 226 b 156 -6 433 122 333 -28 m 151 149 b 346 276 206 121 294 179 b 272 339 319 290 289 317 b 260 407 264 363 260 385 b 151 149 128 356 69 189 "},"ồ":{"ha":690,"x_min":0,"x_max":0,"o":"m 156 -6 b 256 604 -232 43 -25 604 b 321 557 286 604 306 585 b 497 501 372 601 447 599 b 519 357 517 468 521 413 b 685 417 586 346 658 354 l 779 356 b 492 243 747 253 613 226 b 156 -6 433 122 333 -28 m 128 732 b 331 926 211 789 285 860 b 450 876 375 919 436 904 b 572 713 450 832 467 808 b 451 601 554 669 508 611 b 376 761 438 635 408 696 b 199 600 336 722 274 665 b 128 732 167 622 124 672 m 151 149 b 346 276 206 121 294 179 b 272 339 319 290 289 317 b 260 407 264 363 260 385 b 151 149 128 356 69 189 m 304 1033 b 475 1183 314 1110 397 1197 b 644 1008 497 1108 576 1047 b 601 919 654 982 633 926 b 304 1033 493 928 357 964 "},"ổ":{"ha":690,"x_min":0,"x_max":0,"o":"m 156 -6 b 256 604 -232 43 -25 604 b 321 557 286 604 306 585 b 497 501 372 601 447 599 b 519 357 517 468 521 413 b 685 417 586 346 658 354 l 779 356 b 492 243 747 253 613 226 b 156 -6 433 122 333 -28 m 151 149 b 346 276 206 121 294 179 b 272 339 319 290 289 317 b 260 407 264 363 260 385 b 151 149 128 356 69 189 m 151 746 b 336 915 225 796 290 856 l 326 913 l 290 982 b 536 1208 510 1054 564 1174 b 438 1211 508 1242 465 1225 b 407 1281 411 1218 394 1246 b 731 1333 524 1383 661 1411 b 390 933 807 1240 718 1049 b 474 890 426 925 464 911 b 596 726 474 846 490 822 b 475 615 578 683 532 625 b 400 775 461 649 432 710 b 222 614 360 736 297 679 b 151 746 190 636 147 686 "},"ỗ":{"ha":690,"x_min":0,"x_max":0,"o":"m 156 -6 b 256 604 -232 43 -25 604 b 321 557 286 604 306 585 b 497 501 372 601 447 599 b 519 357 517 468 521 413 b 685 417 586 346 658 354 l 779 356 b 492 243 747 253 613 226 b 156 -6 433 122 333 -28 m 146 757 b 349 951 229 814 303 885 b 468 901 393 944 454 929 b 590 738 468 857 485 833 b 469 626 572 694 526 636 b 394 786 456 660 426 721 b 217 625 354 747 292 690 b 146 757 185 647 142 697 m 151 149 b 346 276 206 121 294 179 b 272 339 319 290 289 317 b 260 407 264 363 260 385 b 151 149 128 356 69 189 m 250 1106 b 538 1110 538 1364 510 1099 b 599 1185 576 1125 593 1157 b 765 1103 671 1219 789 1211 b 483 960 665 985 526 949 b 429 1081 432 969 435 1081 b 378 963 413 1079 378 1007 b 250 1106 288 924 233 1047 "},"ö":{"ha":690,"x_min":0,"x_max":0,"o":"m 156 -6 b 256 604 -232 43 -25 604 b 321 557 286 604 306 585 b 497 501 372 601 447 599 b 519 357 517 468 521 413 b 685 417 586 346 658 354 l 779 356 b 492 243 747 253 613 226 b 156 -6 433 122 333 -28 m 106 775 b 286 924 119 794 201 835 b 381 839 288 917 321 872 b 503 943 414 863 457 896 b 667 832 506 936 563 854 b 453 638 621 771 535 681 b 369 719 431 653 397 685 b 236 618 333 685 288 644 b 106 775 192 656 129 718 m 151 149 b 346 276 206 121 294 179 b 272 339 319 290 289 317 b 260 407 264 363 260 385 b 151 149 128 356 69 189 "},"ȫ":{"ha":690,"x_min":0,"x_max":0,"o":"m 156 -6 b 256 604 -232 43 -25 604 b 321 557 286 604 306 585 b 497 501 372 601 447 599 b 519 357 517 468 521 413 b 685 417 586 346 658 354 l 779 356 b 492 243 747 253 613 226 b 156 -6 433 122 333 -28 m 106 775 b 286 924 119 794 201 835 b 381 839 288 917 321 872 b 486 926 410 860 446 888 b 219 988 340 933 215 985 b 269 1104 211 1018 243 1072 b 640 1106 406 1092 551 1086 b 631 936 694 1071 654 968 b 515 925 593 928 554 925 b 667 832 538 897 589 849 b 453 638 621 771 535 681 b 369 719 431 653 397 685 b 236 618 333 685 288 644 b 106 775 192 656 129 718 m 151 149 b 346 276 206 121 294 179 b 272 339 319 290 289 317 b 260 407 264 363 260 385 b 151 149 128 356 69 189 "},"ọ":{"ha":690,"x_min":0,"x_max":0,"o":"m 142 -4 b 299 -104 160 -28 214 -86 b 85 -299 254 -165 168 -256 b -46 -142 40 -262 -21 -199 b 128 -1 -32 -122 44 -87 b 256 604 -221 71 -18 604 b 321 557 286 604 306 585 b 497 501 372 601 447 599 b 519 357 517 468 521 413 b 685 417 586 346 658 354 l 779 356 b 492 243 747 253 613 226 b 156 -6 433 122 333 -28 m 151 149 b 346 276 206 121 294 179 b 272 339 319 290 289 317 b 260 407 264 363 260 385 b 151 149 128 356 69 189 "},"ò":{"ha":690,"x_min":0,"x_max":0,"o":"m 156 -6 b 256 604 -232 43 -25 604 b 321 557 286 604 306 585 b 497 501 372 601 447 599 b 519 357 517 468 521 413 b 685 417 586 346 658 354 l 779 356 b 492 243 747 253 613 226 b 156 -6 433 122 333 -28 m 151 149 b 346 276 206 121 294 179 b 272 339 319 290 289 317 b 260 407 264 363 260 385 b 151 149 128 356 69 189 m 210 761 b 381 911 219 838 303 925 b 550 736 403 836 482 775 b 507 647 560 710 539 654 b 210 761 399 656 263 692 "},"ỏ":{"ha":690,"x_min":0,"x_max":0,"o":"m 156 -6 b 256 604 -232 43 -25 604 b 321 557 286 604 306 585 b 497 501 372 601 447 599 b 519 357 517 468 521 413 b 685 417 586 346 658 354 l 779 356 b 492 243 747 253 613 226 b 156 -6 433 122 333 -28 m 151 149 b 346 276 206 121 294 179 b 272 339 319 290 289 317 b 260 407 264 363 260 385 b 151 149 128 356 69 189 m 172 696 b 418 922 392 768 446 888 b 319 925 390 956 347 939 b 289 994 293 932 276 960 b 613 1047 406 1097 543 1125 b 208 626 693 949 589 738 l 172 696 "},"ơ":{"ha":690,"x_min":0,"x_max":0,"o":"m 156 -6 b 256 604 -232 43 -25 604 b 321 557 286 604 306 585 b 463 550 361 593 417 597 b 803 799 569 528 739 589 l 872 761 b 686 417 822 592 758 478 l 779 356 b 492 243 747 253 613 226 b 156 -6 433 122 333 -28 m 151 149 b 346 276 206 121 294 179 b 272 339 319 290 289 317 b 260 407 264 363 260 385 b 151 149 128 356 69 189 m 519 357 b 683 415 585 346 657 354 b 519 364 632 371 576 354 l 519 357 "},"ớ":{"ha":690,"x_min":0,"x_max":0,"o":"m 156 -6 b 256 604 -232 43 -25 604 b 321 557 286 604 306 585 b 463 550 361 593 417 597 b 803 799 569 528 739 589 l 872 761 b 686 417 822 592 758 478 l 779 356 b 492 243 747 253 613 226 b 156 -6 433 122 333 -28 m 151 149 b 346 276 206 121 294 179 b 272 339 319 290 289 317 b 260 407 264 363 260 385 b 151 149 128 356 69 189 m 215 739 b 482 978 307 794 418 879 b 582 804 569 999 611 899 b 229 635 497 715 342 658 b 215 739 193 642 196 704 m 519 357 b 683 415 585 346 657 354 b 519 364 632 371 576 354 l 519 357 "},"ợ":{"ha":690,"x_min":0,"x_max":0,"o":"m 142 -4 b 299 -104 160 -28 214 -86 b 85 -299 254 -165 168 -256 b -46 -142 40 -262 -21 -199 b 128 -1 -32 -122 44 -87 b 256 604 -221 71 -18 604 b 321 557 286 604 306 585 b 463 550 361 593 417 597 b 803 799 569 528 739 589 l 872 761 b 686 417 822 592 758 478 l 779 356 b 492 243 747 253 613 226 b 156 -6 433 122 333 -28 m 151 149 b 346 276 206 121 294 179 b 272 339 319 290 289 317 b 260 407 264 363 260 385 b 151 149 128 356 69 189 m 519 357 b 683 415 585 346 657 354 b 519 364 632 371 576 354 l 519 357 "},"ờ":{"ha":690,"x_min":0,"x_max":0,"o":"m 156 -6 b 256 604 -232 43 -25 604 b 321 557 286 604 306 585 b 463 550 361 593 417 597 b 803 799 569 528 739 589 l 872 761 b 686 417 822 592 758 478 l 779 356 b 492 243 747 253 613 226 b 156 -6 433 122 333 -28 m 151 149 b 346 276 206 121 294 179 b 272 339 319 290 289 317 b 260 407 264 363 260 385 b 151 149 128 356 69 189 m 210 761 b 381 911 219 838 303 925 b 550 736 403 836 482 775 b 507 647 560 710 539 654 b 210 761 399 656 263 692 m 519 357 b 683 415 585 346 657 354 b 519 364 632 371 576 354 l 519 357 "}}}
